<?xml version="1.0" standalone="no"?>
<!DOCTYPE svg PUBLIC "-//W3C//DTD SVG 20010904//EN"
 "http://www.w3.org/TR/2001/REC-SVG-20010904/DTD/svg10.dtd">
<svg version="1.0" xmlns="http://www.w3.org/2000/svg"
 width="500.000000pt" height="500.000000pt" viewBox="0 0 500.000000 500.000000"
 preserveAspectRatio="xMidYMid meet">
<metadata>
Created by potrace 1.14, written by Peter Selinger 2001-2017
</metadata>
<g transform="translate(0.000000,500.000000) scale(0.100000,-0.100000)"
fill="#000000" stroke="none">
<path d="M0 2500 l0 -2500 2500 0 2500 0 0 2500 0 2500 -2500 0 -2500 0 0
-2500z m2775 1335 c114 -25 224 -64 330 -116 110 -55 258 -155 263 -180 2 -11
-72 -59 -246 -162 l-248 -147 -63 25 c-238 97 -505 78 -726 -51 -105 -62 -227
-184 -289 -289 -129 -221 -148 -488 -51 -726 l25 -62 -147 -249 c-104 -177
-151 -248 -162 -246 -24 5 -125 152 -180 263 -93 190 -131 342 -138 560 -14
390 120 730 396 1006 203 203 456 335 734 383 107 19 402 14 502 -9z m494
-2109 c124 -125 182 -189 178 -199 -16 -41 -229 -193 -355 -253 -216 -103
-402 -141 -643 -131 -213 8 -366 46 -554 138 -111 55 -258 156 -263 180 -2 11
69 58 246 162 l249 147 62 -25 c107 -44 187 -58 316 -58 90 0 140 6 200 21
103 28 227 90 301 152 33 27 64 49 69 49 6 1 93 -82 194 -183z"/>
</g>
</svg>
