<svg xmlns="http://www.w3.org/2000/svg" width="477" height="551"><rect x="0" y="0" width="100%" height="100%" fill="rgb(24, 23, 25)"></rect><polyline points="0,45.95708142749421,26.533333333333335,0,79.60000000000001,0,106.13333333333334,45.95708142749421,79.60000000000001,91.91416285498842,26.533333333333335,91.91416285498842,0,45.95708142749421" fill="#222" fill-opacity="0.13266666666666668" stroke="#000" stroke-opacity="0.02" transform="translate(-53.06666666666667,-45.95708142749421)"></polyline><polyline points="0,45.95708142749421,26.533333333333335,0,79.60000000000001,0,106.13333333333334,45.95708142749421,79.60000000000001,91.91416285498842,26.533333333333335,91.91416285498842,0,45.95708142749421" fill="#222" fill-opacity="0.13266666666666668" stroke="#000" stroke-opacity="0.02" transform="translate(424.53333333333336,-45.95708142749421)"></polyline><polyline points="0,45.95708142749421,26.533333333333335,0,79.60000000000001,0,106.13333333333334,45.95708142749421,79.60000000000001,91.91416285498842,26.533333333333335,91.91416285498842,0,45.95708142749421" fill="#222" fill-opacity="0.13266666666666668" stroke="#000" stroke-opacity="0.02" transform="translate(-53.06666666666667,505.5278957024363)"></polyline><polyline points="0,45.95708142749421,26.533333333333335,0,79.60000000000001,0,106.13333333333334,45.95708142749421,79.60000000000001,91.91416285498842,26.533333333333335,91.91416285498842,0,45.95708142749421" fill="#222" fill-opacity="0.13266666666666668" stroke="#000" stroke-opacity="0.02" transform="translate(424.53333333333336,505.5278957024363)"></polyline><polyline points="0,45.95708142749421,26.533333333333335,0,79.60000000000001,0,106.13333333333334,45.95708142749421,79.60000000000001,91.91416285498842,26.533333333333335,91.91416285498842,0,45.95708142749421" fill="#ddd" fill-opacity="0.05466666666666667" stroke="#000" stroke-opacity="0.02" transform="translate(26.53333333333334,0)"></polyline><polyline points="0,45.95708142749421,26.533333333333335,0,79.60000000000001,0,106.13333333333334,45.95708142749421,79.60000000000001,91.91416285498842,26.533333333333335,91.91416285498842,0,45.95708142749421" fill="#ddd" fill-opacity="0.05466666666666667" stroke="#000" stroke-opacity="0.02" transform="translate(26.53333333333334,551.4849771299305)"></polyline><polyline points="0,45.95708142749421,26.533333333333335,0,79.60000000000001,0,106.13333333333334,45.95708142749421,79.60000000000001,91.91416285498842,26.533333333333335,91.91416285498842,0,45.95708142749421" fill="#222" fill-opacity="0.15" stroke="#000" stroke-opacity="0.02" transform="translate(106.13333333333335,-45.95708142749421)"></polyline><polyline points="0,45.95708142749421,26.533333333333335,0,79.60000000000001,0,106.13333333333334,45.95708142749421,79.60000000000001,91.91416285498842,26.533333333333335,91.91416285498842,0,45.95708142749421" fill="#222" fill-opacity="0.15" stroke="#000" stroke-opacity="0.02" transform="translate(106.13333333333335,505.5278957024363)"></polyline><polyline points="0,45.95708142749421,26.533333333333335,0,79.60000000000001,0,106.13333333333334,45.95708142749421,79.60000000000001,91.91416285498842,26.533333333333335,91.91416285498842,0,45.95708142749421" fill="#222" fill-opacity="0.028666666666666667" stroke="#000" stroke-opacity="0.02" transform="translate(185.73333333333335,0)"></polyline><polyline points="0,45.95708142749421,26.533333333333335,0,79.60000000000001,0,106.13333333333334,45.95708142749421,79.60000000000001,91.91416285498842,26.533333333333335,91.91416285498842,0,45.95708142749421" fill="#222" fill-opacity="0.028666666666666667" stroke="#000" stroke-opacity="0.02" transform="translate(185.73333333333335,551.4849771299305)"></polyline><polyline points="0,45.95708142749421,26.533333333333335,0,79.60000000000001,0,106.13333333333334,45.95708142749421,79.60000000000001,91.91416285498842,26.533333333333335,91.91416285498842,0,45.95708142749421" fill="#222" fill-opacity="0.046" stroke="#000" stroke-opacity="0.02" transform="translate(265.33333333333337,-45.95708142749421)"></polyline><polyline points="0,45.95708142749421,26.533333333333335,0,79.60000000000001,0,106.13333333333334,45.95708142749421,79.60000000000001,91.91416285498842,26.533333333333335,91.91416285498842,0,45.95708142749421" fill="#222" fill-opacity="0.046" stroke="#000" stroke-opacity="0.02" transform="translate(265.33333333333337,505.5278957024363)"></polyline><polyline points="0,45.95708142749421,26.533333333333335,0,79.60000000000001,0,106.13333333333334,45.95708142749421,79.60000000000001,91.91416285498842,26.533333333333335,91.91416285498842,0,45.95708142749421" fill="#222" fill-opacity="0.15" stroke="#000" stroke-opacity="0.02" transform="translate(344.9333333333334,0)"></polyline><polyline points="0,45.95708142749421,26.533333333333335,0,79.60000000000001,0,106.13333333333334,45.95708142749421,79.60000000000001,91.91416285498842,26.533333333333335,91.91416285498842,0,45.95708142749421" fill="#222" fill-opacity="0.15" stroke="#000" stroke-opacity="0.02" transform="translate(344.9333333333334,551.4849771299305)"></polyline><polyline points="0,45.95708142749421,26.533333333333335,0,79.60000000000001,0,106.13333333333334,45.95708142749421,79.60000000000001,91.91416285498842,26.533333333333335,91.91416285498842,0,45.95708142749421" fill="#222" fill-opacity="0.08066666666666666" stroke="#000" stroke-opacity="0.02" transform="translate(-53.06666666666667,45.95708142749421)"></polyline><polyline points="0,45.95708142749421,26.533333333333335,0,79.60000000000001,0,106.13333333333334,45.95708142749421,79.60000000000001,91.91416285498842,26.533333333333335,91.91416285498842,0,45.95708142749421" fill="#222" fill-opacity="0.08066666666666666" stroke="#000" stroke-opacity="0.02" transform="translate(424.53333333333336,45.95708142749421)"></polyline><polyline points="0,45.95708142749421,26.533333333333335,0,79.60000000000001,0,106.13333333333334,45.95708142749421,79.60000000000001,91.91416285498842,26.533333333333335,91.91416285498842,0,45.95708142749421" fill="#ddd" fill-opacity="0.05466666666666667" stroke="#000" stroke-opacity="0.02" transform="translate(26.53333333333334,91.9141628549884)"></polyline><polyline points="0,45.95708142749421,26.533333333333335,0,79.60000000000001,0,106.13333333333334,45.95708142749421,79.60000000000001,91.91416285498842,26.533333333333335,91.91416285498842,0,45.95708142749421" fill="#ddd" fill-opacity="0.03733333333333333" stroke="#000" stroke-opacity="0.02" transform="translate(106.13333333333335,45.95708142749421)"></polyline><polyline points="0,45.95708142749421,26.533333333333335,0,79.60000000000001,0,106.13333333333334,45.95708142749421,79.60000000000001,91.91416285498842,26.533333333333335,91.91416285498842,0,45.95708142749421" fill="#222" fill-opacity="0.15" stroke="#000" stroke-opacity="0.02" transform="translate(185.73333333333335,91.9141628549884)"></polyline><polyline points="0,45.95708142749421,26.533333333333335,0,79.60000000000001,0,106.13333333333334,45.95708142749421,79.60000000000001,91.91416285498842,26.533333333333335,91.91416285498842,0,45.95708142749421" fill="#ddd" fill-opacity="0.10666666666666667" stroke="#000" stroke-opacity="0.02" transform="translate(265.33333333333337,45.95708142749421)"></polyline><polyline points="0,45.95708142749421,26.533333333333335,0,79.60000000000001,0,106.13333333333334,45.95708142749421,79.60000000000001,91.91416285498842,26.533333333333335,91.91416285498842,0,45.95708142749421" fill="#222" fill-opacity="0.15" stroke="#000" stroke-opacity="0.02" transform="translate(344.9333333333334,91.9141628549884)"></polyline><polyline points="0,45.95708142749421,26.533333333333335,0,79.60000000000001,0,106.13333333333334,45.95708142749421,79.60000000000001,91.91416285498842,26.533333333333335,91.91416285498842,0,45.95708142749421" fill="#ddd" fill-opacity="0.08933333333333333" stroke="#000" stroke-opacity="0.02" transform="translate(-53.06666666666667,137.87124428248262)"></polyline><polyline points="0,45.95708142749421,26.533333333333335,0,79.60000000000001,0,106.13333333333334,45.95708142749421,79.60000000000001,91.91416285498842,26.533333333333335,91.91416285498842,0,45.95708142749421" fill="#ddd" fill-opacity="0.08933333333333333" stroke="#000" stroke-opacity="0.02" transform="translate(424.53333333333336,137.87124428248262)"></polyline><polyline points="0,45.95708142749421,26.533333333333335,0,79.60000000000001,0,106.13333333333334,45.95708142749421,79.60000000000001,91.91416285498842,26.533333333333335,91.91416285498842,0,45.95708142749421" fill="#222" fill-opacity="0.046" stroke="#000" stroke-opacity="0.02" transform="translate(26.53333333333334,183.82832570997684)"></polyline><polyline points="0,45.95708142749421,26.533333333333335,0,79.60000000000001,0,106.13333333333334,45.95708142749421,79.60000000000001,91.91416285498842,26.533333333333335,91.91416285498842,0,45.95708142749421" fill="#ddd" fill-opacity="0.05466666666666667" stroke="#000" stroke-opacity="0.02" transform="translate(106.13333333333335,137.87124428248262)"></polyline><polyline points="0,45.95708142749421,26.533333333333335,0,79.60000000000001,0,106.13333333333334,45.95708142749421,79.60000000000001,91.91416285498842,26.533333333333335,91.91416285498842,0,45.95708142749421" fill="#ddd" fill-opacity="0.05466666666666667" stroke="#000" stroke-opacity="0.02" transform="translate(185.73333333333335,183.82832570997684)"></polyline><polyline points="0,45.95708142749421,26.533333333333335,0,79.60000000000001,0,106.13333333333334,45.95708142749421,79.60000000000001,91.91416285498842,26.533333333333335,91.91416285498842,0,45.95708142749421" fill="#ddd" fill-opacity="0.03733333333333333" stroke="#000" stroke-opacity="0.02" transform="translate(265.33333333333337,137.87124428248262)"></polyline><polyline points="0,45.95708142749421,26.533333333333335,0,79.60000000000001,0,106.13333333333334,45.95708142749421,79.60000000000001,91.91416285498842,26.533333333333335,91.91416285498842,0,45.95708142749421" fill="#ddd" fill-opacity="0.05466666666666667" stroke="#000" stroke-opacity="0.02" transform="translate(344.9333333333334,183.82832570997684)"></polyline><polyline points="0,45.95708142749421,26.533333333333335,0,79.60000000000001,0,106.13333333333334,45.95708142749421,79.60000000000001,91.91416285498842,26.533333333333335,91.91416285498842,0,45.95708142749421" fill="#ddd" fill-opacity="0.14133333333333334" stroke="#000" stroke-opacity="0.02" transform="translate(-53.06666666666667,229.78540713747103)"></polyline><polyline points="0,45.95708142749421,26.533333333333335,0,79.60000000000001,0,106.13333333333334,45.95708142749421,79.60000000000001,91.91416285498842,26.533333333333335,91.91416285498842,0,45.95708142749421" fill="#ddd" fill-opacity="0.14133333333333334" stroke="#000" stroke-opacity="0.02" transform="translate(424.53333333333336,229.78540713747103)"></polyline><polyline points="0,45.95708142749421,26.533333333333335,0,79.60000000000001,0,106.13333333333334,45.95708142749421,79.60000000000001,91.91416285498842,26.533333333333335,91.91416285498842,0,45.95708142749421" fill="#ddd" fill-opacity="0.10666666666666667" stroke="#000" stroke-opacity="0.02" transform="translate(26.53333333333334,275.74248856496524)"></polyline><polyline points="0,45.95708142749421,26.533333333333335,0,79.60000000000001,0,106.13333333333334,45.95708142749421,79.60000000000001,91.91416285498842,26.533333333333335,91.91416285498842,0,45.95708142749421" fill="#222" fill-opacity="0.046" stroke="#000" stroke-opacity="0.02" transform="translate(106.13333333333335,229.78540713747103)"></polyline><polyline points="0,45.95708142749421,26.533333333333335,0,79.60000000000001,0,106.13333333333334,45.95708142749421,79.60000000000001,91.91416285498842,26.533333333333335,91.91416285498842,0,45.95708142749421" fill="#ddd" fill-opacity="0.08933333333333333" stroke="#000" stroke-opacity="0.02" transform="translate(185.73333333333335,275.74248856496524)"></polyline><polyline points="0,45.95708142749421,26.533333333333335,0,79.60000000000001,0,106.13333333333334,45.95708142749421,79.60000000000001,91.91416285498842,26.533333333333335,91.91416285498842,0,45.95708142749421" fill="#ddd" fill-opacity="0.07200000000000001" stroke="#000" stroke-opacity="0.02" transform="translate(265.33333333333337,229.78540713747103)"></polyline><polyline points="0,45.95708142749421,26.533333333333335,0,79.60000000000001,0,106.13333333333334,45.95708142749421,79.60000000000001,91.91416285498842,26.533333333333335,91.91416285498842,0,45.95708142749421" fill="#222" fill-opacity="0.13266666666666668" stroke="#000" stroke-opacity="0.02" transform="translate(344.9333333333334,275.74248856496524)"></polyline><polyline points="0,45.95708142749421,26.533333333333335,0,79.60000000000001,0,106.13333333333334,45.95708142749421,79.60000000000001,91.91416285498842,26.533333333333335,91.91416285498842,0,45.95708142749421" fill="#ddd" fill-opacity="0.12400000000000001" stroke="#000" stroke-opacity="0.02" transform="translate(-53.06666666666667,321.6995699924595)"></polyline><polyline points="0,45.95708142749421,26.533333333333335,0,79.60000000000001,0,106.13333333333334,45.95708142749421,79.60000000000001,91.91416285498842,26.533333333333335,91.91416285498842,0,45.95708142749421" fill="#ddd" fill-opacity="0.12400000000000001" stroke="#000" stroke-opacity="0.02" transform="translate(424.53333333333336,321.6995699924595)"></polyline><polyline points="0,45.95708142749421,26.533333333333335,0,79.60000000000001,0,106.13333333333334,45.95708142749421,79.60000000000001,91.91416285498842,26.533333333333335,91.91416285498842,0,45.95708142749421" fill="#ddd" fill-opacity="0.03733333333333333" stroke="#000" stroke-opacity="0.02" transform="translate(26.53333333333334,367.6566514199537)"></polyline><polyline points="0,45.95708142749421,26.533333333333335,0,79.60000000000001,0,106.13333333333334,45.95708142749421,79.60000000000001,91.91416285498842,26.533333333333335,91.91416285498842,0,45.95708142749421" fill="#222" fill-opacity="0.06333333333333334" stroke="#000" stroke-opacity="0.02" transform="translate(106.13333333333335,321.6995699924595)"></polyline><polyline points="0,45.95708142749421,26.533333333333335,0,79.60000000000001,0,106.13333333333334,45.95708142749421,79.60000000000001,91.91416285498842,26.533333333333335,91.91416285498842,0,45.95708142749421" fill="#ddd" fill-opacity="0.03733333333333333" stroke="#000" stroke-opacity="0.02" transform="translate(185.73333333333335,367.6566514199537)"></polyline><polyline points="0,45.95708142749421,26.533333333333335,0,79.60000000000001,0,106.13333333333334,45.95708142749421,79.60000000000001,91.91416285498842,26.533333333333335,91.91416285498842,0,45.95708142749421" fill="#222" fill-opacity="0.028666666666666667" stroke="#000" stroke-opacity="0.02" transform="translate(265.33333333333337,321.6995699924595)"></polyline><polyline points="0,45.95708142749421,26.533333333333335,0,79.60000000000001,0,106.13333333333334,45.95708142749421,79.60000000000001,91.91416285498842,26.533333333333335,91.91416285498842,0,45.95708142749421" fill="#222" fill-opacity="0.046" stroke="#000" stroke-opacity="0.02" transform="translate(344.9333333333334,367.6566514199537)"></polyline><polyline points="0,45.95708142749421,26.533333333333335,0,79.60000000000001,0,106.13333333333334,45.95708142749421,79.60000000000001,91.91416285498842,26.533333333333335,91.91416285498842,0,45.95708142749421" fill="#222" fill-opacity="0.15" stroke="#000" stroke-opacity="0.02" transform="translate(-53.06666666666667,413.6137328474479)"></polyline><polyline points="0,45.95708142749421,26.533333333333335,0,79.60000000000001,0,106.13333333333334,45.95708142749421,79.60000000000001,91.91416285498842,26.533333333333335,91.91416285498842,0,45.95708142749421" fill="#222" fill-opacity="0.15" stroke="#000" stroke-opacity="0.02" transform="translate(424.53333333333336,413.6137328474479)"></polyline><polyline points="0,45.95708142749421,26.533333333333335,0,79.60000000000001,0,106.13333333333334,45.95708142749421,79.60000000000001,91.91416285498842,26.533333333333335,91.91416285498842,0,45.95708142749421" fill="#222" fill-opacity="0.11533333333333333" stroke="#000" stroke-opacity="0.02" transform="translate(26.53333333333334,459.5708142749421)"></polyline><polyline points="0,45.95708142749421,26.533333333333335,0,79.60000000000001,0,106.13333333333334,45.95708142749421,79.60000000000001,91.91416285498842,26.533333333333335,91.91416285498842,0,45.95708142749421" fill="#ddd" fill-opacity="0.05466666666666667" stroke="#000" stroke-opacity="0.02" transform="translate(106.13333333333335,413.6137328474479)"></polyline><polyline points="0,45.95708142749421,26.533333333333335,0,79.60000000000001,0,106.13333333333334,45.95708142749421,79.60000000000001,91.91416285498842,26.533333333333335,91.91416285498842,0,45.95708142749421" fill="#ddd" fill-opacity="0.14133333333333334" stroke="#000" stroke-opacity="0.02" transform="translate(185.73333333333335,459.5708142749421)"></polyline><polyline points="0,45.95708142749421,26.533333333333335,0,79.60000000000001,0,106.13333333333334,45.95708142749421,79.60000000000001,91.91416285498842,26.533333333333335,91.91416285498842,0,45.95708142749421" fill="#222" fill-opacity="0.13266666666666668" stroke="#000" stroke-opacity="0.02" transform="translate(265.33333333333337,413.6137328474479)"></polyline><polyline points="0,45.95708142749421,26.533333333333335,0,79.60000000000001,0,106.13333333333334,45.95708142749421,79.60000000000001,91.91416285498842,26.533333333333335,91.91416285498842,0,45.95708142749421" fill="#ddd" fill-opacity="0.05466666666666667" stroke="#000" stroke-opacity="0.02" transform="translate(344.9333333333334,459.5708142749421)"></polyline></svg>