<svg xmlns="http://www.w3.org/2000/svg" xmlns:xlink="http://www.w3.org/1999/xlink" width="6912" zoomAndPan="magnify" viewBox="0 0 5184 2592.000001" height="3456" preserveAspectRatio="xMidYMid meet" version="1.0"><defs><g/><clipPath id="ebc6039545"><path d="M 3063 2533 L 3209 2533 L 3209 2591 L 3063 2591 Z M 3063 2533 " clip-rule="nonzero"/></clipPath><clipPath id="ebc01a8335"><path d="M 3061 2536 L 3069 2536 L 3069 2591 L 3061 2591 Z M 3061 2536 " clip-rule="nonzero"/></clipPath><clipPath id="77ac5e437d"><path d="M 2921 2455 L 2929 2455 L 2929 2591 L 2921 2591 Z M 2921 2455 " clip-rule="nonzero"/></clipPath><clipPath id="e8c02d3cb3"><path d="M 2781 2374 L 2789 2374 L 2789 2591 L 2781 2591 Z M 2781 2374 " clip-rule="nonzero"/></clipPath><clipPath id="4fc2279933"><path d="M 2640 2455 L 2649 2455 L 2649 2591 L 2640 2591 Z M 2640 2455 " clip-rule="nonzero"/></clipPath><clipPath id="66f409f28b"><path d="M 2502 2533 L 2647 2533 L 2647 2591 L 2502 2591 Z M 2502 2533 " clip-rule="nonzero"/></clipPath><clipPath id="561d49d55c"><path d="M 2500 2536 L 2509 2536 L 2509 2591 L 2500 2591 Z M 2500 2536 " clip-rule="nonzero"/></clipPath><clipPath id="58b99c7432"><path d="M 2222 2533 L 2367 2533 L 2367 2591 L 2222 2591 Z M 2222 2533 " clip-rule="nonzero"/></clipPath><clipPath id="bac2d2a10a"><path d="M 1800 2370 L 2088 2370 L 2088 2591 L 1800 2591 Z M 1800 2370 " clip-rule="nonzero"/></clipPath><clipPath id="fe87258b8a"><path d="M 1940 2452 L 2086 2452 L 2086 2591 L 1940 2591 Z M 1940 2452 " clip-rule="nonzero"/></clipPath><clipPath id="f984b2375f"><path d="M 2082 2455 L 2368 2455 L 2368 2591 L 2082 2591 Z M 2082 2455 " clip-rule="nonzero"/></clipPath><clipPath id="4a10afc736"><path d="M 1661 2533 L 1806 2533 L 1806 2591 L 1661 2591 Z M 1661 2533 " clip-rule="nonzero"/></clipPath><clipPath id="834ddf66e2"><path d="M 1519 2452 L 1527 2452 L 1527 2591 L 1519 2591 Z M 1519 2452 " clip-rule="nonzero"/></clipPath><clipPath id="67b1cc22f0"><path d="M 1659 2532 L 1668 2532 L 1668 2591 L 1659 2591 Z M 1659 2532 " clip-rule="nonzero"/></clipPath><clipPath id="b4f49b2547"><path d="M 1379 2212 L 1387 2212 L 1387 2591 L 1379 2591 Z M 1379 2212 " clip-rule="nonzero"/></clipPath><clipPath id="7c99462f46"><path d="M 1099 2212 L 1107 2212 L 1107 2591 L 1099 2591 Z M 1099 2212 " clip-rule="nonzero"/></clipPath><clipPath id="2fb8736f5b"><path d="M 1101 2533 L 1385 2533 L 1385 2591 L 1101 2591 Z M 1101 2533 " clip-rule="nonzero"/></clipPath><clipPath id="c1e8b27358"><path d="M 959 2455 L 967 2455 L 967 2591 L 959 2591 Z M 959 2455 " clip-rule="nonzero"/></clipPath><clipPath id="6d6c31a748"><path d="M 820 2533 L 965 2533 L 965 2591 L 820 2591 Z M 820 2533 " clip-rule="nonzero"/></clipPath><clipPath id="b00a4abdaa"><path d="M 818 2374 L 827 2374 L 827 2591 L 818 2591 Z M 818 2374 " clip-rule="nonzero"/></clipPath><clipPath id="d672a76228"><path d="M 118.074219 1723.261719 L 406 1723.261719 L 406 2458.621094 L 118.074219 2458.621094 Z M 118.074219 1723.261719 " clip-rule="nonzero"/></clipPath><clipPath id="da4ca0837b"><path d="M 540 2533 L 1105 2533 L 1105 2591 L 540 2591 Z M 540 2533 " clip-rule="nonzero"/></clipPath><clipPath id="6a0da626fe"><path d="M 678 2455 L 686 2455 L 686 2591 L 678 2591 Z M 678 2455 " clip-rule="nonzero"/></clipPath><clipPath id="bd8984645a"><path d="M 398 2293 L 406 2293 L 406 2591 L 398 2591 Z M 398 2293 " clip-rule="nonzero"/></clipPath><clipPath id="ce56625b23"><path d="M 118 2452 L 404 2452 L 404 2591 L 118 2591 Z M 118 2452 " clip-rule="nonzero"/></clipPath><clipPath id="7193af2bdc"><path d="M 260 2533 L 404 2533 L 404 2591 L 260 2591 Z M 260 2533 " clip-rule="nonzero"/></clipPath><clipPath id="1590acc82d"><path d="M 538 2536 L 546 2536 L 546 2591 L 538 2591 Z M 538 2536 " clip-rule="nonzero"/></clipPath><clipPath id="36a37fa54a"><path d="M 258 2536 L 266 2536 L 266 2591 L 258 2591 Z M 258 2536 " clip-rule="nonzero"/></clipPath><clipPath id="446a28cc0d"><path d="M 2056.496094 132.667969 L 2345 132.667969 L 2345 868.027344 L 2056.496094 868.027344 Z M 2056.496094 132.667969 " clip-rule="nonzero"/></clipPath></defs><path fill="#ffffff" d="M 1 0 L 5183 0 L 5183 2591 L 1 2591 Z M 1 0 " fill-opacity="1" fill-rule="nonzero"/><path fill="#ff914d" d="M 1 0 L 5183 0 L 5183 2591 L 1 2591 Z M 1 0 " fill-opacity="1" fill-rule="nonzero"/><path fill="#ffffff" d="M 3203.234375 2290.363281 L 3061.488281 2372.222656 L 3061.488281 2536.183594 L 3068.734375 2536.183594 L 3068.734375 2376.425781 L 3203.234375 2298.769531 L 3203.234375 2290.363281 " fill-opacity="1" fill-rule="nonzero"/><path fill="#ffffff" d="M 2923.125 2296.546875 L 3063.277344 2377.464844 L 3066.921875 2371.183594 L 2926.773438 2290.269531 L 2923.125 2296.546875 " fill-opacity="1" fill-rule="nonzero"/><path fill="#ffffff" d="M 3063.277344 2377.464844 L 3203.351562 2458.332031 L 3203.351562 2449.953125 L 3066.921875 2371.183594 L 3063.277344 2377.464844 " fill-opacity="1" fill-rule="nonzero"/><g clip-path="url(#ebc6039545)"><path fill="#ffffff" d="M 3063.300781 2539.320312 L 3201.613281 2619.175781 L 3205.210938 2940.742188 L 3208.90625 2615 L 3066.921875 2533.019531 L 3063.300781 2539.320312 " fill-opacity="1" fill-rule="nonzero"/></g><g clip-path="url(#ebc01a8335)"><path fill="#ffffff" d="M 3065.109375 2940.769531 L 3068.734375 2536.183594 L 3061.488281 2536.183594 L 3065.109375 2940.769531 " fill-opacity="1" fill-rule="nonzero"/></g><g clip-path="url(#77ac5e437d)"><path fill="#ffffff" d="M 2921.316406 2457.34375 L 2924.9375 2940.769531 L 2928.582031 2455.242188 L 2921.316406 2457.34375 " fill-opacity="1" fill-rule="nonzero"/></g><path fill="#ffffff" d="M 2648.257812 2133.648438 L 2784.785156 2054.832031 L 2921.289062 2133.648438 L 2921.289062 2291.332031 L 2648.257812 2448.964844 Z M 2782.976562 2047.492188 L 2640.992188 2129.472656 C 2640.871094 2240.164062 2640.941406 2350.855469 2640.992188 2461.542969 C 2736.832031 2406.175781 2832.671875 2350.78125 2928.582031 2295.484375 L 2928.582031 2129.472656 L 2784.785156 2046.453125 L 2782.976562 2047.492188 " fill-opacity="1" fill-rule="nonzero"/><path fill="#ffffff" d="M 2926.773438 2290.269531 L 2786.597656 2209.351562 L 2782.976562 2215.628906 L 2923.125 2296.546875 L 2926.773438 2290.269531 " fill-opacity="1" fill-rule="nonzero"/><path fill="#ffffff" d="M 2646.425781 2296.546875 L 2786.597656 2215.628906 L 2782.976562 2209.351562 L 2642.824219 2290.269531 L 2646.425781 2296.546875 " fill-opacity="1" fill-rule="nonzero"/><path fill="#ffffff" d="M 2923.125 2128.410156 L 2782.976562 2209.351562 L 2786.597656 2215.628906 L 2926.773438 2134.710938 L 2923.125 2128.410156 " fill-opacity="1" fill-rule="nonzero"/><path fill="#ffffff" d="M 2642.800781 2134.710938 L 2782.976562 2215.628906 L 2786.597656 2209.351562 L 2646.449219 2128.410156 L 2642.800781 2134.710938 " fill-opacity="1" fill-rule="nonzero"/><path fill="#ffffff" d="M 2781.164062 2212.492188 L 2781.164062 2374.324219 L 2788.410156 2374.324219 L 2788.410156 2212.492188 L 2781.164062 2212.492188 " fill-opacity="1" fill-rule="nonzero"/><g clip-path="url(#e8c02d3cb3)"><path fill="#ffffff" d="M 2781.164062 2374.324219 L 2784.785156 2940.769531 L 2788.410156 2374.324219 L 2781.164062 2374.324219 " fill-opacity="1" fill-rule="nonzero"/></g><path fill="#ffffff" d="M 2371.558594 2455.242188 L 2504.464844 2378.503906 L 2637.367188 2455.242188 L 2504.464844 2531.980469 Z M 2502.652344 2371.183594 L 2357.042969 2455.242188 L 2504.464844 2540.359375 L 2651.882812 2455.242188 L 2504.464844 2370.148438 L 2502.652344 2371.183594 " fill-opacity="1" fill-rule="nonzero"/><g clip-path="url(#4fc2279933)"><path fill="#ffffff" d="M 2640.992188 2455.242188 L 2640.992188 2617.101562 L 2648.257812 2617.101562 L 2648.257812 2455.242188 L 2640.992188 2455.242188 " fill-opacity="1" fill-rule="nonzero"/></g><g clip-path="url(#66f409f28b)"><path fill="#ffffff" d="M 2502.628906 2539.320312 L 2642.800781 2620.238281 L 2646.449219 2613.960938 L 2506.273438 2533.019531 L 2502.628906 2539.320312 " fill-opacity="1" fill-rule="nonzero"/></g><path fill="#ffffff" d="M 2366.101562 2290.269531 L 2224.140625 2208.289062 C 2176.183594 2235.9375 2128.273438 2263.632812 2080.34375 2291.308594 L 2080.34375 2457.34375 C 2128.273438 2484.964844 2176.183594 2512.6875 2224.140625 2540.359375 C 2272.046875 2512.640625 2319.980469 2484.964844 2367.933594 2457.34375 C 2367.933594 2401.996094 2367.886719 2346.652344 2367.933594 2291.308594 Z M 2224.140625 2216.667969 L 2360.644531 2295.484375 L 2360.644531 2453.164062 L 2224.140625 2531.980469 L 2087.609375 2453.164062 L 2087.609375 2295.484375 L 2224.140625 2216.667969 " fill-opacity="1" fill-rule="nonzero"/><path fill="#ffffff" d="M 2082.179688 2296.546875 L 2222.328125 2377.464844 L 2225.949219 2371.183594 L 2085.777344 2290.269531 L 2082.179688 2296.546875 " fill-opacity="1" fill-rule="nonzero"/><path fill="#ffffff" d="M 2362.476562 2290.269531 L 2222.328125 2371.183594 L 2225.949219 2377.464844 L 2366.125 2296.546875 L 2362.476562 2290.269531 " fill-opacity="1" fill-rule="nonzero"/><path fill="#ffffff" d="M 2222.304688 2371.183594 L 2082.152344 2452.101562 L 2085.800781 2458.40625 L 2225.949219 2377.464844 L 2222.304688 2371.183594 " fill-opacity="1" fill-rule="nonzero"/><path fill="#ffffff" d="M 2222.304688 2377.464844 L 2362.476562 2458.40625 L 2366.125 2452.101562 L 2225.949219 2371.183594 L 2222.304688 2377.464844 " fill-opacity="1" fill-rule="nonzero"/><path fill="#ffffff" d="M 2220.515625 2374.324219 L 2220.515625 2536.160156 L 2227.761719 2536.160156 L 2227.761719 2374.324219 L 2220.515625 2374.324219 " fill-opacity="1" fill-rule="nonzero"/><g clip-path="url(#561d49d55c)"><path fill="#ffffff" d="M 2500.816406 2536.160156 L 2504.464844 2940.769531 L 2508.085938 2536.160156 L 2500.816406 2536.160156 " fill-opacity="1" fill-rule="nonzero"/></g><g clip-path="url(#58b99c7432)"><path fill="#ffffff" d="M 2222.304688 2539.320312 L 2362.476562 2620.238281 L 2366.125 2613.9375 L 2225.949219 2533.019531 L 2222.304688 2539.320312 " fill-opacity="1" fill-rule="nonzero"/></g><g clip-path="url(#bac2d2a10a)"><path fill="#ffffff" d="M 1801.855469 2620.238281 L 1943.816406 2702.195312 C 1991.722656 2674.496094 2039.679688 2646.824219 2087.609375 2619.175781 L 2087.609375 2453.164062 C 2039.703125 2425.46875 1991.746094 2397.820312 1943.816406 2370.121094 C 1895.882812 2397.796875 1847.949219 2425.492188 1800.019531 2453.164062 L 1800.019531 2619.175781 Z M 1943.816406 2693.839844 L 1807.289062 2615 L 1807.289062 2457.316406 L 1943.816406 2378.503906 L 2080.34375 2457.34375 L 2080.34375 2615 L 1943.816406 2693.839844 " fill-opacity="1" fill-rule="nonzero"/></g><g clip-path="url(#fe87258b8a)"><path fill="#ffffff" d="M 2082.179688 2452.101562 L 1940.191406 2534.082031 L 1940.191406 2698.015625 L 1947.4375 2698.015625 L 1947.4375 2538.257812 L 2085.777344 2458.40625 L 2082.179688 2452.101562 " fill-opacity="1" fill-rule="nonzero"/></g><g clip-path="url(#f984b2375f)"><path fill="#ffffff" d="M 2082.152344 2620.238281 L 2224.140625 2702.21875 C 2272.046875 2674.523438 2319.980469 2646.847656 2367.910156 2619.199219 L 2367.910156 2455.242188 L 2360.667969 2455.242188 L 2360.667969 2615 L 2224.140625 2693.816406 L 2085.800781 2613.960938 L 2082.152344 2620.238281 " fill-opacity="1" fill-rule="nonzero"/></g><path fill="#ffffff" d="M 1807.289062 2455.242188 L 1807.289062 2133.648438 L 1943.816406 2054.832031 L 2080.34375 2133.648438 L 2080.34375 2293.40625 L 2087.609375 2293.40625 L 2087.609375 2129.472656 L 1943.816406 2046.429688 C 1895.882812 2074.101562 1847.925781 2101.75 1800.042969 2129.449219 L 1800.019531 2455.242188 L 1807.289062 2455.242188 " fill-opacity="1" fill-rule="nonzero"/><path fill="#ffffff" d="M 2082.179688 2128.410156 L 1942.003906 2209.328125 L 1945.625 2215.628906 L 2085.777344 2134.710938 L 2082.179688 2128.410156 " fill-opacity="1" fill-rule="nonzero"/><path fill="#ffffff" d="M 1801.855469 2134.710938 L 1942.003906 2215.628906 L 1945.625 2209.328125 L 1805.476562 2128.410156 L 1801.855469 2134.710938 " fill-opacity="1" fill-rule="nonzero"/><path fill="#ffffff" d="M 1942.003906 2215.628906 L 2082.152344 2296.546875 L 2085.800781 2290.246094 L 1945.625 2209.328125 L 1942.003906 2215.628906 " fill-opacity="1" fill-rule="nonzero"/><path fill="#ffffff" d="M 1940.191406 2212.464844 L 1940.191406 2374.324219 L 1947.4375 2374.324219 L 1947.4375 2212.464844 L 1940.191406 2212.464844 " fill-opacity="1" fill-rule="nonzero"/><path fill="#ffffff" d="M 1526.964844 2131.550781 L 1526.964844 1971.792969 L 1663.492188 1892.976562 L 1800.019531 1971.792969 L 1800.019531 2131.550781 L 1807.289062 2131.550781 L 1807.289062 1967.613281 C 1759.378906 1939.941406 1711.449219 1912.246094 1663.492188 1884.597656 C 1615.535156 1912.246094 1567.628906 1939.941406 1519.695312 1967.613281 L 1519.695312 2131.550781 L 1526.964844 2131.550781 " fill-opacity="1" fill-rule="nonzero"/><path fill="#ffffff" d="M 1521.507812 1972.855469 L 1661.679688 2053.769531 L 1665.328125 2047.46875 L 1525.152344 1966.550781 L 1521.507812 1972.855469 " fill-opacity="1" fill-rule="nonzero"/><path fill="#ffffff" d="M 1801.828125 1966.550781 L 1661.679688 2047.46875 L 1665.328125 2053.769531 L 1805.476562 1972.855469 L 1801.828125 1966.550781 " fill-opacity="1" fill-rule="nonzero"/><path fill="#ffffff" d="M 1661.679688 2047.46875 L 1521.53125 2128.410156 L 1525.128906 2134.710938 L 1665.300781 2053.769531 L 1661.679688 2047.46875 " fill-opacity="1" fill-rule="nonzero"/><path fill="#ffffff" d="M 1661.679688 2053.769531 L 1801.855469 2134.710938 L 1805.476562 2128.410156 L 1665.300781 2047.46875 L 1661.679688 2053.769531 " fill-opacity="1" fill-rule="nonzero"/><path fill="#ffffff" d="M 1659.867188 2050.632812 L 1659.867188 2212.464844 L 1667.113281 2212.464844 L 1667.136719 2050.632812 L 1659.867188 2050.632812 " fill-opacity="1" fill-rule="nonzero"/><path fill="#ffffff" d="M 1386.789062 2212.464844 L 1386.789062 1890.875 L 1523.316406 1812.058594 L 1661.679688 1891.9375 L 1665.300781 1885.636719 L 1523.316406 1803.679688 C 1475.386719 1831.328125 1427.453125 1859 1379.519531 1886.699219 L 1379.546875 2212.464844 L 1386.789062 2212.464844 " fill-opacity="1" fill-rule="nonzero"/><path fill="#ffffff" d="M 1381.332031 1891.9375 L 1521.507812 1972.855469 L 1525.152344 1966.550781 L 1384.976562 1885.636719 L 1381.332031 1891.9375 " fill-opacity="1" fill-rule="nonzero"/><path fill="#ffffff" d="M 1665.300781 2209.328125 L 1519.695312 2125.269531 C 1519.671875 2182.015625 1519.648438 2238.738281 1519.695312 2295.484375 L 1667.136719 2380.625 L 1667.136719 2210.390625 Z M 1526.964844 2137.828125 L 1659.84375 2214.542969 L 1659.84375 2368.023438 L 1526.964844 2291.308594 L 1526.964844 2137.828125 " fill-opacity="1" fill-rule="nonzero"/><path fill="#ffffff" d="M 1661.679688 2215.628906 L 1801.855469 2296.546875 L 1805.476562 2290.246094 L 1665.300781 2209.328125 L 1661.679688 2215.628906 " fill-opacity="1" fill-rule="nonzero"/><path fill="#ffffff" d="M 1801.828125 2290.246094 L 1661.679688 2371.160156 L 1665.328125 2377.464844 L 1805.476562 2296.546875 L 1801.828125 2290.246094 " fill-opacity="1" fill-rule="nonzero"/><path fill="#ffffff" d="M 1661.679688 2377.464844 L 1801.855469 2458.378906 L 1805.476562 2452.101562 L 1665.300781 2371.160156 L 1661.679688 2377.464844 " fill-opacity="1" fill-rule="nonzero"/><path fill="#ffffff" d="M 1801.828125 2452.101562 L 1661.679688 2533.019531 L 1665.328125 2539.320312 L 1805.476562 2458.40625 L 1801.828125 2452.101562 " fill-opacity="1" fill-rule="nonzero"/><g clip-path="url(#4a10afc736)"><path fill="#ffffff" d="M 1661.679688 2539.320312 L 1801.855469 2620.238281 L 1805.453125 2613.960938 L 1665.300781 2533.019531 L 1661.679688 2539.320312 " fill-opacity="1" fill-rule="nonzero"/></g><path fill="#ffffff" d="M 1659.867188 2374.324219 L 1659.867188 2536.160156 L 1667.113281 2536.160156 L 1667.113281 2374.324219 L 1659.867188 2374.324219 " fill-opacity="1" fill-rule="nonzero"/><g clip-path="url(#834ddf66e2)"><path fill="#ffffff" d="M 1519.695312 2455.242188 L 1523.316406 2940.769531 L 1526.964844 2455.242188 L 1523.171875 2452.246094 L 1519.695312 2455.242188 " fill-opacity="1" fill-rule="nonzero"/></g><g clip-path="url(#67b1cc22f0)"><path fill="#ffffff" d="M 1659.867188 2536.160156 L 1663.492188 2940.792969 L 1667.113281 2536.183594 L 1663.175781 2532.945312 L 1659.867188 2536.160156 " fill-opacity="1" fill-rule="nonzero"/></g><path fill="#ffffff" d="M 1521.507812 2128.410156 L 1381.332031 2209.328125 L 1385.003906 2215.628906 L 1525.152344 2134.710938 L 1521.507812 2128.410156 " fill-opacity="1" fill-rule="nonzero"/><path fill="#ffffff" d="M 1381.332031 2215.628906 L 1521.507812 2296.546875 L 1525.152344 2290.246094 L 1385.003906 2209.328125 L 1381.332031 2215.628906 " fill-opacity="1" fill-rule="nonzero"/><path fill="#ffffff" d="M 1110.113281 2212.464844 L 1243.015625 2135.75 L 1375.921875 2212.464844 L 1243.015625 2289.207031 Z M 1241.207031 2128.410156 L 1095.597656 2212.492188 L 1243.015625 2297.585938 C 1292.132812 2269.1875 1341.296875 2240.839844 1390.433594 2212.492188 L 1243.015625 2127.371094 L 1241.207031 2128.410156 " fill-opacity="1" fill-rule="nonzero"/><g clip-path="url(#b4f49b2547)"><path fill="#ffffff" d="M 1379.546875 2212.464844 L 1379.519531 2698.015625 L 1386.789062 2698.015625 L 1386.789062 2212.464844 L 1379.546875 2212.464844 " fill-opacity="1" fill-rule="nonzero"/></g><g clip-path="url(#7c99462f46)"><path fill="#ffffff" d="M 1099.222656 2212.464844 L 1099.222656 2697.992188 L 1106.464844 2697.992188 L 1106.488281 2212.464844 L 1099.222656 2212.464844 " fill-opacity="1" fill-rule="nonzero"/></g><path fill="#ffffff" d="M 1521.507812 2290.246094 L 1381.332031 2371.160156 L 1385.003906 2377.464844 L 1525.152344 2296.546875 L 1521.507812 2290.246094 " fill-opacity="1" fill-rule="nonzero"/><path fill="#ffffff" d="M 1241.207031 2296.546875 L 1381.355469 2377.464844 L 1384.976562 2371.160156 L 1244.804688 2290.246094 L 1241.207031 2296.546875 " fill-opacity="1" fill-rule="nonzero"/><path fill="#ffffff" d="M 1381.355469 2377.464844 L 1521.53125 2458.378906 L 1525.128906 2452.101562 L 1384.976562 2371.160156 L 1381.355469 2377.464844 " fill-opacity="1" fill-rule="nonzero"/><path fill="#ffffff" d="M 1381.355469 2371.160156 L 1101.03125 2533.019531 L 1104.652344 2539.320312 L 1384.976562 2377.464844 L 1381.355469 2371.160156 " fill-opacity="1" fill-rule="nonzero"/><g clip-path="url(#2fb8736f5b)"><path fill="#ffffff" d="M 1101.03125 2539.320312 L 1381.355469 2701.15625 L 1384.976562 2694.878906 L 1104.652344 2533.019531 L 1101.03125 2539.320312 " fill-opacity="1" fill-rule="nonzero"/></g><path fill="#ffffff" d="M 1104.652344 2047.46875 L 962.691406 1965.515625 C 914.738281 1993.164062 866.804688 2020.835938 818.898438 2048.53125 C 818.800781 2159.222656 818.898438 2269.914062 818.898438 2380.601562 C 914.761719 2325.257812 1010.601562 2269.839844 1106.488281 2214.566406 L 1106.488281 2048.53125 Z M 962.691406 1973.894531 L 1099.222656 2052.707031 L 1099.222656 2210.390625 L 826.140625 2368.046875 L 826.140625 2052.734375 L 962.691406 1973.894531 " fill-opacity="1" fill-rule="nonzero"/><path fill="#ffffff" d="M 820.707031 2053.769531 L 960.882812 2134.710938 L 964.503906 2128.410156 L 824.332031 2047.46875 L 820.707031 2053.769531 " fill-opacity="1" fill-rule="nonzero"/><path fill="#ffffff" d="M 1101.03125 2047.46875 L 960.882812 2128.410156 L 964.503906 2134.710938 L 1104.679688 2053.769531 L 1101.03125 2047.46875 " fill-opacity="1" fill-rule="nonzero"/><path fill="#ffffff" d="M 959.070312 2131.550781 L 959.070312 2293.40625 L 966.316406 2293.40625 L 966.316406 2131.550781 L 959.070312 2131.550781 " fill-opacity="1" fill-rule="nonzero"/><path fill="#ffffff" d="M 820.707031 2377.464844 L 1101.03125 2539.320312 L 1104.679688 2533.019531 L 824.355469 2371.160156 L 820.707031 2377.464844 " fill-opacity="1" fill-rule="nonzero"/><path fill="#ffffff" d="M 959.070312 2293.40625 L 959.070312 2455.242188 L 966.316406 2455.242188 L 966.316406 2293.40625 L 959.070312 2293.40625 " fill-opacity="1" fill-rule="nonzero"/><g clip-path="url(#c1e8b27358)"><path fill="#ffffff" d="M 959.070312 2455.242188 L 959.070312 2617.074219 L 966.316406 2617.074219 L 966.316406 2455.242188 L 959.070312 2455.242188 " fill-opacity="1" fill-rule="nonzero"/></g><g clip-path="url(#6d6c31a748)"><path fill="#ffffff" d="M 820.707031 2539.320312 L 960.882812 2620.238281 L 964.503906 2613.9375 L 824.332031 2533.019531 L 820.707031 2539.320312 " fill-opacity="1" fill-rule="nonzero"/></g><g clip-path="url(#b00a4abdaa)"><path fill="#ffffff" d="M 818.898438 2374.324219 L 818.898438 2698.015625 L 826.140625 2698.015625 L 826.140625 2374.324219 L 818.898438 2374.324219 " fill-opacity="1" fill-rule="nonzero"/></g><path fill="#ffffff" d="M 545.839844 2212.464844 L 545.839844 2052.707031 L 682.34375 1973.894531 L 820.707031 2053.769531 L 824.332031 2047.46875 L 682.34375 1965.515625 C 634.414062 1993.164062 586.503906 2020.859375 538.574219 2048.53125 L 538.574219 2212.464844 L 545.839844 2212.464844 " fill-opacity="1" fill-rule="nonzero"/><path fill="#ffffff" d="M 405.667969 2293.40625 L 405.667969 1971.792969 L 542.195312 1892.976562 L 680.558594 1972.855469 L 684.179688 1966.550781 L 542.195312 1884.597656 L 398.398438 1967.613281 L 398.398438 2293.40625 L 405.667969 2293.40625 " fill-opacity="1" fill-rule="nonzero"/><g clip-path="url(#d672a76228)"><path fill="#ffffff" d="M 125.34375 1809.957031 L 261.894531 1731.117188 L 398.398438 1809.933594 L 398.398438 1969.714844 L 405.691406 1969.714844 L 405.691406 1805.78125 C 357.734375 1778.082031 309.828125 1750.410156 261.894531 1722.761719 C 217.5625 1748.308594 162.359375 1780.160156 118.074219 1805.78125 L 118.074219 2295.460938 L 400.234375 2458.40625 L 403.855469 2452.101562 L 125.34375 2291.28125 L 125.34375 1809.957031 " fill-opacity="1" fill-rule="nonzero"/></g><path fill="#ffffff" d="M 123.386719 1813.023438 L 260.058594 1891.914062 L 263.683594 1885.636719 L 123.386719 1804.621094 L 123.386719 1813.023438 " fill-opacity="1" fill-rule="nonzero"/><path fill="#ffffff" d="M 400.234375 1804.71875 L 260.058594 1885.636719 L 263.683594 1891.914062 L 403.832031 1811.019531 L 400.234375 1804.71875 " fill-opacity="1" fill-rule="nonzero"/><path fill="#ffffff" d="M 258.25 1888.773438 L 258.25 2050.632812 L 265.492188 2050.632812 L 265.492188 1888.773438 L 258.25 1888.773438 " fill-opacity="1" fill-rule="nonzero"/><path fill="#ffffff" d="M 820.707031 2047.46875 L 540.382812 2209.328125 L 544.03125 2215.628906 L 824.355469 2053.769531 L 820.707031 2047.46875 " fill-opacity="1" fill-rule="nonzero"/><path fill="#ffffff" d="M 400.234375 1972.855469 L 680.535156 2134.710938 L 684.179688 2128.410156 L 403.855469 1966.550781 L 400.234375 1972.855469 " fill-opacity="1" fill-rule="nonzero"/><path fill="#ffffff" d="M 678.722656 2131.574219 L 678.722656 2293.40625 L 685.96875 2293.40625 L 685.992188 2131.574219 L 678.722656 2131.574219 " fill-opacity="1" fill-rule="nonzero"/><path fill="#ffffff" d="M 540.382812 2215.628906 L 820.707031 2377.464844 L 824.355469 2371.183594 L 544.03125 2209.328125 L 540.382812 2215.628906 " fill-opacity="1" fill-rule="nonzero"/><path fill="#ffffff" d="M 820.707031 2371.183594 L 540.382812 2533.019531 L 544.03125 2539.320312 L 824.355469 2377.464844 L 820.707031 2371.183594 " fill-opacity="1" fill-rule="nonzero"/><path fill="#ffffff" d="M 538.574219 2212.464844 L 538.574219 2536.160156 L 545.839844 2536.160156 L 545.839844 2212.464844 L 538.574219 2212.464844 " fill-opacity="1" fill-rule="nonzero"/><path fill="#ffffff" d="M 680.535156 2458.378906 L 820.707031 2539.320312 L 824.332031 2533.019531 L 684.179688 2452.101562 L 680.535156 2458.378906 " fill-opacity="1" fill-rule="nonzero"/><path fill="#ffffff" d="M 678.722656 2293.40625 L 678.722656 2455.242188 L 685.96875 2455.242188 L 685.96875 2293.40625 L 678.722656 2293.40625 " fill-opacity="1" fill-rule="nonzero"/><g clip-path="url(#da4ca0837b)"><path fill="#ffffff" d="M 540.382812 2539.320312 L 822.519531 2702.195312 L 1104.679688 2539.320312 L 1101.03125 2533.019531 L 822.519531 2693.816406 L 544.03125 2533.019531 L 540.382812 2539.320312 " fill-opacity="1" fill-rule="nonzero"/></g><g clip-path="url(#6a0da626fe)"><path fill="#ffffff" d="M 678.722656 2455.242188 L 678.722656 2617.101562 L 685.96875 2617.101562 L 685.96875 2455.242188 L 678.722656 2455.242188 " fill-opacity="1" fill-rule="nonzero"/></g><path fill="#ffffff" d="M 540.382812 2047.46875 L 400.234375 2128.410156 L 403.855469 2134.710938 L 544.03125 2053.769531 L 540.382812 2047.46875 " fill-opacity="1" fill-rule="nonzero"/><path fill="#ffffff" d="M 260.058594 1891.914062 L 400.234375 1972.855469 L 403.832031 1966.550781 L 263.683594 1885.636719 L 260.058594 1891.914062 " fill-opacity="1" fill-rule="nonzero"/><path fill="#ffffff" d="M 260.058594 2053.769531 L 400.234375 2134.710938 L 403.855469 2128.410156 L 263.707031 2047.46875 L 260.058594 2053.769531 " fill-opacity="1" fill-rule="nonzero"/><path fill="#ffffff" d="M 260.058594 2047.46875 L 121.648438 2127.394531 L 121.648438 2135.773438 L 263.683594 2053.769531 L 260.058594 2047.46875 " fill-opacity="1" fill-rule="nonzero"/><path fill="#ffffff" d="M 400.234375 2128.410156 L 123.386719 2288.238281 L 123.386719 2296.617188 L 403.855469 2134.710938 L 400.234375 2128.410156 " fill-opacity="1" fill-rule="nonzero"/><path fill="#ffffff" d="M 400.234375 2296.546875 L 540.382812 2377.464844 L 544.03125 2371.160156 L 403.855469 2290.246094 L 400.234375 2296.546875 " fill-opacity="1" fill-rule="nonzero"/><g clip-path="url(#bd8984645a)"><path fill="#ffffff" d="M 398.398438 2293.40625 L 398.398438 2617.101562 L 405.667969 2617.101562 L 405.667969 2293.40625 L 398.398438 2293.40625 " fill-opacity="1" fill-rule="nonzero"/></g><path fill="#ffffff" d="M 540.382812 2371.160156 L 400.234375 2452.101562 L 403.855469 2458.378906 L 544.03125 2377.464844 L 540.382812 2371.160156 " fill-opacity="1" fill-rule="nonzero"/><path fill="#ffffff" d="M 400.234375 2458.378906 L 540.382812 2539.320312 L 544.03125 2533.019531 L 403.855469 2452.101562 L 400.234375 2458.378906 " fill-opacity="1" fill-rule="nonzero"/><path fill="#ffffff" d="M 258.25 2212.464844 L 258.25 2374.324219 L 265.515625 2374.324219 L 265.515625 2212.464844 L 258.25 2212.464844 " fill-opacity="1" fill-rule="nonzero"/><path fill="#ffffff" d="M 258.25 2374.324219 L 258.25 2536.160156 L 265.492188 2536.160156 L 265.515625 2374.324219 L 258.25 2374.324219 " fill-opacity="1" fill-rule="nonzero"/><g clip-path="url(#ce56625b23)"><path fill="#ffffff" d="M 400.234375 2452.101562 L 118.074219 2615 L 121.695312 2940.792969 L 125.296875 2619.226562 L 403.855469 2458.40625 L 400.234375 2452.101562 " fill-opacity="1" fill-rule="nonzero"/></g><g clip-path="url(#7193af2bdc)"><path fill="#ffffff" d="M 260.058594 2539.320312 L 400.234375 2620.238281 L 403.855469 2613.9375 L 263.707031 2533.019531 L 260.058594 2539.320312 " fill-opacity="1" fill-rule="nonzero"/></g><path fill="#ffffff" d="M 1519.695312 2293.40625 L 1519.695312 2455.242188 L 1526.964844 2455.242188 L 1526.964844 2293.40625 L 1519.695312 2293.40625 " fill-opacity="1" fill-rule="nonzero"/><g clip-path="url(#1590acc82d)"><path fill="#ffffff" d="M 538.574219 2536.160156 L 542.195312 2940.769531 L 545.839844 2536.160156 L 538.574219 2536.160156 " fill-opacity="1" fill-rule="nonzero"/></g><g clip-path="url(#36a37fa54a)"><path fill="#ffffff" d="M 258.25 2536.160156 L 261.894531 2940.769531 L 265.492188 2536.160156 L 258.25 2536.160156 " fill-opacity="1" fill-rule="nonzero"/></g><path fill="#ffffff" d="M 3208.90625 2291.332031 C 3164.597656 2265.757812 3109.421875 2233.859375 3065.109375 2208.289062 C 3017.15625 2235.9375 2969.222656 2263.609375 2921.316406 2291.332031 C 2921.265625 2346.652344 2921.265625 2401.996094 2921.316406 2457.34375 L 2923.125 2458.40625 L 3065.109375 2540.359375 C 3109.398438 2514.765625 3164.597656 2482.890625 3208.90625 2457.34375 C 3208.90625 2401.996094 3208.90625 2346.652344 3208.90625 2291.332031 Z M 3201.613281 2295.484375 L 3201.613281 2453.164062 L 3065.109375 2531.980469 L 2928.582031 2453.140625 L 2928.582031 2295.484375 L 3065.109375 2216.667969 L 3201.613281 2295.484375 " fill-opacity="1" fill-rule="evenodd"/><g fill="#ffffff" fill-opacity="1"><g transform="translate(1517.710696, 1396.482988)"><g><path d="M 175.390625 -143.5 C 169.785156 -155.28125 161.664062 -164.410156 151.03125 -170.890625 C 140.40625 -177.367188 128.035156 -180.609375 113.921875 -180.609375 C 99.816406 -180.609375 87.109375 -177.367188 75.796875 -170.890625 C 64.492188 -164.410156 55.601562 -155.128906 49.125 -143.046875 C 42.65625 -130.972656 39.421875 -117.015625 39.421875 -101.171875 C 39.421875 -85.328125 42.65625 -71.410156 49.125 -59.421875 C 55.601562 -47.441406 64.492188 -38.210938 75.796875 -31.734375 C 87.109375 -25.265625 99.816406 -22.03125 113.921875 -22.03125 C 133.640625 -22.03125 149.875 -27.921875 162.625 -39.703125 C 175.382812 -51.492188 182.828125 -67.441406 184.953125 -87.546875 L 104.359375 -87.546875 L 104.359375 -109 L 213.0625 -109 L 213.0625 -88.703125 C 211.519531 -72.085938 206.300781 -56.867188 197.40625 -43.046875 C 188.519531 -29.234375 176.828125 -18.316406 162.328125 -10.296875 C 147.835938 -2.273438 131.703125 1.734375 113.921875 1.734375 C 95.179688 1.734375 78.078125 -2.660156 62.609375 -11.453125 C 47.148438 -20.242188 34.925781 -32.46875 25.9375 -48.125 C 16.957031 -63.78125 12.46875 -81.460938 12.46875 -101.171875 C 12.46875 -120.878906 16.957031 -138.609375 25.9375 -154.359375 C 34.925781 -170.117188 47.148438 -182.394531 62.609375 -191.1875 C 78.078125 -199.976562 95.179688 -204.375 113.921875 -204.375 C 135.378906 -204.375 154.367188 -199.054688 170.890625 -188.421875 C 187.410156 -177.796875 199.441406 -162.820312 206.984375 -143.5 Z M 175.390625 -143.5 "/></g></g></g><g fill="#ffffff" fill-opacity="1"><g transform="translate(1743.239412, 1396.482988)"><g><path d="M 167.265625 -85.515625 C 167.265625 -80.492188 166.972656 -75.179688 166.390625 -69.578125 L 39.421875 -69.578125 C 40.390625 -53.921875 45.753906 -41.695312 55.515625 -32.90625 C 65.273438 -24.113281 77.113281 -19.71875 91.03125 -19.71875 C 102.425781 -19.71875 111.941406 -22.375 119.578125 -27.6875 C 127.210938 -33 132.578125 -40.097656 135.671875 -48.984375 L 164.078125 -48.984375 C 159.828125 -33.722656 151.320312 -21.304688 138.5625 -11.734375 C 125.8125 -2.171875 109.96875 2.609375 91.03125 2.609375 C 75.957031 2.609375 62.472656 -0.769531 50.578125 -7.53125 C 38.691406 -14.300781 29.367188 -23.914062 22.609375 -36.375 C 15.847656 -48.84375 12.46875 -63.289062 12.46875 -79.71875 C 12.46875 -96.144531 15.75 -110.539062 22.3125 -122.90625 C 28.882812 -135.28125 38.113281 -144.800781 50 -151.46875 C 61.882812 -158.132812 75.5625 -161.46875 91.03125 -161.46875 C 106.101562 -161.46875 119.4375 -158.179688 131.03125 -151.609375 C 142.625 -145.035156 151.5625 -136 157.84375 -124.5 C 164.125 -113.007812 167.265625 -100.015625 167.265625 -85.515625 Z M 140.015625 -91.03125 C 140.015625 -101.070312 137.789062 -109.71875 133.34375 -116.96875 C 128.90625 -124.21875 122.867188 -129.722656 115.234375 -133.484375 C 107.597656 -137.253906 99.140625 -139.140625 89.859375 -139.140625 C 76.523438 -139.140625 65.171875 -134.890625 55.796875 -126.390625 C 46.429688 -117.890625 41.070312 -106.101562 39.71875 -91.03125 Z M 140.015625 -91.03125 "/></g></g></g><g fill="#ffffff" fill-opacity="1"><g transform="translate(1922.96668, 1396.482988)"><g><path d="M 54.5 -137.125 L 54.5 -43.484375 C 54.5 -35.753906 56.140625 -30.296875 59.421875 -27.109375 C 62.710938 -23.921875 68.414062 -22.328125 76.53125 -22.328125 L 95.953125 -22.328125 L 95.953125 0 L 72.1875 0 C 57.5 0 46.484375 -3.378906 39.140625 -10.140625 C 31.796875 -16.910156 28.125 -28.023438 28.125 -43.484375 L 28.125 -137.125 L 7.53125 -137.125 L 7.53125 -158.859375 L 28.125 -158.859375 L 28.125 -198.859375 L 54.5 -198.859375 L 54.5 -158.859375 L 95.953125 -158.859375 L 95.953125 -137.125 Z M 54.5 -137.125 "/></g></g></g><g fill="#ffffff" fill-opacity="1"><g transform="translate(2028.483981, 1396.482988)"><g><path d="M 54.5 -137.125 L 54.5 -43.484375 C 54.5 -35.753906 56.140625 -30.296875 59.421875 -27.109375 C 62.710938 -23.921875 68.414062 -22.328125 76.53125 -22.328125 L 95.953125 -22.328125 L 95.953125 0 L 72.1875 0 C 57.5 0 46.484375 -3.378906 39.140625 -10.140625 C 31.796875 -16.910156 28.125 -28.023438 28.125 -43.484375 L 28.125 -137.125 L 7.53125 -137.125 L 7.53125 -158.859375 L 28.125 -158.859375 L 28.125 -198.859375 L 54.5 -198.859375 L 54.5 -158.859375 L 95.953125 -158.859375 L 95.953125 -137.125 Z M 54.5 -137.125 "/></g></g></g><g fill="#ffffff" fill-opacity="1"><g transform="translate(2134.001282, 1396.482988)"><g><path d="M 35.953125 -184.65625 C 30.921875 -184.65625 26.664062 -186.394531 23.1875 -189.875 C 19.707031 -193.351562 17.96875 -197.609375 17.96875 -202.640625 C 17.96875 -207.660156 19.707031 -211.910156 23.1875 -215.390625 C 26.664062 -218.867188 30.921875 -220.609375 35.953125 -220.609375 C 40.773438 -220.609375 44.878906 -218.867188 48.265625 -215.390625 C 51.648438 -211.910156 53.34375 -207.660156 53.34375 -202.640625 C 53.34375 -197.609375 51.648438 -193.351562 48.265625 -189.875 C 44.878906 -186.394531 40.773438 -184.65625 35.953125 -184.65625 Z M 48.703125 -158.859375 L 48.703125 0 L 22.328125 0 L 22.328125 -158.859375 Z M 48.703125 -158.859375 "/></g></g></g><g fill="#ffffff" fill-opacity="1"><g transform="translate(2205.312391, 1396.482988)"><g><path d="M 99.71875 -161.765625 C 119.050781 -161.765625 134.707031 -155.914062 146.6875 -144.21875 C 158.664062 -132.53125 164.65625 -115.671875 164.65625 -93.640625 L 164.65625 0 L 138.5625 0 L 138.5625 -89.859375 C 138.5625 -105.710938 134.597656 -117.84375 126.671875 -126.25 C 118.753906 -134.65625 107.9375 -138.859375 94.21875 -138.859375 C 80.300781 -138.859375 69.234375 -134.507812 61.015625 -125.8125 C 52.804688 -117.113281 48.703125 -104.457031 48.703125 -87.84375 L 48.703125 0 L 22.328125 0 L 22.328125 -158.859375 L 48.703125 -158.859375 L 48.703125 -136.25 C 53.921875 -144.363281 61.019531 -150.644531 70 -155.09375 C 78.988281 -159.539062 88.894531 -161.765625 99.71875 -161.765625 Z M 99.71875 -161.765625 "/></g></g></g><g fill="#ffffff" fill-opacity="1"><g transform="translate(2390.837239, 1396.482988)"><g><path d="M 87.84375 -161.46875 C 101.5625 -161.46875 113.585938 -158.472656 123.921875 -152.484375 C 134.265625 -146.492188 141.945312 -138.957031 146.96875 -129.875 L 146.96875 -158.859375 L 173.640625 -158.859375 L 173.640625 3.484375 C 173.640625 17.972656 170.546875 30.867188 164.359375 42.171875 C 158.179688 53.484375 149.34375 62.328125 137.84375 68.703125 C 126.34375 75.078125 112.957031 78.265625 97.6875 78.265625 C 76.820312 78.265625 59.429688 73.335938 45.515625 63.484375 C 31.597656 53.628906 23.382812 40.195312 20.875 23.1875 L 46.96875 23.1875 C 49.863281 32.851562 55.851562 40.632812 64.9375 46.53125 C 74.019531 52.425781 84.9375 55.375 97.6875 55.375 C 112.1875 55.375 124.023438 50.832031 133.203125 41.75 C 142.378906 32.664062 146.96875 19.910156 146.96875 3.484375 L 146.96875 -29.859375 C 141.75 -20.578125 134.019531 -12.84375 123.78125 -6.65625 C 113.539062 -0.476562 101.5625 2.609375 87.84375 2.609375 C 73.726562 2.609375 60.921875 -0.867188 49.421875 -7.828125 C 37.921875 -14.785156 28.882812 -24.546875 22.3125 -37.109375 C 15.75 -49.671875 12.46875 -63.972656 12.46875 -80.015625 C 12.46875 -96.242188 15.75 -110.492188 22.3125 -122.765625 C 28.882812 -135.035156 37.921875 -144.550781 49.421875 -151.3125 C 60.921875 -158.082031 73.726562 -161.46875 87.84375 -161.46875 Z M 146.96875 -79.71875 C 146.96875 -91.695312 144.550781 -102.128906 139.71875 -111.015625 C 134.894531 -119.910156 128.375 -126.722656 120.15625 -131.453125 C 111.945312 -136.191406 102.914062 -138.5625 93.0625 -138.5625 C 83.195312 -138.5625 74.207031 -136.242188 66.09375 -131.609375 C 57.976562 -126.972656 51.503906 -120.207031 46.671875 -111.3125 C 41.835938 -102.425781 39.421875 -91.992188 39.421875 -80.015625 C 39.421875 -67.835938 41.835938 -57.253906 46.671875 -48.265625 C 51.503906 -39.273438 57.976562 -32.410156 66.09375 -27.671875 C 74.207031 -22.941406 83.195312 -20.578125 93.0625 -20.578125 C 102.914062 -20.578125 111.945312 -22.941406 120.15625 -27.671875 C 128.375 -32.410156 134.894531 -39.273438 139.71875 -48.265625 C 144.550781 -57.253906 146.96875 -67.738281 146.96875 -79.71875 Z M 146.96875 -79.71875 "/></g></g></g><g fill="#ffffff" fill-opacity="1"><g transform="translate(2586.797912, 1396.482988)"><g/></g></g><g fill="#ffffff" fill-opacity="1"><g transform="translate(2664.196576, 1396.482988)"><g><path d="M 86.390625 2.03125 C 73.054688 2.03125 61.117188 -0.332031 50.578125 -5.0625 C 40.046875 -9.800781 31.785156 -16.375 25.796875 -24.78125 C 19.804688 -33.1875 16.71875 -42.898438 16.53125 -53.921875 L 44.640625 -53.921875 C 45.609375 -44.453125 49.519531 -36.476562 56.375 -30 C 63.238281 -23.53125 73.242188 -20.296875 86.390625 -20.296875 C 98.953125 -20.296875 108.851562 -23.4375 116.09375 -29.71875 C 123.34375 -36 126.96875 -44.066406 126.96875 -53.921875 C 126.96875 -61.648438 124.84375 -67.929688 120.59375 -72.765625 C 116.34375 -77.597656 111.023438 -81.269531 104.640625 -83.78125 C 98.265625 -86.289062 89.664062 -88.992188 78.84375 -91.890625 C 65.507812 -95.367188 54.832031 -98.847656 46.8125 -102.328125 C 38.789062 -105.804688 31.929688 -111.265625 26.234375 -118.703125 C 20.535156 -126.148438 17.6875 -136.15625 17.6875 -148.71875 C 17.6875 -159.726562 20.488281 -169.484375 26.09375 -177.984375 C 31.695312 -186.492188 39.570312 -193.066406 49.71875 -197.703125 C 59.863281 -202.335938 71.503906 -204.65625 84.640625 -204.65625 C 103.585938 -204.65625 119.097656 -199.921875 131.171875 -190.453125 C 143.253906 -180.984375 150.066406 -168.421875 151.609375 -152.765625 L 122.625 -152.765625 C 121.65625 -160.503906 117.59375 -167.316406 110.4375 -173.203125 C 103.289062 -179.097656 93.820312 -182.046875 82.03125 -182.046875 C 71.019531 -182.046875 62.035156 -179.195312 55.078125 -173.5 C 48.117188 -167.800781 44.640625 -159.828125 44.640625 -149.578125 C 44.640625 -142.234375 46.71875 -136.242188 50.875 -131.609375 C 55.03125 -126.972656 60.148438 -123.445312 66.234375 -121.03125 C 72.328125 -118.613281 80.878906 -115.859375 91.890625 -112.765625 C 105.222656 -109.097656 115.945312 -105.472656 124.0625 -101.890625 C 132.1875 -98.316406 139.144531 -92.8125 144.9375 -85.375 C 150.738281 -77.9375 153.640625 -67.835938 153.640625 -55.078125 C 153.640625 -45.222656 151.03125 -35.945312 145.8125 -27.25 C 140.59375 -18.550781 132.863281 -11.492188 122.625 -6.078125 C 112.382812 -0.671875 100.304688 2.03125 86.390625 2.03125 Z M 86.390625 2.03125 "/></g></g></g><g fill="#ffffff" fill-opacity="1"><g transform="translate(2834.357663, 1396.482988)"><g><path d="M 54.5 -137.125 L 54.5 -43.484375 C 54.5 -35.753906 56.140625 -30.296875 59.421875 -27.109375 C 62.710938 -23.921875 68.414062 -22.328125 76.53125 -22.328125 L 95.953125 -22.328125 L 95.953125 0 L 72.1875 0 C 57.5 0 46.484375 -3.378906 39.140625 -10.140625 C 31.796875 -16.910156 28.125 -28.023438 28.125 -43.484375 L 28.125 -137.125 L 7.53125 -137.125 L 7.53125 -158.859375 L 28.125 -158.859375 L 28.125 -198.859375 L 54.5 -198.859375 L 54.5 -158.859375 L 95.953125 -158.859375 L 95.953125 -137.125 Z M 54.5 -137.125 "/></g></g></g><g fill="#ffffff" fill-opacity="1"><g transform="translate(2939.874964, 1396.482988)"><g><path d="M 12.46875 -80.015625 C 12.46875 -96.242188 15.75 -110.492188 22.3125 -122.765625 C 28.882812 -135.035156 37.921875 -144.550781 49.421875 -151.3125 C 60.921875 -158.082031 73.726562 -161.46875 87.84375 -161.46875 C 101.75 -161.46875 113.820312 -158.472656 124.0625 -152.484375 C 134.3125 -146.492188 141.945312 -138.957031 146.96875 -129.875 L 146.96875 -158.859375 L 173.640625 -158.859375 L 173.640625 0 L 146.96875 0 L 146.96875 -29.5625 C 141.75 -20.289062 133.96875 -12.609375 123.625 -6.515625 C 113.289062 -0.429688 101.265625 2.609375 87.546875 2.609375 C 73.441406 2.609375 60.6875 -0.867188 49.28125 -7.828125 C 37.875 -14.785156 28.882812 -24.546875 22.3125 -37.109375 C 15.75 -49.671875 12.46875 -63.972656 12.46875 -80.015625 Z M 146.96875 -79.71875 C 146.96875 -91.695312 144.550781 -102.128906 139.71875 -111.015625 C 134.894531 -119.910156 128.375 -126.722656 120.15625 -131.453125 C 111.945312 -136.191406 102.914062 -138.5625 93.0625 -138.5625 C 83.195312 -138.5625 74.207031 -136.242188 66.09375 -131.609375 C 57.976562 -126.972656 51.503906 -120.207031 46.671875 -111.3125 C 41.835938 -102.425781 39.421875 -91.992188 39.421875 -80.015625 C 39.421875 -67.835938 41.835938 -57.253906 46.671875 -48.265625 C 51.503906 -39.273438 57.976562 -32.410156 66.09375 -27.671875 C 74.207031 -22.941406 83.195312 -20.578125 93.0625 -20.578125 C 102.914062 -20.578125 111.945312 -22.941406 120.15625 -27.671875 C 128.375 -32.410156 134.894531 -39.273438 139.71875 -48.265625 C 144.550781 -57.253906 146.96875 -67.738281 146.96875 -79.71875 Z M 146.96875 -79.71875 "/></g></g></g><g fill="#ffffff" fill-opacity="1"><g transform="translate(3135.835733, 1396.482988)"><g><path d="M 48.703125 -133.0625 C 53.335938 -142.144531 59.953125 -149.195312 68.546875 -154.21875 C 77.148438 -159.25 87.640625 -161.765625 100.015625 -161.765625 L 100.015625 -134.515625 L 93.0625 -134.515625 C 63.488281 -134.515625 48.703125 -118.472656 48.703125 -86.390625 L 48.703125 0 L 22.328125 0 L 22.328125 -158.859375 L 48.703125 -158.859375 Z M 48.703125 -133.0625 "/></g></g></g><g fill="#ffffff" fill-opacity="1"><g transform="translate(3243.961921, 1396.482988)"><g><path d="M 54.5 -137.125 L 54.5 -43.484375 C 54.5 -35.753906 56.140625 -30.296875 59.421875 -27.109375 C 62.710938 -23.921875 68.414062 -22.328125 76.53125 -22.328125 L 95.953125 -22.328125 L 95.953125 0 L 72.1875 0 C 57.5 0 46.484375 -3.378906 39.140625 -10.140625 C 31.796875 -16.910156 28.125 -28.023438 28.125 -43.484375 L 28.125 -137.125 L 7.53125 -137.125 L 7.53125 -158.859375 L 28.125 -158.859375 L 28.125 -198.859375 L 54.5 -198.859375 L 54.5 -158.859375 L 95.953125 -158.859375 L 95.953125 -137.125 Z M 54.5 -137.125 "/></g></g></g><g fill="#ffffff" fill-opacity="1"><g transform="translate(3349.47913, 1396.482988)"><g><path d="M 167.265625 -85.515625 C 167.265625 -80.492188 166.972656 -75.179688 166.390625 -69.578125 L 39.421875 -69.578125 C 40.390625 -53.921875 45.753906 -41.695312 55.515625 -32.90625 C 65.273438 -24.113281 77.113281 -19.71875 91.03125 -19.71875 C 102.425781 -19.71875 111.941406 -22.375 119.578125 -27.6875 C 127.210938 -33 132.578125 -40.097656 135.671875 -48.984375 L 164.078125 -48.984375 C 159.828125 -33.722656 151.320312 -21.304688 138.5625 -11.734375 C 125.8125 -2.171875 109.96875 2.609375 91.03125 2.609375 C 75.957031 2.609375 62.472656 -0.769531 50.578125 -7.53125 C 38.691406 -14.300781 29.367188 -23.914062 22.609375 -36.375 C 15.847656 -48.84375 12.46875 -63.289062 12.46875 -79.71875 C 12.46875 -96.144531 15.75 -110.539062 22.3125 -122.90625 C 28.882812 -135.28125 38.113281 -144.800781 50 -151.46875 C 61.882812 -158.132812 75.5625 -161.46875 91.03125 -161.46875 C 106.101562 -161.46875 119.4375 -158.179688 131.03125 -151.609375 C 142.625 -145.035156 151.5625 -136 157.84375 -124.5 C 164.125 -113.007812 167.265625 -100.015625 167.265625 -85.515625 Z M 140.015625 -91.03125 C 140.015625 -101.070312 137.789062 -109.71875 133.34375 -116.96875 C 128.90625 -124.21875 122.867188 -129.722656 115.234375 -133.484375 C 107.597656 -137.253906 99.140625 -139.140625 89.859375 -139.140625 C 76.523438 -139.140625 65.171875 -134.890625 55.796875 -126.390625 C 46.429688 -117.890625 41.070312 -106.101562 39.71875 -91.03125 Z M 140.015625 -91.03125 "/></g></g></g><g fill="#ffffff" fill-opacity="1"><g transform="translate(3529.206354, 1396.482988)"><g><path d="M 12.46875 -80.015625 C 12.46875 -96.242188 15.75 -110.492188 22.3125 -122.765625 C 28.882812 -135.035156 37.921875 -144.550781 49.421875 -151.3125 C 60.921875 -158.082031 73.820312 -161.46875 88.125 -161.46875 C 100.5 -161.46875 112 -158.613281 122.625 -152.90625 C 133.25 -147.207031 141.363281 -139.722656 146.96875 -130.453125 L 146.96875 -214.515625 L 173.640625 -214.515625 L 173.640625 0 L 146.96875 0 L 146.96875 -29.859375 C 141.75 -20.390625 134.019531 -12.609375 123.78125 -6.515625 C 113.539062 -0.429688 101.5625 2.609375 87.84375 2.609375 C 73.726562 2.609375 60.921875 -0.867188 49.421875 -7.828125 C 37.921875 -14.785156 28.882812 -24.546875 22.3125 -37.109375 C 15.75 -49.671875 12.46875 -63.972656 12.46875 -80.015625 Z M 146.96875 -79.71875 C 146.96875 -91.695312 144.550781 -102.128906 139.71875 -111.015625 C 134.894531 -119.910156 128.375 -126.722656 120.15625 -131.453125 C 111.945312 -136.191406 102.914062 -138.5625 93.0625 -138.5625 C 83.195312 -138.5625 74.207031 -136.242188 66.09375 -131.609375 C 57.976562 -126.972656 51.503906 -120.207031 46.671875 -111.3125 C 41.835938 -102.425781 39.421875 -91.992188 39.421875 -80.015625 C 39.421875 -67.835938 41.835938 -57.253906 46.671875 -48.265625 C 51.503906 -39.273438 57.976562 -32.410156 66.09375 -27.671875 C 74.207031 -22.941406 83.195312 -20.578125 93.0625 -20.578125 C 102.914062 -20.578125 111.945312 -22.941406 120.15625 -27.671875 C 128.375 -32.410156 134.894531 -39.273438 139.71875 -48.265625 C 144.550781 -57.253906 146.96875 -67.738281 146.96875 -79.71875 Z M 146.96875 -79.71875 "/></g></g></g><path fill="#ffffff" d="M 5141.652344 300.925781 L 4999.910156 219.066406 L 4999.910156 55.105469 L 5007.152344 55.105469 L 5007.152344 214.863281 L 5141.652344 292.519531 L 5141.652344 300.925781 " fill-opacity="1" fill-rule="nonzero"/><path fill="#ffffff" d="M 4861.546875 294.742188 L 5001.695312 213.824219 L 5005.34375 220.105469 L 4865.191406 301.019531 L 4861.546875 294.742188 " fill-opacity="1" fill-rule="nonzero"/><path fill="#ffffff" d="M 5001.695312 213.824219 L 5141.773438 132.957031 L 5141.773438 141.335938 L 5005.34375 220.105469 L 5001.695312 213.824219 " fill-opacity="1" fill-rule="nonzero"/><path fill="#ffffff" d="M 5001.722656 51.96875 L 5140.035156 -27.886719 L 5143.632812 -349.453125 L 5147.328125 -23.710938 L 5005.34375 58.269531 L 5001.722656 51.96875 " fill-opacity="1" fill-rule="nonzero"/><path fill="#ffffff" d="M 5003.53125 -349.480469 L 5007.152344 55.105469 L 4999.910156 55.105469 L 5003.53125 -349.480469 " fill-opacity="1" fill-rule="nonzero"/><path fill="#ffffff" d="M 4859.734375 133.945312 L 4863.359375 -349.480469 L 4867.003906 136.046875 L 4859.734375 133.945312 " fill-opacity="1" fill-rule="nonzero"/><path fill="#ffffff" d="M 4586.679688 457.640625 L 4723.207031 536.457031 L 4859.710938 457.640625 L 4859.710938 299.957031 L 4586.679688 142.324219 Z M 4721.398438 543.796875 L 4579.410156 461.816406 C 4579.292969 351.125 4579.363281 240.4375 4579.410156 129.746094 C 4675.25 185.113281 4771.089844 240.507812 4867.003906 295.804688 L 4867.003906 461.816406 L 4723.207031 544.835938 L 4721.398438 543.796875 " fill-opacity="1" fill-rule="nonzero"/><path fill="#ffffff" d="M 4865.191406 301.019531 L 4725.019531 381.9375 L 4721.398438 375.660156 L 4861.546875 294.742188 L 4865.191406 301.019531 " fill-opacity="1" fill-rule="nonzero"/><path fill="#ffffff" d="M 4584.84375 294.742188 L 4725.019531 375.660156 L 4721.398438 381.9375 L 4581.246094 301.019531 L 4584.84375 294.742188 " fill-opacity="1" fill-rule="nonzero"/><path fill="#ffffff" d="M 4861.546875 462.878906 L 4721.398438 381.9375 L 4725.019531 375.660156 L 4865.191406 456.578125 L 4861.546875 462.878906 " fill-opacity="1" fill-rule="nonzero"/><path fill="#ffffff" d="M 4581.222656 456.578125 L 4721.398438 375.660156 L 4725.019531 381.9375 L 4584.867188 462.878906 L 4581.222656 456.578125 " fill-opacity="1" fill-rule="nonzero"/><path fill="#ffffff" d="M 4719.585938 378.796875 L 4719.585938 216.964844 L 4726.828125 216.964844 L 4726.828125 378.796875 L 4719.585938 378.796875 " fill-opacity="1" fill-rule="nonzero"/><path fill="#ffffff" d="M 4719.585938 216.964844 L 4723.207031 -349.480469 L 4726.828125 216.964844 L 4719.585938 216.964844 " fill-opacity="1" fill-rule="nonzero"/><path fill="#ffffff" d="M 4309.976562 136.046875 L 4442.882812 212.789062 L 4575.789062 136.046875 L 4442.882812 59.308594 Z M 4441.074219 220.105469 L 4295.464844 136.046875 L 4442.882812 50.929688 L 4590.300781 136.046875 L 4442.882812 221.140625 L 4441.074219 220.105469 " fill-opacity="1" fill-rule="nonzero"/><path fill="#ffffff" d="M 4579.410156 136.046875 L 4579.410156 -25.8125 L 4586.679688 -25.8125 L 4586.679688 136.046875 L 4579.410156 136.046875 " fill-opacity="1" fill-rule="nonzero"/><path fill="#ffffff" d="M 4441.046875 51.96875 L 4581.222656 -28.949219 L 4584.867188 -22.671875 L 4444.695312 58.269531 L 4441.046875 51.96875 " fill-opacity="1" fill-rule="nonzero"/><path fill="#ffffff" d="M 4304.519531 301.019531 L 4162.558594 383 C 4114.605469 355.351562 4066.695312 327.65625 4018.765625 299.984375 L 4018.765625 133.945312 C 4066.695312 106.324219 4114.605469 78.601562 4162.558594 50.929688 C 4210.46875 78.648438 4258.398438 106.324219 4306.355469 133.945312 C 4306.355469 189.292969 4306.308594 244.636719 4306.355469 299.984375 Z M 4162.558594 374.621094 L 4299.0625 295.804688 L 4299.0625 138.125 L 4162.558594 59.308594 L 4026.03125 138.125 L 4026.03125 295.804688 L 4162.558594 374.621094 " fill-opacity="1" fill-rule="nonzero"/><path fill="#ffffff" d="M 4020.597656 294.742188 L 4160.75 213.824219 L 4164.371094 220.105469 L 4024.195312 301.019531 L 4020.597656 294.742188 " fill-opacity="1" fill-rule="nonzero"/><path fill="#ffffff" d="M 4300.898438 301.019531 L 4160.75 220.105469 L 4164.371094 213.824219 L 4304.546875 294.742188 L 4300.898438 301.019531 " fill-opacity="1" fill-rule="nonzero"/><path fill="#ffffff" d="M 4160.726562 220.105469 L 4020.574219 139.1875 L 4024.222656 132.882812 L 4164.371094 213.824219 L 4160.726562 220.105469 " fill-opacity="1" fill-rule="nonzero"/><path fill="#ffffff" d="M 4160.726562 213.824219 L 4300.898438 132.882812 L 4304.546875 139.1875 L 4164.371094 220.105469 L 4160.726562 213.824219 " fill-opacity="1" fill-rule="nonzero"/><path fill="#ffffff" d="M 4158.9375 216.964844 L 4158.9375 55.128906 L 4166.183594 55.128906 L 4166.183594 216.964844 L 4158.9375 216.964844 " fill-opacity="1" fill-rule="nonzero"/><path fill="#ffffff" d="M 4439.238281 55.128906 L 4442.882812 -349.480469 L 4446.507812 55.128906 L 4439.238281 55.128906 " fill-opacity="1" fill-rule="nonzero"/><path fill="#ffffff" d="M 4160.726562 51.96875 L 4300.898438 -28.949219 L 4304.546875 -22.648438 L 4164.371094 58.269531 L 4160.726562 51.96875 " fill-opacity="1" fill-rule="nonzero"/><path fill="#ffffff" d="M 3740.273438 -28.949219 L 3882.234375 -110.90625 C 3930.144531 -83.207031 3978.101562 -55.535156 4026.03125 -27.886719 L 4026.03125 138.125 C 3978.125 165.820312 3930.167969 193.46875 3882.234375 221.167969 C 3834.304688 193.492188 3786.371094 165.796875 3738.441406 138.125 L 3738.441406 -27.886719 Z M 3882.234375 -102.550781 L 3745.707031 -23.710938 L 3745.707031 133.972656 L 3882.234375 212.789062 L 4018.765625 133.945312 L 4018.765625 -23.710938 L 3882.234375 -102.550781 " fill-opacity="1" fill-rule="nonzero"/><path fill="#ffffff" d="M 4020.597656 139.1875 L 3878.613281 57.207031 L 3878.613281 -106.726562 L 3885.859375 -106.726562 L 3885.859375 53.03125 L 4024.195312 132.882812 L 4020.597656 139.1875 " fill-opacity="1" fill-rule="nonzero"/><path fill="#ffffff" d="M 4020.574219 -28.949219 L 4162.558594 -110.929688 C 4210.46875 -83.230469 4258.398438 -55.558594 4306.332031 -27.910156 L 4306.332031 136.046875 L 4299.085938 136.046875 L 4299.085938 -23.710938 L 4162.558594 -102.527344 L 4024.222656 -22.671875 L 4020.574219 -28.949219 " fill-opacity="1" fill-rule="nonzero"/><path fill="#ffffff" d="M 3745.707031 136.046875 L 3745.707031 457.640625 L 3882.234375 536.457031 L 4018.765625 457.640625 L 4018.765625 297.882812 L 4026.03125 297.882812 L 4026.03125 461.816406 L 3882.234375 544.859375 C 3834.304688 517.1875 3786.347656 489.539062 3738.464844 461.839844 L 3738.441406 136.046875 L 3745.707031 136.046875 " fill-opacity="1" fill-rule="nonzero"/><path fill="#ffffff" d="M 4020.597656 462.878906 L 3880.425781 381.960938 L 3884.046875 375.660156 L 4024.195312 456.578125 L 4020.597656 462.878906 " fill-opacity="1" fill-rule="nonzero"/><path fill="#ffffff" d="M 3740.273438 456.578125 L 3880.425781 375.660156 L 3884.046875 381.960938 L 3743.898438 462.878906 L 3740.273438 456.578125 " fill-opacity="1" fill-rule="nonzero"/><path fill="#ffffff" d="M 3880.425781 375.660156 L 4020.574219 294.742188 L 4024.222656 301.046875 L 3884.046875 381.960938 L 3880.425781 375.660156 " fill-opacity="1" fill-rule="nonzero"/><path fill="#ffffff" d="M 3878.613281 378.824219 L 3878.613281 216.964844 L 3885.859375 216.964844 L 3885.859375 378.824219 L 3878.613281 378.824219 " fill-opacity="1" fill-rule="nonzero"/><path fill="#ffffff" d="M 3465.382812 459.738281 L 3465.382812 619.496094 L 3601.910156 698.3125 L 3738.441406 619.496094 L 3738.441406 459.738281 L 3745.707031 459.738281 L 3745.707031 623.675781 C 3697.800781 651.347656 3649.867188 679.042969 3601.910156 706.691406 C 3553.957031 679.042969 3506.046875 651.347656 3458.117188 623.675781 L 3458.117188 459.738281 L 3465.382812 459.738281 " fill-opacity="1" fill-rule="nonzero"/><path fill="#ffffff" d="M 3459.925781 618.433594 L 3600.101562 537.519531 L 3603.746094 543.820312 L 3463.574219 624.738281 L 3459.925781 618.433594 " fill-opacity="1" fill-rule="nonzero"/><path fill="#ffffff" d="M 3740.25 624.738281 L 3600.101562 543.820312 L 3603.746094 537.519531 L 3743.898438 618.433594 L 3740.25 624.738281 " fill-opacity="1" fill-rule="nonzero"/><path fill="#ffffff" d="M 3600.101562 543.820312 L 3459.949219 462.878906 L 3463.550781 456.578125 L 3603.722656 537.519531 L 3600.101562 543.820312 " fill-opacity="1" fill-rule="nonzero"/><path fill="#ffffff" d="M 3600.101562 537.519531 L 3740.273438 456.578125 L 3743.898438 462.878906 L 3603.722656 543.820312 L 3600.101562 537.519531 " fill-opacity="1" fill-rule="nonzero"/><path fill="#ffffff" d="M 3598.289062 540.65625 L 3598.289062 378.824219 L 3605.535156 378.824219 L 3605.558594 540.65625 L 3598.289062 540.65625 " fill-opacity="1" fill-rule="nonzero"/><path fill="#ffffff" d="M 3325.210938 378.824219 L 3325.210938 700.414062 L 3461.738281 779.230469 L 3600.101562 699.351562 L 3603.722656 705.652344 L 3461.738281 787.609375 C 3413.804688 759.960938 3365.875 732.289062 3317.941406 704.589844 L 3317.964844 378.824219 L 3325.210938 378.824219 " fill-opacity="1" fill-rule="nonzero"/><path fill="#ffffff" d="M 3319.753906 699.351562 L 3459.925781 618.433594 L 3463.574219 624.738281 L 3323.398438 705.652344 L 3319.753906 699.351562 " fill-opacity="1" fill-rule="nonzero"/><path fill="#ffffff" d="M 3603.722656 381.960938 L 3458.117188 466.019531 C 3458.09375 409.273438 3458.066406 352.550781 3458.117188 295.804688 L 3605.558594 210.664062 L 3605.558594 380.898438 Z M 3465.382812 453.460938 L 3598.265625 376.746094 L 3598.265625 223.265625 L 3465.382812 299.984375 L 3465.382812 453.460938 " fill-opacity="1" fill-rule="nonzero"/><path fill="#ffffff" d="M 3600.101562 375.660156 L 3740.273438 294.742188 L 3743.898438 301.046875 L 3603.722656 381.960938 L 3600.101562 375.660156 " fill-opacity="1" fill-rule="nonzero"/><path fill="#ffffff" d="M 3740.25 301.046875 L 3600.101562 220.128906 L 3603.746094 213.824219 L 3743.898438 294.742188 L 3740.25 301.046875 " fill-opacity="1" fill-rule="nonzero"/><path fill="#ffffff" d="M 3600.101562 213.824219 L 3740.273438 132.910156 L 3743.898438 139.1875 L 3603.722656 220.128906 L 3600.101562 213.824219 " fill-opacity="1" fill-rule="nonzero"/><path fill="#ffffff" d="M 3740.25 139.1875 L 3600.101562 58.269531 L 3603.746094 51.96875 L 3743.898438 132.882812 L 3740.25 139.1875 " fill-opacity="1" fill-rule="nonzero"/><path fill="#ffffff" d="M 3600.101562 51.96875 L 3740.273438 -28.949219 L 3743.871094 -22.671875 L 3603.722656 58.269531 L 3600.101562 51.96875 " fill-opacity="1" fill-rule="nonzero"/><path fill="#ffffff" d="M 3598.289062 216.964844 L 3598.289062 55.128906 L 3605.535156 55.128906 L 3605.535156 216.964844 L 3598.289062 216.964844 " fill-opacity="1" fill-rule="nonzero"/><path fill="#ffffff" d="M 3458.117188 136.046875 L 3461.738281 -349.480469 L 3465.382812 136.046875 L 3461.59375 139.042969 L 3458.117188 136.046875 " fill-opacity="1" fill-rule="nonzero"/><path fill="#ffffff" d="M 3598.289062 55.128906 L 3601.910156 -349.503906 L 3605.535156 55.105469 L 3601.597656 58.34375 L 3598.289062 55.128906 " fill-opacity="1" fill-rule="nonzero"/><path fill="#ffffff" d="M 3459.925781 462.878906 L 3319.753906 381.960938 L 3323.421875 375.660156 L 3463.574219 456.578125 L 3459.925781 462.878906 " fill-opacity="1" fill-rule="nonzero"/><path fill="#ffffff" d="M 3319.753906 375.660156 L 3459.925781 294.742188 L 3463.574219 301.046875 L 3323.421875 381.960938 L 3319.753906 375.660156 " fill-opacity="1" fill-rule="nonzero"/><path fill="#ffffff" d="M 3048.53125 378.824219 L 3181.4375 455.539062 L 3314.34375 378.824219 L 3181.4375 302.082031 Z M 3179.628906 462.878906 L 3034.019531 378.796875 L 3181.4375 293.703125 C 3230.554688 322.101562 3279.71875 350.449219 3328.855469 378.796875 L 3181.4375 463.917969 L 3179.628906 462.878906 " fill-opacity="1" fill-rule="nonzero"/><path fill="#ffffff" d="M 3317.964844 378.824219 L 3317.941406 -106.726562 L 3325.210938 -106.726562 L 3325.210938 378.824219 L 3317.964844 378.824219 " fill-opacity="1" fill-rule="nonzero"/><path fill="#ffffff" d="M 3037.640625 378.824219 L 3037.640625 -106.703125 L 3044.886719 -106.703125 L 3044.910156 378.824219 L 3037.640625 378.824219 " fill-opacity="1" fill-rule="nonzero"/><path fill="#ffffff" d="M 3459.925781 301.046875 L 3319.753906 220.128906 L 3323.421875 213.824219 L 3463.574219 294.742188 L 3459.925781 301.046875 " fill-opacity="1" fill-rule="nonzero"/><path fill="#ffffff" d="M 3179.628906 294.742188 L 3319.777344 213.824219 L 3323.398438 220.128906 L 3183.226562 301.046875 L 3179.628906 294.742188 " fill-opacity="1" fill-rule="nonzero"/><path fill="#ffffff" d="M 3319.777344 213.824219 L 3459.949219 132.910156 L 3463.550781 139.1875 L 3323.398438 220.128906 L 3319.777344 213.824219 " fill-opacity="1" fill-rule="nonzero"/><path fill="#ffffff" d="M 3319.777344 220.128906 L 3039.453125 58.269531 L 3043.074219 51.96875 L 3323.398438 213.824219 L 3319.777344 220.128906 " fill-opacity="1" fill-rule="nonzero"/><path fill="#ffffff" d="M 3039.453125 51.96875 L 3319.777344 -109.867188 L 3323.398438 -103.589844 L 3043.074219 58.269531 L 3039.453125 51.96875 " fill-opacity="1" fill-rule="nonzero"/><path fill="#ffffff" d="M 3043.074219 543.820312 L 2901.113281 625.777344 C 2853.15625 598.128906 2805.226562 570.453125 2757.316406 542.757812 C 2757.222656 432.066406 2757.316406 321.375 2757.316406 210.6875 C 2853.183594 266.03125 2949.023438 321.449219 3044.910156 376.722656 L 3044.910156 542.757812 Z M 2901.113281 617.394531 L 3037.640625 538.582031 L 3037.640625 380.898438 L 2764.5625 223.242188 L 2764.5625 538.554688 L 2901.113281 617.394531 " fill-opacity="1" fill-rule="nonzero"/><path fill="#ffffff" d="M 2759.128906 537.519531 L 2899.304688 456.578125 L 2902.925781 462.878906 L 2762.75 543.820312 L 2759.128906 537.519531 " fill-opacity="1" fill-rule="nonzero"/><path fill="#ffffff" d="M 3039.453125 543.820312 L 2899.304688 462.878906 L 2902.925781 456.578125 L 3043.097656 537.519531 L 3039.453125 543.820312 " fill-opacity="1" fill-rule="nonzero"/><path fill="#ffffff" d="M 2897.492188 459.738281 L 2897.492188 297.882812 L 2904.734375 297.882812 L 2904.734375 459.738281 L 2897.492188 459.738281 " fill-opacity="1" fill-rule="nonzero"/><path fill="#ffffff" d="M 2759.128906 213.824219 L 3039.453125 51.96875 L 3043.097656 58.269531 L 2762.773438 220.128906 L 2759.128906 213.824219 " fill-opacity="1" fill-rule="nonzero"/><path fill="#ffffff" d="M 2897.492188 297.882812 L 2897.492188 136.046875 L 2904.734375 136.046875 L 2904.734375 297.882812 L 2897.492188 297.882812 " fill-opacity="1" fill-rule="nonzero"/><path fill="#ffffff" d="M 2897.492188 136.046875 L 2897.492188 -25.785156 L 2904.734375 -25.785156 L 2904.734375 136.046875 L 2897.492188 136.046875 " fill-opacity="1" fill-rule="nonzero"/><path fill="#ffffff" d="M 2759.128906 51.96875 L 2899.304688 -28.949219 L 2902.925781 -22.648438 L 2762.75 58.269531 L 2759.128906 51.96875 " fill-opacity="1" fill-rule="nonzero"/><path fill="#ffffff" d="M 2757.316406 216.964844 L 2757.316406 -106.726562 L 2764.5625 -106.726562 L 2764.5625 216.964844 L 2757.316406 216.964844 " fill-opacity="1" fill-rule="nonzero"/><path fill="#ffffff" d="M 2484.261719 378.824219 L 2484.261719 538.582031 L 2620.765625 617.394531 L 2759.128906 537.519531 L 2762.75 543.820312 L 2620.765625 625.777344 C 2572.835938 598.128906 2524.925781 570.429688 2476.992188 542.757812 L 2476.992188 378.824219 L 2484.261719 378.824219 " fill-opacity="1" fill-rule="nonzero"/><path fill="#ffffff" d="M 2344.089844 297.882812 L 2344.089844 619.496094 L 2480.617188 698.3125 L 2618.980469 618.433594 L 2622.601562 624.738281 L 2480.617188 706.691406 L 2336.820312 623.675781 L 2336.820312 297.882812 L 2344.089844 297.882812 " fill-opacity="1" fill-rule="nonzero"/><g clip-path="url(#446a28cc0d)"><path fill="#ffffff" d="M 2063.765625 781.332031 L 2200.316406 860.171875 L 2336.820312 781.355469 L 2336.820312 621.574219 L 2344.113281 621.574219 L 2344.113281 785.507812 C 2296.15625 813.207031 2248.25 840.878906 2200.316406 868.527344 C 2155.980469 842.980469 2100.78125 811.128906 2056.496094 785.507812 L 2056.496094 295.828125 L 2338.65625 132.882812 L 2342.277344 139.1875 L 2063.765625 300.007812 L 2063.765625 781.332031 " fill-opacity="1" fill-rule="nonzero"/></g><path fill="#ffffff" d="M 2061.808594 778.265625 L 2198.480469 699.375 L 2202.101562 705.652344 L 2061.808594 786.667969 L 2061.808594 778.265625 " fill-opacity="1" fill-rule="nonzero"/><path fill="#ffffff" d="M 2338.65625 786.570312 L 2198.480469 705.652344 L 2202.101562 699.375 L 2342.253906 780.269531 L 2338.65625 786.570312 " fill-opacity="1" fill-rule="nonzero"/><path fill="#ffffff" d="M 2196.671875 702.515625 L 2196.671875 540.65625 L 2203.914062 540.65625 L 2203.914062 702.515625 L 2196.671875 702.515625 " fill-opacity="1" fill-rule="nonzero"/><path fill="#ffffff" d="M 2759.128906 543.820312 L 2478.804688 381.960938 L 2482.453125 375.660156 L 2762.773438 537.519531 L 2759.128906 543.820312 " fill-opacity="1" fill-rule="nonzero"/><path fill="#ffffff" d="M 2338.65625 618.433594 L 2618.953125 456.578125 L 2622.601562 462.878906 L 2342.277344 624.738281 L 2338.65625 618.433594 " fill-opacity="1" fill-rule="nonzero"/><path fill="#ffffff" d="M 2617.144531 459.714844 L 2617.144531 297.882812 L 2624.386719 297.882812 L 2624.414062 459.714844 L 2617.144531 459.714844 " fill-opacity="1" fill-rule="nonzero"/><path fill="#ffffff" d="M 2478.804688 375.660156 L 2759.128906 213.824219 L 2762.773438 220.105469 L 2482.453125 381.960938 L 2478.804688 375.660156 " fill-opacity="1" fill-rule="nonzero"/><path fill="#ffffff" d="M 2759.128906 220.105469 L 2478.804688 58.269531 L 2482.453125 51.96875 L 2762.773438 213.824219 L 2759.128906 220.105469 " fill-opacity="1" fill-rule="nonzero"/><path fill="#ffffff" d="M 2476.992188 378.824219 L 2476.992188 55.128906 L 2484.261719 55.128906 L 2484.261719 378.824219 L 2476.992188 378.824219 " fill-opacity="1" fill-rule="nonzero"/><path fill="#ffffff" d="M 2618.953125 132.910156 L 2759.128906 51.96875 L 2762.75 58.269531 L 2622.601562 139.1875 L 2618.953125 132.910156 " fill-opacity="1" fill-rule="nonzero"/><path fill="#ffffff" d="M 2617.144531 297.882812 L 2617.144531 136.046875 L 2624.386719 136.046875 L 2624.386719 297.882812 L 2617.144531 297.882812 " fill-opacity="1" fill-rule="nonzero"/><path fill="#ffffff" d="M 2478.804688 51.96875 L 2760.941406 -110.90625 L 3043.097656 51.96875 L 3039.453125 58.269531 L 2760.941406 -102.527344 L 2482.453125 58.269531 L 2478.804688 51.96875 " fill-opacity="1" fill-rule="nonzero"/><path fill="#ffffff" d="M 2617.144531 136.046875 L 2617.144531 -25.8125 L 2624.386719 -25.8125 L 2624.386719 136.046875 L 2617.144531 136.046875 " fill-opacity="1" fill-rule="nonzero"/><path fill="#ffffff" d="M 2478.804688 543.820312 L 2338.65625 462.878906 L 2342.277344 456.578125 L 2482.453125 537.519531 L 2478.804688 543.820312 " fill-opacity="1" fill-rule="nonzero"/><path fill="#ffffff" d="M 2198.480469 699.375 L 2338.65625 618.433594 L 2342.253906 624.738281 L 2202.101562 705.652344 L 2198.480469 699.375 " fill-opacity="1" fill-rule="nonzero"/><path fill="#ffffff" d="M 2198.480469 537.519531 L 2338.65625 456.578125 L 2342.277344 462.878906 L 2202.128906 543.820312 L 2198.480469 537.519531 " fill-opacity="1" fill-rule="nonzero"/><path fill="#ffffff" d="M 2198.480469 543.820312 L 2060.070312 463.894531 L 2060.070312 455.515625 L 2202.101562 537.519531 L 2198.480469 543.820312 " fill-opacity="1" fill-rule="nonzero"/><path fill="#ffffff" d="M 2338.65625 462.878906 L 2061.808594 303.050781 L 2061.808594 294.671875 L 2342.277344 456.578125 L 2338.65625 462.878906 " fill-opacity="1" fill-rule="nonzero"/><path fill="#ffffff" d="M 2338.65625 294.742188 L 2478.804688 213.824219 L 2482.453125 220.128906 L 2342.277344 301.046875 L 2338.65625 294.742188 " fill-opacity="1" fill-rule="nonzero"/><path fill="#ffffff" d="M 2336.820312 297.882812 L 2336.820312 -25.8125 L 2344.089844 -25.8125 L 2344.089844 297.882812 L 2336.820312 297.882812 " fill-opacity="1" fill-rule="nonzero"/><path fill="#ffffff" d="M 2478.804688 220.128906 L 2338.65625 139.1875 L 2342.277344 132.910156 L 2482.453125 213.824219 L 2478.804688 220.128906 " fill-opacity="1" fill-rule="nonzero"/><path fill="#ffffff" d="M 2338.65625 132.910156 L 2478.804688 51.96875 L 2482.453125 58.269531 L 2342.277344 139.1875 L 2338.65625 132.910156 " fill-opacity="1" fill-rule="nonzero"/><path fill="#ffffff" d="M 2196.671875 378.824219 L 2196.671875 216.964844 L 2203.9375 216.964844 L 2203.9375 378.824219 L 2196.671875 378.824219 " fill-opacity="1" fill-rule="nonzero"/><path fill="#ffffff" d="M 2196.671875 216.964844 L 2196.671875 55.128906 L 2203.914062 55.128906 L 2203.9375 216.964844 L 2196.671875 216.964844 " fill-opacity="1" fill-rule="nonzero"/><path fill="#ffffff" d="M 2338.65625 139.1875 L 2056.496094 -23.710938 L 2060.117188 -349.503906 L 2063.714844 -27.933594 L 2342.277344 132.882812 L 2338.65625 139.1875 " fill-opacity="1" fill-rule="nonzero"/><path fill="#ffffff" d="M 2198.480469 51.96875 L 2338.65625 -28.949219 L 2342.277344 -22.648438 L 2202.128906 58.269531 L 2198.480469 51.96875 " fill-opacity="1" fill-rule="nonzero"/><path fill="#ffffff" d="M 3458.117188 297.882812 L 3458.117188 136.046875 L 3465.382812 136.046875 L 3465.382812 297.882812 L 3458.117188 297.882812 " fill-opacity="1" fill-rule="nonzero"/><path fill="#ffffff" d="M 2476.992188 55.128906 L 2480.617188 -349.480469 L 2484.261719 55.128906 L 2476.992188 55.128906 " fill-opacity="1" fill-rule="nonzero"/><path fill="#ffffff" d="M 2196.671875 55.128906 L 2200.316406 -349.480469 L 2203.914062 55.128906 L 2196.671875 55.128906 " fill-opacity="1" fill-rule="nonzero"/><path fill="#ffffff" d="M 5147.328125 299.957031 C 5103.019531 325.53125 5047.84375 357.429688 5003.53125 383 C 4955.574219 355.351562 4907.644531 327.679688 4859.734375 299.957031 C 4859.6875 244.636719 4859.6875 189.292969 4859.734375 133.945312 L 4861.546875 132.882812 L 5003.53125 50.929688 C 5047.816406 76.523438 5103.019531 108.398438 5147.328125 133.945312 C 5147.328125 189.292969 5147.328125 244.636719 5147.328125 299.957031 Z M 5140.035156 295.804688 L 5140.035156 138.125 L 5003.53125 59.308594 L 4867.003906 138.148438 L 4867.003906 295.804688 L 5003.53125 374.621094 L 5140.035156 295.804688 " fill-opacity="1" fill-rule="evenodd"/></svg>