<svg width="1256" height="536" viewBox="0 0 1256 536" fill="none" xmlns="http://www.w3.org/2000/svg">
<rect width="780" height="419" fill="black"/>
<rect x="15" y="17" width="695" height="17" fill="#A1A1A1"/>
<rect x="15" y="42" width="695" height="17" fill="#A1A1A1"/>
<rect x="15" y="67" width="320" height="17" fill="#A1A1A1"/>
<rect x="15" y="92" width="298" height="17" fill="#A1A1A1"/>
<rect x="15" y="117" width="298" height="17" fill="#A1A1A1"/>
<rect x="15" y="142" width="387" height="17" fill="#A1A1A1"/>
<rect x="15" y="167" width="196" height="17" fill="#A1A1A1"/>
<rect x="15" y="192" width="81" height="17" fill="#A1A1A1"/>
<rect x="15" y="217" width="138" height="17" fill="#A1A1A1"/>
<rect x="15" y="242" width="181" height="17" fill="#A1A1A1"/>
<rect x="15" y="267" width="298" height="17" fill="#A1A1A1"/>
<rect x="15" y="292" width="479" height="17" fill="#A1A1A1"/>
<rect x="15" y="317" width="560" height="17" fill="#A1A1A1"/>
<rect x="15" y="342" width="414" height="17" fill="#A1A1A1"/>
<rect x="15" y="367" width="554" height="17" fill="#A1A1A1"/>
<rect x="382.5" y="118.5" width="777" height="416" fill="black" stroke="#0166FD" stroke-width="3"/>
<rect x="396" y="134" width="695" height="17" fill="#76BB81"/>
<rect x="396" y="159" width="695" height="17" fill="#D9C408"/>
<rect x="396" y="184" width="320" height="17" fill="#76BB81"/>
<rect x="396" y="209" width="298" height="17" fill="#76BB81"/>
<rect x="396" y="234" width="298" height="17" fill="#76BB81"/>
<rect x="396" y="259" width="387" height="17" fill="#FF4444"/>
<rect x="396" y="284" width="196" height="17" fill="#FF4444"/>
<rect x="396" y="309" width="81" height="17" fill="#FF4444"/>
<rect x="396" y="334" width="138" height="17" fill="#FF4444"/>
<rect x="396" y="359" width="181" height="17" fill="#5A8487"/>
<rect x="396" y="384" width="298" height="17" fill="#5A8487"/>
<rect x="396" y="409" width="479" height="17" fill="#5A8487"/>
<rect x="396" y="434" width="560" height="17" fill="#76BB81"/>
<rect x="396" y="459" width="414" height="17" fill="#76BB81"/>
<rect x="396" y="484" width="554" height="17" fill="#76BB81"/>
<rect x="1047" y="232" width="207" height="170" rx="26" fill="white" stroke="#0166FD" stroke-width="4"/>
<path d="M1101.76 340.88C1102.1 342.757 1102.87 344.208 1104.06 345.232C1105.3 346.213 1106.94 346.704 1108.99 346.704C1111.64 346.704 1113.56 345.616 1114.75 343.44C1115.95 341.221 1116.54 337.509 1116.54 332.304C1115.56 333.669 1114.18 334.736 1112.38 335.504C1110.63 336.272 1108.74 336.656 1106.69 336.656C1103.96 336.656 1101.48 336.101 1099.26 334.992C1097.09 333.84 1095.36 332.155 1094.08 329.936C1092.8 327.675 1092.16 324.944 1092.16 321.744C1092.16 317.008 1093.57 313.253 1096.38 310.48C1099.2 307.664 1103.04 306.256 1107.9 306.256C1113.96 306.256 1118.23 308.197 1120.7 312.08C1123.22 315.963 1124.48 321.808 1124.48 329.616C1124.48 335.163 1123.99 339.707 1123.01 343.248C1122.07 346.789 1120.43 349.477 1118.08 351.312C1115.78 353.147 1112.62 354.064 1108.61 354.064C1105.45 354.064 1102.76 353.467 1100.54 352.272C1098.33 351.035 1096.62 349.435 1095.42 347.472C1094.27 345.467 1093.61 343.269 1093.44 340.88H1101.76ZM1108.54 329.36C1110.76 329.36 1112.51 328.677 1113.79 327.312C1115.07 325.947 1115.71 324.112 1115.71 321.808C1115.71 319.291 1115.03 317.349 1113.66 315.984C1112.34 314.576 1110.53 313.872 1108.22 313.872C1105.92 313.872 1104.09 314.597 1102.72 316.048C1101.4 317.456 1100.74 319.333 1100.74 321.68C1100.74 323.941 1101.38 325.797 1102.66 327.248C1103.98 328.656 1105.94 329.36 1108.54 329.36ZM1162.81 315.088H1142.08V326.032C1142.97 324.923 1144.25 324.027 1145.92 323.344C1147.58 322.619 1149.35 322.256 1151.23 322.256C1154.64 322.256 1157.44 323.003 1159.61 324.496C1161.79 325.989 1163.37 327.909 1164.35 330.256C1165.33 332.56 1165.82 335.035 1165.82 337.68C1165.82 342.587 1164.41 346.533 1161.6 349.52C1158.83 352.507 1154.86 354 1149.69 354C1144.83 354 1140.95 352.784 1138.05 350.352C1135.15 347.92 1133.5 344.741 1133.12 340.816H1141.82C1142.21 342.523 1143.06 343.888 1144.38 344.912C1145.75 345.936 1147.48 346.448 1149.57 346.448C1152.08 346.448 1153.98 345.659 1155.26 344.08C1156.54 342.501 1157.18 340.411 1157.18 337.808C1157.18 335.163 1156.52 333.157 1155.2 331.792C1153.92 330.384 1152.02 329.68 1149.5 329.68C1147.71 329.68 1146.22 330.128 1145.02 331.024C1143.83 331.92 1142.97 333.115 1142.46 334.608H1133.89V307.216H1162.81V315.088ZM1171.62 318.8C1171.62 315.557 1172.56 313.019 1174.43 311.184C1176.35 309.349 1178.81 308.432 1181.79 308.432C1184.78 308.432 1187.21 309.349 1189.09 311.184C1191.01 313.019 1191.97 315.557 1191.97 318.8C1191.97 322.085 1191.01 324.645 1189.09 326.48C1187.21 328.315 1184.78 329.232 1181.79 329.232C1178.81 329.232 1176.35 328.315 1174.43 326.48C1172.56 324.645 1171.62 322.085 1171.62 318.8ZM1212.71 309.2L1187.55 354H1178.85L1203.94 309.2H1212.71ZM1181.73 313.808C1179.38 313.808 1178.21 315.472 1178.21 318.8C1178.21 322.171 1179.38 323.856 1181.73 323.856C1182.88 323.856 1183.78 323.451 1184.42 322.64C1185.06 321.787 1185.38 320.507 1185.38 318.8C1185.38 315.472 1184.16 313.808 1181.73 313.808ZM1199.71 344.336C1199.71 341.051 1200.65 338.512 1202.53 336.72C1204.45 334.885 1206.9 333.968 1209.89 333.968C1212.88 333.968 1215.29 334.885 1217.12 336.72C1219 338.512 1219.94 341.051 1219.94 344.336C1219.94 347.621 1219 350.181 1217.12 352.016C1215.29 353.851 1212.88 354.768 1209.89 354.768C1206.86 354.768 1204.41 353.851 1202.53 352.016C1200.65 350.181 1199.71 347.621 1199.71 344.336ZM1209.83 339.344C1207.39 339.344 1206.18 341.008 1206.18 344.336C1206.18 347.707 1207.39 349.392 1209.83 349.392C1212.22 349.392 1213.41 347.707 1213.41 344.336C1213.41 341.008 1212.22 339.344 1209.83 339.344Z" fill="black"/>
<path d="M1091.9 290.744H1083.01L1081.54 295H1076.83L1084.86 272.632H1090.08L1098.11 295H1093.38L1091.9 290.744ZM1090.69 287.16L1087.46 277.816L1084.22 287.16H1090.69ZM1105.59 272.664V295H1101.11V272.664H1105.59ZM1133.2 279.384C1132.69 278.445 1131.98 277.731 1131.09 277.24C1130.19 276.749 1129.14 276.504 1127.95 276.504C1126.63 276.504 1125.45 276.803 1124.43 277.4C1123.41 277.997 1122.61 278.851 1122.03 279.96C1121.45 281.069 1121.17 282.349 1121.17 283.8C1121.17 285.293 1121.45 286.595 1122.03 287.704C1122.63 288.813 1123.45 289.667 1124.49 290.264C1125.54 290.861 1126.75 291.16 1128.14 291.16C1129.85 291.16 1131.25 290.712 1132.33 289.816C1133.42 288.899 1134.14 287.629 1134.48 286.008H1126.8V282.584H1138.89V286.488C1138.59 288.045 1137.95 289.485 1136.97 290.808C1135.99 292.131 1134.72 293.197 1133.17 294.008C1131.63 294.797 1129.9 295.192 1127.98 295.192C1125.83 295.192 1123.87 294.712 1122.13 293.752C1120.4 292.771 1119.03 291.416 1118.03 289.688C1117.05 287.96 1116.56 285.997 1116.56 283.8C1116.56 281.603 1117.05 279.64 1118.03 277.912C1119.03 276.163 1120.4 274.808 1122.13 273.848C1123.87 272.867 1125.82 272.376 1127.95 272.376C1130.47 272.376 1132.65 272.995 1134.51 274.232C1136.37 275.448 1137.65 277.165 1138.35 279.384H1133.2ZM1146.69 280.024C1147.26 279.085 1148.01 278.349 1148.93 277.816C1149.87 277.283 1150.93 277.016 1152.13 277.016V281.72H1150.94C1149.54 281.72 1148.47 282.051 1147.74 282.712C1147.04 283.373 1146.69 284.525 1146.69 286.168V295H1142.21V277.272H1146.69V280.024ZM1153.99 286.072C1153.99 284.28 1154.35 282.691 1155.05 281.304C1155.77 279.917 1156.75 278.851 1157.96 278.104C1159.2 277.357 1160.57 276.984 1162.09 276.984C1163.41 276.984 1164.56 277.251 1165.55 277.784C1166.55 278.317 1167.35 278.989 1167.95 279.8V277.272H1172.46V295H1167.95V292.408C1167.37 293.24 1166.57 293.933 1165.55 294.488C1164.54 295.021 1163.38 295.288 1162.06 295.288C1160.56 295.288 1159.2 294.904 1157.96 294.136C1156.75 293.368 1155.77 292.291 1155.05 290.904C1154.35 289.496 1153.99 287.885 1153.99 286.072ZM1167.95 286.136C1167.95 285.048 1167.73 284.12 1167.31 283.352C1166.88 282.563 1166.3 281.965 1165.58 281.56C1164.85 281.133 1164.07 280.92 1163.24 280.92C1162.41 280.92 1161.64 281.123 1160.94 281.528C1160.23 281.933 1159.66 282.531 1159.21 283.32C1158.78 284.088 1158.57 285.005 1158.57 286.072C1158.57 287.139 1158.78 288.077 1159.21 288.888C1159.66 289.677 1160.23 290.285 1160.94 290.712C1161.66 291.139 1162.43 291.352 1163.24 291.352C1164.07 291.352 1164.85 291.149 1165.58 290.744C1166.3 290.317 1166.88 289.72 1167.31 288.952C1167.73 288.163 1167.95 287.224 1167.95 286.136ZM1175.68 286.072C1175.68 284.28 1176.03 282.691 1176.74 281.304C1177.46 279.917 1178.44 278.851 1179.68 278.104C1180.92 277.357 1182.29 276.984 1183.81 276.984C1184.96 276.984 1186.06 277.24 1187.11 277.752C1188.15 278.243 1188.98 278.904 1189.6 279.736V271.32H1194.15V295H1189.6V292.376C1189.05 293.251 1188.27 293.955 1187.27 294.488C1186.26 295.021 1185.1 295.288 1183.78 295.288C1182.28 295.288 1180.92 294.904 1179.68 294.136C1178.44 293.368 1177.46 292.291 1176.74 290.904C1176.03 289.496 1175.68 287.885 1175.68 286.072ZM1189.63 286.136C1189.63 285.048 1189.42 284.12 1188.99 283.352C1188.57 282.563 1187.99 281.965 1187.27 281.56C1186.54 281.133 1185.76 280.92 1184.93 280.92C1184.1 280.92 1183.33 281.123 1182.62 281.528C1181.92 281.933 1181.35 282.531 1180.9 283.32C1180.47 284.088 1180.26 285.005 1180.26 286.072C1180.26 287.139 1180.47 288.077 1180.9 288.888C1181.35 289.677 1181.92 290.285 1182.62 290.712C1183.35 291.139 1184.12 291.352 1184.93 291.352C1185.76 291.352 1186.54 291.149 1187.27 290.744C1187.99 290.317 1188.57 289.72 1188.99 288.952C1189.42 288.163 1189.63 287.224 1189.63 286.136ZM1215 285.752C1215 286.392 1214.96 286.968 1214.87 287.48H1201.91C1202.02 288.76 1202.47 289.763 1203.26 290.488C1204.05 291.213 1205.02 291.576 1206.17 291.576C1207.83 291.576 1209.02 290.861 1209.72 289.432H1214.55C1214.04 291.139 1213.06 292.547 1211.61 293.656C1210.16 294.744 1208.38 295.288 1206.26 295.288C1204.56 295.288 1203.02 294.915 1201.66 294.168C1200.31 293.4 1199.26 292.323 1198.49 290.936C1197.74 289.549 1197.37 287.949 1197.37 286.136C1197.37 284.301 1197.74 282.691 1198.49 281.304C1199.24 279.917 1200.28 278.851 1201.62 278.104C1202.97 277.357 1204.52 276.984 1206.26 276.984C1207.95 276.984 1209.45 277.347 1210.78 278.072C1212.12 278.797 1213.16 279.832 1213.88 281.176C1214.63 282.499 1215 284.024 1215 285.752ZM1210.36 284.472C1210.34 283.32 1209.92 282.403 1209.11 281.72C1208.3 281.016 1207.31 280.664 1206.14 280.664C1205.03 280.664 1204.09 281.005 1203.32 281.688C1202.57 282.349 1202.12 283.277 1201.94 284.472H1210.36ZM1222.75 280.024C1223.33 279.085 1224.07 278.349 1224.99 277.816C1225.93 277.283 1227 277.016 1228.19 277.016V281.72H1227.01C1225.6 281.72 1224.53 282.051 1223.81 282.712C1223.1 283.373 1222.75 284.525 1222.75 286.168V295H1218.27V277.272H1222.75V280.024Z" fill="black"/>
</svg>
