<svg xmlns="http://www.w3.org/2000/svg" xmlns:xlink="http://www.w3.org/1999/xlink" viewBox="0,0,256,256" width="50px" height="50px"><defs><clipPath id="clip-1"><path d="M0,256v-256h256v256zM78.93778,217.40889c0,3.64089 1.36533,7.28178 4.096,9.55733c2.27556,2.73067 5.91644,4.096 9.55733,4.096c3.64089,0 7.28178,-1.36533 9.55733,-4.096l26.85156,-26.85156l26.85156,26.85156c2.73067,2.73067 5.91644,4.096 9.55733,4.096c3.64089,0 7.28178,-1.36533 9.55733,-4.096c2.73067,-2.73067 4.096,-5.91644 4.096,-9.55733c0,-3.64089 -1.36533,-7.28178 -4.096,-9.55733l-26.85156,-26.85156l26.85156,-26.85156c2.73067,-2.27556 4.096,-5.91644 4.096,-9.55733c0,-3.64089 -1.36533,-7.28178 -4.096,-9.55733c-2.27556,-2.73067 -5.91644,-4.096 -9.55733,-4.096c-3.64089,0 -7.28178,1.36533 -9.55733,4.096l-26.85156,26.85156l-26.85156,-26.85156c-2.27556,-2.73067 -5.91644,-4.096 -9.55733,-4.096c-3.64089,0 -7.28178,1.36533 -9.55733,4.096c-2.73067,2.27556 -4.096,5.91644 -4.096,9.55733c0,3.64089 1.36533,7.28178 4.096,9.55733l26.85156,26.85156l-26.85156,26.85156c-2.73067,2.27556 -4.096,5.91644 -4.096,9.55733z" id="overlayBgMask" fill="none"></path></clipPath></defs><g clip-path="url(#clip-1)" fill="none" fill-rule="nonzero" stroke="none" stroke-width="1" stroke-linecap="butt" stroke-linejoin="miter" stroke-miterlimit="10" stroke-dasharray="" stroke-dashoffset="0" font-family="none" font-weight="none" font-size="none" text-anchor="none" style="mix-blend-mode: normal"><g transform="scale(5.12,5.12)" fill="#ffffff"><path d="M19,9c-1.64453,0 -3,1.35547 -3,3v6h-13c-1.64453,0 -3,1.35547 -3,3v18.8125c0,0.55078 0.44922,1 1,1h48c0.55078,0 1,-0.44922 1,-1v-14.8125c0,-1.64453 -1.35547,-3 -3,-3h-13v-10c0,-1.64453 -1.35547,-3 -3,-3zM19,11h12c0.55469,0 1,0.44531 1,1v11c0,0.55078 0.44922,1 1,1h14c0.55469,0 1,0.44531 1,1v13.8125h-46v-17.8125c0,-0.55469 0.44531,-1 1,-1h14c0.55078,0 1,-0.44922 1,-1v-7c0,-0.55469 0.44531,-1 1,-1zM24.8125,14c-0.10156,0.5 -0.32422,0.80078 -0.625,1c-0.30078,0.19922 -0.78125,0.3125 -1.28125,0.3125h-0.09375v1.09375h1.59375v5.59375h1.59375v-8zM9.5,23c-0.89844,0 -1.50781,0.19531 -1.90625,0.59375c-0.39844,0.39844 -0.59375,0.91797 -0.59375,1.71875v0.28125h1.59375v-0.59375c0,-0.19922 -0.00781,-0.39844 0.09375,-0.5l0.3125,-0.3125c0.10156,-0.10156 0.30078,-0.09375 0.5,-0.09375c0.5,0 0.8125,0.30078 0.8125,1v0.59375c0,0.10156 -0.02344,0.30469 -0.125,0.40625c-0.10156,0.10156 -0.17969,0.30469 -0.28125,0.40625l-0.40625,0.40625l-0.6875,0.59375c-0.30078,0.30078 -0.61328,0.51172 -0.8125,0.8125c-0.30078,0.19922 -0.49219,0.48047 -0.59375,0.78125l-0.3125,0.90625c-0.10156,0.30078 -0.09375,0.60156 -0.09375,1h5v-1.3125h-3c0,-0.10156 0.09375,-0.30078 0.09375,-0.5l2.09375,-2.09375c0.19922,-0.19922 0.30469,-0.39453 0.40625,-0.59375c0.10156,-0.19922 0.21875,-0.39453 0.21875,-0.59375c0.10156,-0.19922 0.09375,-0.41797 0.09375,-0.71875c0,-0.69922 -0.19531,-1.19531 -0.59375,-1.59375c-0.39844,-0.39844 -1.01172,-0.59375 -1.8125,-0.59375zM40.59375,27c-0.69922,0 -1.28906,0.19531 -1.6875,0.59375c-0.39844,0.39844 -0.59375,1.01172 -0.59375,1.8125h1.5v-0.5c0,-0.10156 -0.00781,-0.30469 0.09375,-0.40625l0.28125,-0.3125c0.10156,-0.10156 0.20703,-0.09375 0.40625,-0.09375c0.30078,0 0.49219,0.01953 0.59375,0.21875c0.10156,0.10156 0.21875,0.38281 0.21875,0.78125c0,0.19922 -0.09375,0.30078 -0.09375,0.5c-0.10156,0.19922 -0.11719,0.30469 -0.21875,0.40625l-0.28125,0.3125c-0.10156,0.10156 -0.20703,0.09375 -0.40625,0.09375h-0.5v1.09375h0.5c0.19922,0 0.39844,-0.00781 0.5,0.09375l0.28125,0.3125c0.10156,0.10156 0.21875,0.20703 0.21875,0.40625v1c0,0.10156 0.00781,0.27344 -0.09375,0.375l-0.3125,0.3125c-0.10156,0.10156 -0.30078,0.09375 -0.5,0.09375c-0.30078,0 -0.58594,-0.20703 -0.6875,-0.40625c-0.10156,-0.30078 -0.19922,-0.57422 0,-0.875h-1.625c0,0.80078 0.22656,1.38281 0.625,1.78125c0.30078,0.39844 0.88672,0.59375 1.6875,0.59375c0.5,0 1.01172,-0.08594 1.3125,-0.1875c0.30078,-0.19922 0.58203,-0.39453 0.78125,-0.59375c0.19922,-0.30078 0.30469,-0.51172 0.40625,-0.8125c0.10156,-0.30078 0.09375,-0.48047 0.09375,-0.78125c0,-0.5 -0.08203,-1.01172 -0.28125,-1.3125c-0.19922,-0.30078 -0.625,-0.49219 -1.125,-0.59375c0.39844,-0.10156 0.70703,-0.29297 0.90625,-0.59375c0.19922,-0.30078 0.3125,-0.71875 0.3125,-1.21875c0,-0.80078 -0.19531,-1.29297 -0.59375,-1.59375c-0.39844,-0.30078 -1.01953,-0.5 -1.71875,-0.5z"></path></g></g><g fill="#ff7070" fill-rule="nonzero" stroke="none" stroke-width="1" stroke-linecap="butt" stroke-linejoin="miter" stroke-miterlimit="10" stroke-dasharray="" stroke-dashoffset="0" font-family="none" font-weight="none" font-size="none" text-anchor="none" style="mix-blend-mode: normal"><g transform="translate(88.04,140.04) scale(4.55111,4.55111)" id="overlay"><g id="Слой_2" font-family="Inter, apple-system, &quot;system-ui&quot;, &quot;Helvetica Neue&quot;, &quot;Segoe UI&quot;, &quot;Fira Sans&quot;, Roboto, Oxygen, Ubuntu, &quot;Droid Sans&quot;, Arial, sans-serif" font-weight="400" font-size="16" text-anchor="start" visibility="hidden"></g><g id="Android_x5F_4" font-family="Inter, apple-system, &quot;system-ui&quot;, &quot;Helvetica Neue&quot;, &quot;Segoe UI&quot;, &quot;Fira Sans&quot;, Roboto, Oxygen, Ubuntu, &quot;Droid Sans&quot;, Arial, sans-serif" font-weight="400" font-size="16" text-anchor="start" visibility="hidden"></g><g id="Android_x5F_5" font-family="Inter, apple-system, &quot;system-ui&quot;, &quot;Helvetica Neue&quot;, &quot;Segoe UI&quot;, &quot;Fira Sans&quot;, Roboto, Oxygen, Ubuntu, &quot;Droid Sans&quot;, Arial, sans-serif" font-weight="400" font-size="16" text-anchor="start" visibility="hidden"></g><g id="Windows_x5F_8" font-family="Inter, apple-system, &quot;system-ui&quot;, &quot;Helvetica Neue&quot;, &quot;Segoe UI&quot;, &quot;Fira Sans&quot;, Roboto, Oxygen, Ubuntu, &quot;Droid Sans&quot;, Arial, sans-serif" font-weight="400" font-size="16" text-anchor="start" visibility="hidden"></g><g id="Windows_x5F_10" font-family="Inter, apple-system, &quot;system-ui&quot;, &quot;Helvetica Neue&quot;, &quot;Segoe UI&quot;, &quot;Fira Sans&quot;, Roboto, Oxygen, Ubuntu, &quot;Droid Sans&quot;, Arial, sans-serif" font-weight="400" font-size="16" text-anchor="start" visibility="hidden"></g><g id="Color" font-family="Inter, apple-system, &quot;system-ui&quot;, &quot;Helvetica Neue&quot;, &quot;Segoe UI&quot;, &quot;Fira Sans&quot;, Roboto, Oxygen, Ubuntu, &quot;Droid Sans&quot;, Arial, sans-serif" font-weight="400" font-size="16" text-anchor="start" visibility="hidden"></g><g id="IOS" font-family="Inter, apple-system, &quot;system-ui&quot;, &quot;Helvetica Neue&quot;, &quot;Segoe UI&quot;, &quot;Fira Sans&quot;, Roboto, Oxygen, Ubuntu, &quot;Droid Sans&quot;, Arial, sans-serif" font-weight="400" font-size="16" text-anchor="start" visibility="hidden"></g><g id="IOS_copy"><path d="M10.4,9l7.3,-7.3c0.4,-0.4 0.4,-1 0,-1.4c-0.4,-0.4 -1,-0.4 -1.4,0l-7.3,7.3l-7.3,-7.3c-0.4,-0.4 -1,-0.4 -1.4,0c-0.4,0.4 -0.4,1 0,1.4l7.3,7.3l-7.3,7.3c-0.4,0.4 -0.4,1 0,1.4c0.2,0.2 0.4,0.3 0.7,0.3c0.3,0 0.5,-0.1 0.7,-0.3l7.3,-7.3l7.3,7.3c0.2,0.2 0.5,0.3 0.7,0.3c0.2,0 0.5,-0.1 0.7,-0.3c0.4,-0.4 0.4,-1 0,-1.4z"></path></g></g></g></svg>