<?xml version="1.0"?><svg xmlns="http://www.w3.org/2000/svg"  viewBox="0 0 128 128" width="128px" height="128px">    
    <path fill="#FFFFFF" d="M56,62.4c0,1.2,0.8,2.2,1.9,2.7c8.4,3.4,17.3,5.1,26.1,5.1s17.7-1.7,26.1-5.1c1.2-0.5,2-1.7,1.9-3l-2.9-38.8 c-0.1-1-0.6-1.9-1.5-2.4c-0.8-0.5-1.9-0.6-2.8-0.2C97.5,24,89.4,25.5,81.5,25l0.5-6.8c0.1-1.3-0.7-2.5-1.9-3 C64.5,9,47.5,8.5,31.7,13.8l-0.4-5.2c-0.1-1.7-1.6-2.9-3.2-2.8c-1.7,0.1-2.9,1.6-2.8,3.2l7.8,105c0.1,1.6,1.4,2.8,3,2.8 c0.1,0,0.1,0,0.2,0c1.7-0.1,2.9-1.6,2.8-3.2L35.1,59c9.4-3.9,19.7-4.8,29.5-2.8l-6.9,3.4C56.6,60.1,56,61.2,56,62.4z M34.6,52.8 L32.2,20c14.2-5.1,29.5-5.1,43.7,0l-2.4,32.5C60.9,48,47.1,48.1,34.6,52.8z"/>
</svg>