<svg xmlns="http://www.w3.org/2000/svg" xmlns:xlink="http://www.w3.org/1999/xlink" viewBox="0,0,256,256" width="48px" height="48px"><g fill="none" fill-rule="nonzero" stroke="none" stroke-width="1" stroke-linecap="butt" stroke-linejoin="miter" stroke-miterlimit="10" stroke-dasharray="" stroke-dashoffset="0" font-family="none" font-weight="none" font-size="none" text-anchor="none" style="mix-blend-mode: normal"><g transform="scale(5.33333,5.33333)"><path d="M23,4h2v11h-2zM42,21c0,-1.1 0.9,-2 2,-2c1.1,0 2,0.9 2,2v14c0,1.1 -0.9,2 -2,2c-1.1,0 -2,-0.9 -2,-2zM2,21c0,-1.1 0.9,-2 2,-2c1.1,0 2,0.9 2,2v14c0,1.1 -0.9,2 -2,2c-1.1,0 -2,-0.9 -2,-2z" fill="#064aa8"></path><path d="M28,6c0,2.2 -1.8,4 -4,4c-0.5,0 -1,-0.1 -1.4,-0.2c-1.5,-0.6 -1.5,-3.8 -1.5,-3.8l2.9,-3.5c0,0 1.9,-0.1 2.6,0.5c0.9,0.7 1.4,1.8 1.4,3zM43,30.1v9.3c0,3.4 -14.7,4.6 -18.4,4.6h-1.2c-3.7,0 -18.4,-1.2 -18.4,-4.6v-9.3c0,-9.4 8.4,-17.1 18.4,-17.1h1.2c10,0 18.4,7.7 18.4,17.1z" fill="#0b70fc"></path><path d="M32.5,24c-3.58985,0 -6.5,2.91015 -6.5,6.5c0,3.58985 2.91015,6.5 6.5,6.5c3.58985,0 6.5,-2.91015 6.5,-6.5c0,-3.58985 -2.91015,-6.5 -6.5,-6.5zM15.5,24c-3.58985,0 -6.5,2.91015 -6.5,6.5c0,3.58985 2.91015,6.5 6.5,6.5c3.58985,0 6.5,-2.91015 6.5,-6.5c0,-3.58985 -2.91015,-6.5 -6.5,-6.5z" fill="#1356a8"></path><g fill="#ffffff"><path d="M15.5,26c-2.48528,0 -4.5,2.01472 -4.5,4.5c0,2.48528 2.01472,4.5 4.5,4.5c2.48528,0 4.5,-2.01472 4.5,-4.5c0,-2.48528 -2.01472,-4.5 -4.5,-4.5zM32.5,26c-2.48528,0 -4.5,2.01472 -4.5,4.5c0,2.48528 2.01472,4.5 4.5,4.5c2.48528,0 4.5,-2.01472 4.5,-4.5c0,-2.48528 -2.01472,-4.5 -4.5,-4.5z"></path></g><g fill="#3d3d3d"><path d="M15.5,28c-1.38071,0 -2.5,1.11929 -2.5,2.5c0,1.38071 1.11929,2.5 2.5,2.5c1.38071,0 2.5,-1.11929 2.5,-2.5c0,-1.38071 -1.11929,-2.5 -2.5,-2.5zM32.5,28c-1.38071,0 -2.5,1.11929 -2.5,2.5c0,1.38071 1.11929,2.5 2.5,2.5c1.38071,0 2.5,-1.11929 2.5,-2.5c0,-1.38071 -1.11929,-2.5 -2.5,-2.5z"></path></g><g fill="#076bcd"><path d="M22,7c0,1.2 0.5,2.2 1.3,2.9c-1.9,-0.3 -3.3,-1.9 -3.3,-3.9c0,-2.2 1.8,-4 4,-4c1,0 2,0.4 2.7,1.1c-0.2,-0.1 -0.4,-0.1 -0.7,-0.1c-2.2,0 -4,1.8 -4,4zM5,30.1v9.3c0,1 1.2,1.8 3,2.4v-10.1c0,-10 7.9,-18.2 17.5,-18.7c-0.3,0 -0.6,0 -0.9,0h-1.2c-10,0 -18.4,7.7 -18.4,17.1z"></path></g></g></g></svg>