<svg xmlns="http://www.w3.org/2000/svg" xmlns:xlink="http://www.w3.org/1999/xlink" width="6912" zoomAndPan="magnify" viewBox="0 0 5184 2592.000001" height="3456" preserveAspectRatio="xMidYMid meet" version="1.0"><defs><g/><clipPath id="1fb272d409"><path d="M 3063 2533 L 3209 2533 L 3209 2591 L 3063 2591 Z M 3063 2533 " clip-rule="nonzero"/></clipPath><clipPath id="a5c3c3846c"><path d="M 3061 2536 L 3069 2536 L 3069 2591 L 3061 2591 Z M 3061 2536 " clip-rule="nonzero"/></clipPath><clipPath id="9b4e59b19c"><path d="M 2921 2455 L 2929 2455 L 2929 2591 L 2921 2591 Z M 2921 2455 " clip-rule="nonzero"/></clipPath><clipPath id="44f938cb91"><path d="M 2781 2374 L 2789 2374 L 2789 2591 L 2781 2591 Z M 2781 2374 " clip-rule="nonzero"/></clipPath><clipPath id="5a7dfd2d58"><path d="M 2640 2455 L 2649 2455 L 2649 2591 L 2640 2591 Z M 2640 2455 " clip-rule="nonzero"/></clipPath><clipPath id="bbb549695b"><path d="M 2502 2533 L 2647 2533 L 2647 2591 L 2502 2591 Z M 2502 2533 " clip-rule="nonzero"/></clipPath><clipPath id="1bd3e3b898"><path d="M 2500 2536 L 2509 2536 L 2509 2591 L 2500 2591 Z M 2500 2536 " clip-rule="nonzero"/></clipPath><clipPath id="628a25789e"><path d="M 2222 2533 L 2367 2533 L 2367 2591 L 2222 2591 Z M 2222 2533 " clip-rule="nonzero"/></clipPath><clipPath id="f707407c53"><path d="M 1800 2370 L 2088 2370 L 2088 2591 L 1800 2591 Z M 1800 2370 " clip-rule="nonzero"/></clipPath><clipPath id="6ad80ec223"><path d="M 1940 2452 L 2086 2452 L 2086 2591 L 1940 2591 Z M 1940 2452 " clip-rule="nonzero"/></clipPath><clipPath id="c2d493e424"><path d="M 2082 2455 L 2368 2455 L 2368 2591 L 2082 2591 Z M 2082 2455 " clip-rule="nonzero"/></clipPath><clipPath id="29928f0624"><path d="M 1661 2533 L 1806 2533 L 1806 2591 L 1661 2591 Z M 1661 2533 " clip-rule="nonzero"/></clipPath><clipPath id="f070672dd2"><path d="M 1519 2452 L 1527 2452 L 1527 2591 L 1519 2591 Z M 1519 2452 " clip-rule="nonzero"/></clipPath><clipPath id="a2a7eaed75"><path d="M 1659 2532 L 1668 2532 L 1668 2591 L 1659 2591 Z M 1659 2532 " clip-rule="nonzero"/></clipPath><clipPath id="f5b8d3d692"><path d="M 1379 2212 L 1387 2212 L 1387 2591 L 1379 2591 Z M 1379 2212 " clip-rule="nonzero"/></clipPath><clipPath id="917ab497e0"><path d="M 1099 2212 L 1107 2212 L 1107 2591 L 1099 2591 Z M 1099 2212 " clip-rule="nonzero"/></clipPath><clipPath id="df930b2bd1"><path d="M 1101 2533 L 1385 2533 L 1385 2591 L 1101 2591 Z M 1101 2533 " clip-rule="nonzero"/></clipPath><clipPath id="aa4fbb535a"><path d="M 959 2455 L 967 2455 L 967 2591 L 959 2591 Z M 959 2455 " clip-rule="nonzero"/></clipPath><clipPath id="dd7115eb2e"><path d="M 820 2533 L 965 2533 L 965 2591 L 820 2591 Z M 820 2533 " clip-rule="nonzero"/></clipPath><clipPath id="68337a3d63"><path d="M 818 2374 L 827 2374 L 827 2591 L 818 2591 Z M 818 2374 " clip-rule="nonzero"/></clipPath><clipPath id="ec20cedc67"><path d="M 118.074219 1723.261719 L 406 1723.261719 L 406 2458.621094 L 118.074219 2458.621094 Z M 118.074219 1723.261719 " clip-rule="nonzero"/></clipPath><clipPath id="3c25383f5a"><path d="M 540 2533 L 1105 2533 L 1105 2591 L 540 2591 Z M 540 2533 " clip-rule="nonzero"/></clipPath><clipPath id="e9127c8529"><path d="M 678 2455 L 686 2455 L 686 2591 L 678 2591 Z M 678 2455 " clip-rule="nonzero"/></clipPath><clipPath id="560c1891d0"><path d="M 398 2293 L 406 2293 L 406 2591 L 398 2591 Z M 398 2293 " clip-rule="nonzero"/></clipPath><clipPath id="7b2805f629"><path d="M 118 2452 L 404 2452 L 404 2591 L 118 2591 Z M 118 2452 " clip-rule="nonzero"/></clipPath><clipPath id="d473c24de1"><path d="M 260 2533 L 404 2533 L 404 2591 L 260 2591 Z M 260 2533 " clip-rule="nonzero"/></clipPath><clipPath id="5dde6b5bbd"><path d="M 538 2536 L 546 2536 L 546 2591 L 538 2591 Z M 538 2536 " clip-rule="nonzero"/></clipPath><clipPath id="38934f6bd1"><path d="M 258 2536 L 266 2536 L 266 2591 L 258 2591 Z M 258 2536 " clip-rule="nonzero"/></clipPath><clipPath id="f5ad7bc019"><path d="M 2056.496094 132.667969 L 2345 132.667969 L 2345 868.027344 L 2056.496094 868.027344 Z M 2056.496094 132.667969 " clip-rule="nonzero"/></clipPath></defs><path fill="#ffffff" d="M 1 0 L 5183 0 L 5183 2591 L 1 2591 Z M 1 0 " fill-opacity="1" fill-rule="nonzero"/><path fill="#3260df" d="M 1 0 L 5183 0 L 5183 2591 L 1 2591 Z M 1 0 " fill-opacity="1" fill-rule="nonzero"/><path fill="#ffffff" d="M 3203.234375 2290.363281 L 3061.488281 2372.222656 L 3061.488281 2536.183594 L 3068.734375 2536.183594 L 3068.734375 2376.425781 L 3203.234375 2298.769531 L 3203.234375 2290.363281 " fill-opacity="1" fill-rule="nonzero"/><path fill="#ffffff" d="M 2923.125 2296.546875 L 3063.277344 2377.464844 L 3066.921875 2371.183594 L 2926.773438 2290.269531 L 2923.125 2296.546875 " fill-opacity="1" fill-rule="nonzero"/><path fill="#ffffff" d="M 3063.277344 2377.464844 L 3203.351562 2458.332031 L 3203.351562 2449.953125 L 3066.921875 2371.183594 L 3063.277344 2377.464844 " fill-opacity="1" fill-rule="nonzero"/><g clip-path="url(#1fb272d409)"><path fill="#ffffff" d="M 3063.300781 2539.320312 L 3201.613281 2619.175781 L 3205.210938 2940.742188 L 3208.90625 2615 L 3066.921875 2533.019531 L 3063.300781 2539.320312 " fill-opacity="1" fill-rule="nonzero"/></g><g clip-path="url(#a5c3c3846c)"><path fill="#ffffff" d="M 3065.109375 2940.769531 L 3068.734375 2536.183594 L 3061.488281 2536.183594 L 3065.109375 2940.769531 " fill-opacity="1" fill-rule="nonzero"/></g><g clip-path="url(#9b4e59b19c)"><path fill="#ffffff" d="M 2921.316406 2457.34375 L 2924.9375 2940.769531 L 2928.582031 2455.242188 L 2921.316406 2457.34375 " fill-opacity="1" fill-rule="nonzero"/></g><path fill="#ffffff" d="M 2648.257812 2133.648438 L 2784.785156 2054.832031 L 2921.289062 2133.648438 L 2921.289062 2291.332031 L 2648.257812 2448.964844 Z M 2782.976562 2047.492188 L 2640.992188 2129.472656 C 2640.871094 2240.164062 2640.941406 2350.855469 2640.992188 2461.542969 C 2736.832031 2406.175781 2832.671875 2350.78125 2928.582031 2295.484375 L 2928.582031 2129.472656 L 2784.785156 2046.453125 L 2782.976562 2047.492188 " fill-opacity="1" fill-rule="nonzero"/><path fill="#ffffff" d="M 2926.773438 2290.269531 L 2786.597656 2209.351562 L 2782.976562 2215.628906 L 2923.125 2296.546875 L 2926.773438 2290.269531 " fill-opacity="1" fill-rule="nonzero"/><path fill="#ffffff" d="M 2646.425781 2296.546875 L 2786.597656 2215.628906 L 2782.976562 2209.351562 L 2642.824219 2290.269531 L 2646.425781 2296.546875 " fill-opacity="1" fill-rule="nonzero"/><path fill="#ffffff" d="M 2923.125 2128.410156 L 2782.976562 2209.351562 L 2786.597656 2215.628906 L 2926.773438 2134.710938 L 2923.125 2128.410156 " fill-opacity="1" fill-rule="nonzero"/><path fill="#ffffff" d="M 2642.800781 2134.710938 L 2782.976562 2215.628906 L 2786.597656 2209.351562 L 2646.449219 2128.410156 L 2642.800781 2134.710938 " fill-opacity="1" fill-rule="nonzero"/><path fill="#ffffff" d="M 2781.164062 2212.492188 L 2781.164062 2374.324219 L 2788.410156 2374.324219 L 2788.410156 2212.492188 L 2781.164062 2212.492188 " fill-opacity="1" fill-rule="nonzero"/><g clip-path="url(#44f938cb91)"><path fill="#ffffff" d="M 2781.164062 2374.324219 L 2784.785156 2940.769531 L 2788.410156 2374.324219 L 2781.164062 2374.324219 " fill-opacity="1" fill-rule="nonzero"/></g><path fill="#ffffff" d="M 2371.558594 2455.242188 L 2504.464844 2378.503906 L 2637.367188 2455.242188 L 2504.464844 2531.980469 Z M 2502.652344 2371.183594 L 2357.042969 2455.242188 L 2504.464844 2540.359375 L 2651.882812 2455.242188 L 2504.464844 2370.148438 L 2502.652344 2371.183594 " fill-opacity="1" fill-rule="nonzero"/><g clip-path="url(#5a7dfd2d58)"><path fill="#ffffff" d="M 2640.992188 2455.242188 L 2640.992188 2617.101562 L 2648.257812 2617.101562 L 2648.257812 2455.242188 L 2640.992188 2455.242188 " fill-opacity="1" fill-rule="nonzero"/></g><g clip-path="url(#bbb549695b)"><path fill="#ffffff" d="M 2502.628906 2539.320312 L 2642.800781 2620.238281 L 2646.449219 2613.960938 L 2506.273438 2533.019531 L 2502.628906 2539.320312 " fill-opacity="1" fill-rule="nonzero"/></g><path fill="#ffffff" d="M 2366.101562 2290.269531 L 2224.140625 2208.289062 C 2176.183594 2235.9375 2128.273438 2263.632812 2080.34375 2291.308594 L 2080.34375 2457.34375 C 2128.273438 2484.964844 2176.183594 2512.6875 2224.140625 2540.359375 C 2272.046875 2512.640625 2319.980469 2484.964844 2367.933594 2457.34375 C 2367.933594 2401.996094 2367.886719 2346.652344 2367.933594 2291.308594 Z M 2224.140625 2216.667969 L 2360.644531 2295.484375 L 2360.644531 2453.164062 L 2224.140625 2531.980469 L 2087.609375 2453.164062 L 2087.609375 2295.484375 L 2224.140625 2216.667969 " fill-opacity="1" fill-rule="nonzero"/><path fill="#ffffff" d="M 2082.179688 2296.546875 L 2222.328125 2377.464844 L 2225.949219 2371.183594 L 2085.777344 2290.269531 L 2082.179688 2296.546875 " fill-opacity="1" fill-rule="nonzero"/><path fill="#ffffff" d="M 2362.476562 2290.269531 L 2222.328125 2371.183594 L 2225.949219 2377.464844 L 2366.125 2296.546875 L 2362.476562 2290.269531 " fill-opacity="1" fill-rule="nonzero"/><path fill="#ffffff" d="M 2222.304688 2371.183594 L 2082.152344 2452.101562 L 2085.800781 2458.40625 L 2225.949219 2377.464844 L 2222.304688 2371.183594 " fill-opacity="1" fill-rule="nonzero"/><path fill="#ffffff" d="M 2222.304688 2377.464844 L 2362.476562 2458.40625 L 2366.125 2452.101562 L 2225.949219 2371.183594 L 2222.304688 2377.464844 " fill-opacity="1" fill-rule="nonzero"/><path fill="#ffffff" d="M 2220.515625 2374.324219 L 2220.515625 2536.160156 L 2227.761719 2536.160156 L 2227.761719 2374.324219 L 2220.515625 2374.324219 " fill-opacity="1" fill-rule="nonzero"/><g clip-path="url(#1bd3e3b898)"><path fill="#ffffff" d="M 2500.816406 2536.160156 L 2504.464844 2940.769531 L 2508.085938 2536.160156 L 2500.816406 2536.160156 " fill-opacity="1" fill-rule="nonzero"/></g><g clip-path="url(#628a25789e)"><path fill="#ffffff" d="M 2222.304688 2539.320312 L 2362.476562 2620.238281 L 2366.125 2613.9375 L 2225.949219 2533.019531 L 2222.304688 2539.320312 " fill-opacity="1" fill-rule="nonzero"/></g><g clip-path="url(#f707407c53)"><path fill="#ffffff" d="M 1801.855469 2620.238281 L 1943.816406 2702.195312 C 1991.722656 2674.496094 2039.679688 2646.824219 2087.609375 2619.175781 L 2087.609375 2453.164062 C 2039.703125 2425.46875 1991.746094 2397.820312 1943.816406 2370.121094 C 1895.882812 2397.796875 1847.949219 2425.492188 1800.019531 2453.164062 L 1800.019531 2619.175781 Z M 1943.816406 2693.839844 L 1807.289062 2615 L 1807.289062 2457.316406 L 1943.816406 2378.503906 L 2080.34375 2457.34375 L 2080.34375 2615 L 1943.816406 2693.839844 " fill-opacity="1" fill-rule="nonzero"/></g><g clip-path="url(#6ad80ec223)"><path fill="#ffffff" d="M 2082.179688 2452.101562 L 1940.191406 2534.082031 L 1940.191406 2698.015625 L 1947.4375 2698.015625 L 1947.4375 2538.257812 L 2085.777344 2458.40625 L 2082.179688 2452.101562 " fill-opacity="1" fill-rule="nonzero"/></g><g clip-path="url(#c2d493e424)"><path fill="#ffffff" d="M 2082.152344 2620.238281 L 2224.140625 2702.21875 C 2272.046875 2674.523438 2319.980469 2646.847656 2367.910156 2619.199219 L 2367.910156 2455.242188 L 2360.667969 2455.242188 L 2360.667969 2615 L 2224.140625 2693.816406 L 2085.800781 2613.960938 L 2082.152344 2620.238281 " fill-opacity="1" fill-rule="nonzero"/></g><path fill="#ffffff" d="M 1807.289062 2455.242188 L 1807.289062 2133.648438 L 1943.816406 2054.832031 L 2080.34375 2133.648438 L 2080.34375 2293.40625 L 2087.609375 2293.40625 L 2087.609375 2129.472656 L 1943.816406 2046.429688 C 1895.882812 2074.101562 1847.925781 2101.75 1800.042969 2129.449219 L 1800.019531 2455.242188 L 1807.289062 2455.242188 " fill-opacity="1" fill-rule="nonzero"/><path fill="#ffffff" d="M 2082.179688 2128.410156 L 1942.003906 2209.328125 L 1945.625 2215.628906 L 2085.777344 2134.710938 L 2082.179688 2128.410156 " fill-opacity="1" fill-rule="nonzero"/><path fill="#ffffff" d="M 1801.855469 2134.710938 L 1942.003906 2215.628906 L 1945.625 2209.328125 L 1805.476562 2128.410156 L 1801.855469 2134.710938 " fill-opacity="1" fill-rule="nonzero"/><path fill="#ffffff" d="M 1942.003906 2215.628906 L 2082.152344 2296.546875 L 2085.800781 2290.246094 L 1945.625 2209.328125 L 1942.003906 2215.628906 " fill-opacity="1" fill-rule="nonzero"/><path fill="#ffffff" d="M 1940.191406 2212.464844 L 1940.191406 2374.324219 L 1947.4375 2374.324219 L 1947.4375 2212.464844 L 1940.191406 2212.464844 " fill-opacity="1" fill-rule="nonzero"/><path fill="#ffffff" d="M 1526.964844 2131.550781 L 1526.964844 1971.792969 L 1663.492188 1892.976562 L 1800.019531 1971.792969 L 1800.019531 2131.550781 L 1807.289062 2131.550781 L 1807.289062 1967.613281 C 1759.378906 1939.941406 1711.449219 1912.246094 1663.492188 1884.597656 C 1615.535156 1912.246094 1567.628906 1939.941406 1519.695312 1967.613281 L 1519.695312 2131.550781 L 1526.964844 2131.550781 " fill-opacity="1" fill-rule="nonzero"/><path fill="#ffffff" d="M 1521.507812 1972.855469 L 1661.679688 2053.769531 L 1665.328125 2047.46875 L 1525.152344 1966.550781 L 1521.507812 1972.855469 " fill-opacity="1" fill-rule="nonzero"/><path fill="#ffffff" d="M 1801.828125 1966.550781 L 1661.679688 2047.46875 L 1665.328125 2053.769531 L 1805.476562 1972.855469 L 1801.828125 1966.550781 " fill-opacity="1" fill-rule="nonzero"/><path fill="#ffffff" d="M 1661.679688 2047.46875 L 1521.53125 2128.410156 L 1525.128906 2134.710938 L 1665.300781 2053.769531 L 1661.679688 2047.46875 " fill-opacity="1" fill-rule="nonzero"/><path fill="#ffffff" d="M 1661.679688 2053.769531 L 1801.855469 2134.710938 L 1805.476562 2128.410156 L 1665.300781 2047.46875 L 1661.679688 2053.769531 " fill-opacity="1" fill-rule="nonzero"/><path fill="#ffffff" d="M 1659.867188 2050.632812 L 1659.867188 2212.464844 L 1667.113281 2212.464844 L 1667.136719 2050.632812 L 1659.867188 2050.632812 " fill-opacity="1" fill-rule="nonzero"/><path fill="#ffffff" d="M 1386.789062 2212.464844 L 1386.789062 1890.875 L 1523.316406 1812.058594 L 1661.679688 1891.9375 L 1665.300781 1885.636719 L 1523.316406 1803.679688 C 1475.386719 1831.328125 1427.453125 1859 1379.519531 1886.699219 L 1379.546875 2212.464844 L 1386.789062 2212.464844 " fill-opacity="1" fill-rule="nonzero"/><path fill="#ffffff" d="M 1381.332031 1891.9375 L 1521.507812 1972.855469 L 1525.152344 1966.550781 L 1384.976562 1885.636719 L 1381.332031 1891.9375 " fill-opacity="1" fill-rule="nonzero"/><path fill="#ffffff" d="M 1665.300781 2209.328125 L 1519.695312 2125.269531 C 1519.671875 2182.015625 1519.648438 2238.738281 1519.695312 2295.484375 L 1667.136719 2380.625 L 1667.136719 2210.390625 Z M 1526.964844 2137.828125 L 1659.84375 2214.542969 L 1659.84375 2368.023438 L 1526.964844 2291.308594 L 1526.964844 2137.828125 " fill-opacity="1" fill-rule="nonzero"/><path fill="#ffffff" d="M 1661.679688 2215.628906 L 1801.855469 2296.546875 L 1805.476562 2290.246094 L 1665.300781 2209.328125 L 1661.679688 2215.628906 " fill-opacity="1" fill-rule="nonzero"/><path fill="#ffffff" d="M 1801.828125 2290.246094 L 1661.679688 2371.160156 L 1665.328125 2377.464844 L 1805.476562 2296.546875 L 1801.828125 2290.246094 " fill-opacity="1" fill-rule="nonzero"/><path fill="#ffffff" d="M 1661.679688 2377.464844 L 1801.855469 2458.378906 L 1805.476562 2452.101562 L 1665.300781 2371.160156 L 1661.679688 2377.464844 " fill-opacity="1" fill-rule="nonzero"/><path fill="#ffffff" d="M 1801.828125 2452.101562 L 1661.679688 2533.019531 L 1665.328125 2539.320312 L 1805.476562 2458.40625 L 1801.828125 2452.101562 " fill-opacity="1" fill-rule="nonzero"/><g clip-path="url(#29928f0624)"><path fill="#ffffff" d="M 1661.679688 2539.320312 L 1801.855469 2620.238281 L 1805.453125 2613.960938 L 1665.300781 2533.019531 L 1661.679688 2539.320312 " fill-opacity="1" fill-rule="nonzero"/></g><path fill="#ffffff" d="M 1659.867188 2374.324219 L 1659.867188 2536.160156 L 1667.113281 2536.160156 L 1667.113281 2374.324219 L 1659.867188 2374.324219 " fill-opacity="1" fill-rule="nonzero"/><g clip-path="url(#f070672dd2)"><path fill="#ffffff" d="M 1519.695312 2455.242188 L 1523.316406 2940.769531 L 1526.964844 2455.242188 L 1523.171875 2452.246094 L 1519.695312 2455.242188 " fill-opacity="1" fill-rule="nonzero"/></g><g clip-path="url(#a2a7eaed75)"><path fill="#ffffff" d="M 1659.867188 2536.160156 L 1663.492188 2940.792969 L 1667.113281 2536.183594 L 1663.175781 2532.945312 L 1659.867188 2536.160156 " fill-opacity="1" fill-rule="nonzero"/></g><path fill="#ffffff" d="M 1521.507812 2128.410156 L 1381.332031 2209.328125 L 1385.003906 2215.628906 L 1525.152344 2134.710938 L 1521.507812 2128.410156 " fill-opacity="1" fill-rule="nonzero"/><path fill="#ffffff" d="M 1381.332031 2215.628906 L 1521.507812 2296.546875 L 1525.152344 2290.246094 L 1385.003906 2209.328125 L 1381.332031 2215.628906 " fill-opacity="1" fill-rule="nonzero"/><path fill="#ffffff" d="M 1110.113281 2212.464844 L 1243.015625 2135.75 L 1375.921875 2212.464844 L 1243.015625 2289.207031 Z M 1241.207031 2128.410156 L 1095.597656 2212.492188 L 1243.015625 2297.585938 C 1292.132812 2269.1875 1341.296875 2240.839844 1390.433594 2212.492188 L 1243.015625 2127.371094 L 1241.207031 2128.410156 " fill-opacity="1" fill-rule="nonzero"/><g clip-path="url(#f5b8d3d692)"><path fill="#ffffff" d="M 1379.546875 2212.464844 L 1379.519531 2698.015625 L 1386.789062 2698.015625 L 1386.789062 2212.464844 L 1379.546875 2212.464844 " fill-opacity="1" fill-rule="nonzero"/></g><g clip-path="url(#917ab497e0)"><path fill="#ffffff" d="M 1099.222656 2212.464844 L 1099.222656 2697.992188 L 1106.464844 2697.992188 L 1106.488281 2212.464844 L 1099.222656 2212.464844 " fill-opacity="1" fill-rule="nonzero"/></g><path fill="#ffffff" d="M 1521.507812 2290.246094 L 1381.332031 2371.160156 L 1385.003906 2377.464844 L 1525.152344 2296.546875 L 1521.507812 2290.246094 " fill-opacity="1" fill-rule="nonzero"/><path fill="#ffffff" d="M 1241.207031 2296.546875 L 1381.355469 2377.464844 L 1384.976562 2371.160156 L 1244.804688 2290.246094 L 1241.207031 2296.546875 " fill-opacity="1" fill-rule="nonzero"/><path fill="#ffffff" d="M 1381.355469 2377.464844 L 1521.53125 2458.378906 L 1525.128906 2452.101562 L 1384.976562 2371.160156 L 1381.355469 2377.464844 " fill-opacity="1" fill-rule="nonzero"/><path fill="#ffffff" d="M 1381.355469 2371.160156 L 1101.03125 2533.019531 L 1104.652344 2539.320312 L 1384.976562 2377.464844 L 1381.355469 2371.160156 " fill-opacity="1" fill-rule="nonzero"/><g clip-path="url(#df930b2bd1)"><path fill="#ffffff" d="M 1101.03125 2539.320312 L 1381.355469 2701.15625 L 1384.976562 2694.878906 L 1104.652344 2533.019531 L 1101.03125 2539.320312 " fill-opacity="1" fill-rule="nonzero"/></g><path fill="#ffffff" d="M 1104.652344 2047.46875 L 962.691406 1965.515625 C 914.738281 1993.164062 866.804688 2020.835938 818.898438 2048.53125 C 818.800781 2159.222656 818.898438 2269.914062 818.898438 2380.601562 C 914.761719 2325.257812 1010.601562 2269.839844 1106.488281 2214.566406 L 1106.488281 2048.53125 Z M 962.691406 1973.894531 L 1099.222656 2052.707031 L 1099.222656 2210.390625 L 826.140625 2368.046875 L 826.140625 2052.734375 L 962.691406 1973.894531 " fill-opacity="1" fill-rule="nonzero"/><path fill="#ffffff" d="M 820.707031 2053.769531 L 960.882812 2134.710938 L 964.503906 2128.410156 L 824.332031 2047.46875 L 820.707031 2053.769531 " fill-opacity="1" fill-rule="nonzero"/><path fill="#ffffff" d="M 1101.03125 2047.46875 L 960.882812 2128.410156 L 964.503906 2134.710938 L 1104.679688 2053.769531 L 1101.03125 2047.46875 " fill-opacity="1" fill-rule="nonzero"/><path fill="#ffffff" d="M 959.070312 2131.550781 L 959.070312 2293.40625 L 966.316406 2293.40625 L 966.316406 2131.550781 L 959.070312 2131.550781 " fill-opacity="1" fill-rule="nonzero"/><path fill="#ffffff" d="M 820.707031 2377.464844 L 1101.03125 2539.320312 L 1104.679688 2533.019531 L 824.355469 2371.160156 L 820.707031 2377.464844 " fill-opacity="1" fill-rule="nonzero"/><path fill="#ffffff" d="M 959.070312 2293.40625 L 959.070312 2455.242188 L 966.316406 2455.242188 L 966.316406 2293.40625 L 959.070312 2293.40625 " fill-opacity="1" fill-rule="nonzero"/><g clip-path="url(#aa4fbb535a)"><path fill="#ffffff" d="M 959.070312 2455.242188 L 959.070312 2617.074219 L 966.316406 2617.074219 L 966.316406 2455.242188 L 959.070312 2455.242188 " fill-opacity="1" fill-rule="nonzero"/></g><g clip-path="url(#dd7115eb2e)"><path fill="#ffffff" d="M 820.707031 2539.320312 L 960.882812 2620.238281 L 964.503906 2613.9375 L 824.332031 2533.019531 L 820.707031 2539.320312 " fill-opacity="1" fill-rule="nonzero"/></g><g clip-path="url(#68337a3d63)"><path fill="#ffffff" d="M 818.898438 2374.324219 L 818.898438 2698.015625 L 826.140625 2698.015625 L 826.140625 2374.324219 L 818.898438 2374.324219 " fill-opacity="1" fill-rule="nonzero"/></g><path fill="#ffffff" d="M 545.839844 2212.464844 L 545.839844 2052.707031 L 682.34375 1973.894531 L 820.707031 2053.769531 L 824.332031 2047.46875 L 682.34375 1965.515625 C 634.414062 1993.164062 586.503906 2020.859375 538.574219 2048.53125 L 538.574219 2212.464844 L 545.839844 2212.464844 " fill-opacity="1" fill-rule="nonzero"/><path fill="#ffffff" d="M 405.667969 2293.40625 L 405.667969 1971.792969 L 542.195312 1892.976562 L 680.558594 1972.855469 L 684.179688 1966.550781 L 542.195312 1884.597656 L 398.398438 1967.613281 L 398.398438 2293.40625 L 405.667969 2293.40625 " fill-opacity="1" fill-rule="nonzero"/><g clip-path="url(#ec20cedc67)"><path fill="#ffffff" d="M 125.34375 1809.957031 L 261.894531 1731.117188 L 398.398438 1809.933594 L 398.398438 1969.714844 L 405.691406 1969.714844 L 405.691406 1805.78125 C 357.734375 1778.082031 309.828125 1750.410156 261.894531 1722.761719 C 217.5625 1748.308594 162.359375 1780.160156 118.074219 1805.78125 L 118.074219 2295.460938 L 400.234375 2458.40625 L 403.855469 2452.101562 L 125.34375 2291.28125 L 125.34375 1809.957031 " fill-opacity="1" fill-rule="nonzero"/></g><path fill="#ffffff" d="M 123.386719 1813.023438 L 260.058594 1891.914062 L 263.683594 1885.636719 L 123.386719 1804.621094 L 123.386719 1813.023438 " fill-opacity="1" fill-rule="nonzero"/><path fill="#ffffff" d="M 400.234375 1804.71875 L 260.058594 1885.636719 L 263.683594 1891.914062 L 403.832031 1811.019531 L 400.234375 1804.71875 " fill-opacity="1" fill-rule="nonzero"/><path fill="#ffffff" d="M 258.25 1888.773438 L 258.25 2050.632812 L 265.492188 2050.632812 L 265.492188 1888.773438 L 258.25 1888.773438 " fill-opacity="1" fill-rule="nonzero"/><path fill="#ffffff" d="M 820.707031 2047.46875 L 540.382812 2209.328125 L 544.03125 2215.628906 L 824.355469 2053.769531 L 820.707031 2047.46875 " fill-opacity="1" fill-rule="nonzero"/><path fill="#ffffff" d="M 400.234375 1972.855469 L 680.535156 2134.710938 L 684.179688 2128.410156 L 403.855469 1966.550781 L 400.234375 1972.855469 " fill-opacity="1" fill-rule="nonzero"/><path fill="#ffffff" d="M 678.722656 2131.574219 L 678.722656 2293.40625 L 685.96875 2293.40625 L 685.992188 2131.574219 L 678.722656 2131.574219 " fill-opacity="1" fill-rule="nonzero"/><path fill="#ffffff" d="M 540.382812 2215.628906 L 820.707031 2377.464844 L 824.355469 2371.183594 L 544.03125 2209.328125 L 540.382812 2215.628906 " fill-opacity="1" fill-rule="nonzero"/><path fill="#ffffff" d="M 820.707031 2371.183594 L 540.382812 2533.019531 L 544.03125 2539.320312 L 824.355469 2377.464844 L 820.707031 2371.183594 " fill-opacity="1" fill-rule="nonzero"/><path fill="#ffffff" d="M 538.574219 2212.464844 L 538.574219 2536.160156 L 545.839844 2536.160156 L 545.839844 2212.464844 L 538.574219 2212.464844 " fill-opacity="1" fill-rule="nonzero"/><path fill="#ffffff" d="M 680.535156 2458.378906 L 820.707031 2539.320312 L 824.332031 2533.019531 L 684.179688 2452.101562 L 680.535156 2458.378906 " fill-opacity="1" fill-rule="nonzero"/><path fill="#ffffff" d="M 678.722656 2293.40625 L 678.722656 2455.242188 L 685.96875 2455.242188 L 685.96875 2293.40625 L 678.722656 2293.40625 " fill-opacity="1" fill-rule="nonzero"/><g clip-path="url(#3c25383f5a)"><path fill="#ffffff" d="M 540.382812 2539.320312 L 822.519531 2702.195312 L 1104.679688 2539.320312 L 1101.03125 2533.019531 L 822.519531 2693.816406 L 544.03125 2533.019531 L 540.382812 2539.320312 " fill-opacity="1" fill-rule="nonzero"/></g><g clip-path="url(#e9127c8529)"><path fill="#ffffff" d="M 678.722656 2455.242188 L 678.722656 2617.101562 L 685.96875 2617.101562 L 685.96875 2455.242188 L 678.722656 2455.242188 " fill-opacity="1" fill-rule="nonzero"/></g><path fill="#ffffff" d="M 540.382812 2047.46875 L 400.234375 2128.410156 L 403.855469 2134.710938 L 544.03125 2053.769531 L 540.382812 2047.46875 " fill-opacity="1" fill-rule="nonzero"/><path fill="#ffffff" d="M 260.058594 1891.914062 L 400.234375 1972.855469 L 403.832031 1966.550781 L 263.683594 1885.636719 L 260.058594 1891.914062 " fill-opacity="1" fill-rule="nonzero"/><path fill="#ffffff" d="M 260.058594 2053.769531 L 400.234375 2134.710938 L 403.855469 2128.410156 L 263.707031 2047.46875 L 260.058594 2053.769531 " fill-opacity="1" fill-rule="nonzero"/><path fill="#ffffff" d="M 260.058594 2047.46875 L 121.648438 2127.394531 L 121.648438 2135.773438 L 263.683594 2053.769531 L 260.058594 2047.46875 " fill-opacity="1" fill-rule="nonzero"/><path fill="#ffffff" d="M 400.234375 2128.410156 L 123.386719 2288.238281 L 123.386719 2296.617188 L 403.855469 2134.710938 L 400.234375 2128.410156 " fill-opacity="1" fill-rule="nonzero"/><path fill="#ffffff" d="M 400.234375 2296.546875 L 540.382812 2377.464844 L 544.03125 2371.160156 L 403.855469 2290.246094 L 400.234375 2296.546875 " fill-opacity="1" fill-rule="nonzero"/><g clip-path="url(#560c1891d0)"><path fill="#ffffff" d="M 398.398438 2293.40625 L 398.398438 2617.101562 L 405.667969 2617.101562 L 405.667969 2293.40625 L 398.398438 2293.40625 " fill-opacity="1" fill-rule="nonzero"/></g><path fill="#ffffff" d="M 540.382812 2371.160156 L 400.234375 2452.101562 L 403.855469 2458.378906 L 544.03125 2377.464844 L 540.382812 2371.160156 " fill-opacity="1" fill-rule="nonzero"/><path fill="#ffffff" d="M 400.234375 2458.378906 L 540.382812 2539.320312 L 544.03125 2533.019531 L 403.855469 2452.101562 L 400.234375 2458.378906 " fill-opacity="1" fill-rule="nonzero"/><path fill="#ffffff" d="M 258.25 2212.464844 L 258.25 2374.324219 L 265.515625 2374.324219 L 265.515625 2212.464844 L 258.25 2212.464844 " fill-opacity="1" fill-rule="nonzero"/><path fill="#ffffff" d="M 258.25 2374.324219 L 258.25 2536.160156 L 265.492188 2536.160156 L 265.515625 2374.324219 L 258.25 2374.324219 " fill-opacity="1" fill-rule="nonzero"/><g clip-path="url(#7b2805f629)"><path fill="#ffffff" d="M 400.234375 2452.101562 L 118.074219 2615 L 121.695312 2940.792969 L 125.296875 2619.226562 L 403.855469 2458.40625 L 400.234375 2452.101562 " fill-opacity="1" fill-rule="nonzero"/></g><g clip-path="url(#d473c24de1)"><path fill="#ffffff" d="M 260.058594 2539.320312 L 400.234375 2620.238281 L 403.855469 2613.9375 L 263.707031 2533.019531 L 260.058594 2539.320312 " fill-opacity="1" fill-rule="nonzero"/></g><path fill="#ffffff" d="M 1519.695312 2293.40625 L 1519.695312 2455.242188 L 1526.964844 2455.242188 L 1526.964844 2293.40625 L 1519.695312 2293.40625 " fill-opacity="1" fill-rule="nonzero"/><g clip-path="url(#5dde6b5bbd)"><path fill="#ffffff" d="M 538.574219 2536.160156 L 542.195312 2940.769531 L 545.839844 2536.160156 L 538.574219 2536.160156 " fill-opacity="1" fill-rule="nonzero"/></g><g clip-path="url(#38934f6bd1)"><path fill="#ffffff" d="M 258.25 2536.160156 L 261.894531 2940.769531 L 265.492188 2536.160156 L 258.25 2536.160156 " fill-opacity="1" fill-rule="nonzero"/></g><path fill="#ffffff" d="M 3208.90625 2291.332031 C 3164.597656 2265.757812 3109.421875 2233.859375 3065.109375 2208.289062 C 3017.15625 2235.9375 2969.222656 2263.609375 2921.316406 2291.332031 C 2921.265625 2346.652344 2921.265625 2401.996094 2921.316406 2457.34375 L 2923.125 2458.40625 L 3065.109375 2540.359375 C 3109.398438 2514.765625 3164.597656 2482.890625 3208.90625 2457.34375 C 3208.90625 2401.996094 3208.90625 2346.652344 3208.90625 2291.332031 Z M 3201.613281 2295.484375 L 3201.613281 2453.164062 L 3065.109375 2531.980469 L 2928.582031 2453.140625 L 2928.582031 2295.484375 L 3065.109375 2216.667969 L 3201.613281 2295.484375 " fill-opacity="1" fill-rule="evenodd"/><g fill="#ffffff" fill-opacity="1"><g transform="translate(1000.84371, 1396.482988)"><g><path d="M 284.09375 -201.46875 L 224.375 0 L 186.984375 0 L 144.65625 -152.484375 L 99.71875 0 L 62.609375 0.296875 L 5.515625 -201.46875 L 40.578125 -201.46875 L 82.328125 -37.390625 L 127.546875 -201.46875 L 164.65625 -201.46875 L 206.6875 -38.265625 L 248.71875 -201.46875 Z M 284.09375 -201.46875 "/></g></g></g><g fill="#ffffff" fill-opacity="1"><g transform="translate(1290.436527, 1396.482988)"><g><path d="M 168.140625 -83.78125 C 168.140625 -77.789062 167.753906 -72.378906 166.984375 -67.546875 L 44.9375 -67.546875 C 45.894531 -54.785156 50.625 -44.539062 59.125 -36.8125 C 67.632812 -29.082031 78.078125 -25.21875 90.453125 -25.21875 C 108.222656 -25.21875 120.78125 -32.660156 128.125 -47.546875 L 163.78125 -47.546875 C 158.957031 -32.859375 150.210938 -20.828125 137.546875 -11.453125 C 124.890625 -2.078125 109.191406 2.609375 90.453125 2.609375 C 75.179688 2.609375 61.503906 -0.816406 49.421875 -7.671875 C 37.347656 -14.535156 27.878906 -24.203125 21.015625 -36.671875 C 14.148438 -49.140625 10.71875 -63.585938 10.71875 -80.015625 C 10.71875 -96.441406 14.050781 -110.882812 20.71875 -123.34375 C 27.394531 -135.8125 36.769531 -145.425781 48.84375 -152.1875 C 60.925781 -158.957031 74.796875 -162.34375 90.453125 -162.34375 C 105.523438 -162.34375 118.953125 -159.054688 130.734375 -152.484375 C 142.523438 -145.910156 151.707031 -136.679688 158.28125 -124.796875 C 164.851562 -112.910156 168.140625 -99.238281 168.140625 -83.78125 Z M 133.640625 -94.21875 C 133.441406 -106.394531 129.09375 -116.15625 120.59375 -123.5 C 112.09375 -130.84375 101.5625 -134.515625 89 -134.515625 C 77.59375 -134.515625 67.832031 -130.890625 59.71875 -123.640625 C 51.601562 -116.390625 46.769531 -106.582031 45.21875 -94.21875 Z M 133.640625 -94.21875 "/></g></g></g><g fill="#ffffff" fill-opacity="1"><g transform="translate(1469.294131, 1396.482988)"><g><path d="M 54.796875 -214.515625 L 54.796875 0 L 21.734375 0 L 21.734375 -214.515625 Z M 54.796875 -214.515625 "/></g></g></g><g fill="#ffffff" fill-opacity="1"><g transform="translate(1545.823105, 1396.482988)"><g><path d="M 10.71875 -80.015625 C 10.71875 -96.441406 14.050781 -110.882812 20.71875 -123.34375 C 27.394531 -135.8125 36.625 -145.425781 48.40625 -152.1875 C 60.195312 -158.957031 73.726562 -162.34375 89 -162.34375 C 108.320312 -162.34375 124.3125 -157.75 136.96875 -148.5625 C 149.632812 -139.382812 158.1875 -126.289062 162.625 -109.28125 L 126.96875 -109.28125 C 124.070312 -117.207031 119.429688 -123.394531 113.046875 -127.84375 C 106.671875 -132.289062 98.65625 -134.515625 89 -134.515625 C 75.46875 -134.515625 64.691406 -129.726562 56.671875 -120.15625 C 48.648438 -110.59375 44.640625 -97.210938 44.640625 -80.015625 C 44.640625 -62.804688 48.648438 -49.367188 56.671875 -39.703125 C 64.691406 -30.046875 75.46875 -25.21875 89 -25.21875 C 108.132812 -25.21875 120.789062 -33.625 126.96875 -50.4375 L 162.625 -50.4375 C 157.988281 -34.207031 149.289062 -21.304688 136.53125 -11.734375 C 123.78125 -2.171875 107.9375 2.609375 89 2.609375 C 73.726562 2.609375 60.195312 -0.816406 48.40625 -7.671875 C 36.625 -14.535156 27.394531 -24.203125 20.71875 -36.671875 C 14.050781 -49.140625 10.71875 -63.585938 10.71875 -80.015625 Z M 10.71875 -80.015625 "/></g></g></g><g fill="#ffffff" fill-opacity="1"><g transform="translate(1719.752703, 1396.482988)"><g><path d="M 91.03125 2.609375 C 75.957031 2.609375 62.332031 -0.816406 50.15625 -7.671875 C 37.976562 -14.535156 28.410156 -24.203125 21.453125 -36.671875 C 14.492188 -49.140625 11.015625 -63.585938 11.015625 -80.015625 C 11.015625 -96.242188 14.585938 -110.640625 21.734375 -123.203125 C 28.890625 -135.765625 38.648438 -145.425781 51.015625 -152.1875 C 63.390625 -158.957031 77.207031 -162.34375 92.46875 -162.34375 C 107.738281 -162.34375 121.554688 -158.957031 133.921875 -152.1875 C 146.296875 -145.425781 156.054688 -135.765625 163.203125 -123.203125 C 170.359375 -110.640625 173.9375 -96.242188 173.9375 -80.015625 C 173.9375 -63.773438 170.265625 -49.375 162.921875 -36.8125 C 155.578125 -24.25 145.570312 -14.535156 132.90625 -7.671875 C 120.25 -0.816406 106.289062 2.609375 91.03125 2.609375 Z M 91.03125 -26.09375 C 99.53125 -26.09375 107.5 -28.117188 114.9375 -32.171875 C 122.382812 -36.234375 128.425781 -42.320312 133.0625 -50.4375 C 137.695312 -58.550781 140.015625 -68.410156 140.015625 -80.015625 C 140.015625 -91.609375 137.789062 -101.414062 133.34375 -109.4375 C 128.90625 -117.457031 123.015625 -123.492188 115.671875 -127.546875 C 108.328125 -131.609375 100.398438 -133.640625 91.890625 -133.640625 C 83.390625 -133.640625 75.515625 -131.609375 68.265625 -127.546875 C 61.015625 -123.492188 55.265625 -117.457031 51.015625 -109.4375 C 46.765625 -101.414062 44.640625 -91.609375 44.640625 -80.015625 C 44.640625 -62.804688 49.035156 -49.515625 57.828125 -40.140625 C 66.617188 -30.773438 77.6875 -26.09375 91.03125 -26.09375 Z M 91.03125 -26.09375 "/></g></g></g><g fill="#ffffff" fill-opacity="1"><g transform="translate(1904.697793, 1396.482988)"><g><path d="M 215.09375 -162.34375 C 227.65625 -162.34375 238.910156 -159.734375 248.859375 -154.515625 C 258.816406 -149.296875 266.644531 -141.5625 272.34375 -131.3125 C 278.050781 -121.070312 280.90625 -108.707031 280.90625 -94.21875 L 280.90625 0 L 248.140625 0 L 248.140625 -89.28125 C 248.140625 -103.582031 244.5625 -114.550781 237.40625 -122.1875 C 230.257812 -129.820312 220.503906 -133.640625 208.140625 -133.640625 C 195.773438 -133.640625 185.96875 -129.820312 178.71875 -122.1875 C 171.46875 -114.550781 167.84375 -103.582031 167.84375 -89.28125 L 167.84375 0 L 135.09375 0 L 135.09375 -89.28125 C 135.09375 -103.582031 131.515625 -114.550781 124.359375 -122.1875 C 117.210938 -129.820312 107.453125 -133.640625 95.078125 -133.640625 C 82.710938 -133.640625 72.90625 -129.820312 65.65625 -122.1875 C 58.414062 -114.550781 54.796875 -103.582031 54.796875 -89.28125 L 54.796875 0 L 21.734375 0 L 21.734375 -159.734375 L 54.796875 -159.734375 L 54.796875 -141.46875 C 60.203125 -148.039062 67.0625 -153.160156 75.375 -156.828125 C 83.6875 -160.503906 92.578125 -162.34375 102.046875 -162.34375 C 114.796875 -162.34375 126.195312 -159.632812 136.25 -154.21875 C 146.300781 -148.8125 154.03125 -140.984375 159.4375 -130.734375 C 164.269531 -140.398438 171.804688 -148.082031 182.046875 -153.78125 C 192.296875 -159.488281 203.3125 -162.34375 215.09375 -162.34375 Z M 215.09375 -162.34375 "/></g></g></g><g fill="#ffffff" fill-opacity="1"><g transform="translate(2205.885839, 1396.482988)"><g><path d="M 168.140625 -83.78125 C 168.140625 -77.789062 167.753906 -72.378906 166.984375 -67.546875 L 44.9375 -67.546875 C 45.894531 -54.785156 50.625 -44.539062 59.125 -36.8125 C 67.632812 -29.082031 78.078125 -25.21875 90.453125 -25.21875 C 108.222656 -25.21875 120.78125 -32.660156 128.125 -47.546875 L 163.78125 -47.546875 C 158.957031 -32.859375 150.210938 -20.828125 137.546875 -11.453125 C 124.890625 -2.078125 109.191406 2.609375 90.453125 2.609375 C 75.179688 2.609375 61.503906 -0.816406 49.421875 -7.671875 C 37.347656 -14.535156 27.878906 -24.203125 21.015625 -36.671875 C 14.148438 -49.140625 10.71875 -63.585938 10.71875 -80.015625 C 10.71875 -96.441406 14.050781 -110.882812 20.71875 -123.34375 C 27.394531 -135.8125 36.769531 -145.425781 48.84375 -152.1875 C 60.925781 -158.957031 74.796875 -162.34375 90.453125 -162.34375 C 105.523438 -162.34375 118.953125 -159.054688 130.734375 -152.484375 C 142.523438 -145.910156 151.707031 -136.679688 158.28125 -124.796875 C 164.851562 -112.910156 168.140625 -99.238281 168.140625 -83.78125 Z M 133.640625 -94.21875 C 133.441406 -106.394531 129.09375 -116.15625 120.59375 -123.5 C 112.09375 -130.84375 101.5625 -134.515625 89 -134.515625 C 77.59375 -134.515625 67.832031 -130.890625 59.71875 -123.640625 C 51.601562 -116.390625 46.769531 -106.582031 45.21875 -94.21875 Z M 133.640625 -94.21875 "/></g></g></g><g fill="#ffffff" fill-opacity="1"><g transform="translate(2384.743465, 1396.482988)"><g/></g></g><g fill="#ffffff" fill-opacity="1"><g transform="translate(2460.112914, 1396.482988)"><g><path d="M 60.296875 -132.765625 L 60.296875 -44.359375 C 60.296875 -38.359375 61.695312 -34.054688 64.5 -31.453125 C 67.300781 -28.847656 72.082031 -27.546875 78.84375 -27.546875 L 99.140625 -27.546875 L 99.140625 0 L 73.046875 0 C 58.171875 0 46.769531 -3.476562 38.84375 -10.4375 C 30.914062 -17.394531 26.953125 -28.703125 26.953125 -44.359375 L 26.953125 -132.765625 L 8.109375 -132.765625 L 8.109375 -159.734375 L 26.953125 -159.734375 L 26.953125 -199.4375 L 60.296875 -199.4375 L 60.296875 -159.734375 L 99.140625 -159.734375 L 99.140625 -132.765625 Z M 60.296875 -132.765625 "/></g></g></g><g fill="#ffffff" fill-opacity="1"><g transform="translate(2567.949266, 1396.482988)"><g><path d="M 91.03125 2.609375 C 75.957031 2.609375 62.332031 -0.816406 50.15625 -7.671875 C 37.976562 -14.535156 28.410156 -24.203125 21.453125 -36.671875 C 14.492188 -49.140625 11.015625 -63.585938 11.015625 -80.015625 C 11.015625 -96.242188 14.585938 -110.640625 21.734375 -123.203125 C 28.890625 -135.765625 38.648438 -145.425781 51.015625 -152.1875 C 63.390625 -158.957031 77.207031 -162.34375 92.46875 -162.34375 C 107.738281 -162.34375 121.554688 -158.957031 133.921875 -152.1875 C 146.296875 -145.425781 156.054688 -135.765625 163.203125 -123.203125 C 170.359375 -110.640625 173.9375 -96.242188 173.9375 -80.015625 C 173.9375 -63.773438 170.265625 -49.375 162.921875 -36.8125 C 155.578125 -24.25 145.570312 -14.535156 132.90625 -7.671875 C 120.25 -0.816406 106.289062 2.609375 91.03125 2.609375 Z M 91.03125 -26.09375 C 99.53125 -26.09375 107.5 -28.117188 114.9375 -32.171875 C 122.382812 -36.234375 128.425781 -42.320312 133.0625 -50.4375 C 137.695312 -58.550781 140.015625 -68.410156 140.015625 -80.015625 C 140.015625 -91.609375 137.789062 -101.414062 133.34375 -109.4375 C 128.90625 -117.457031 123.015625 -123.492188 115.671875 -127.546875 C 108.328125 -131.609375 100.398438 -133.640625 91.890625 -133.640625 C 83.390625 -133.640625 75.515625 -131.609375 68.265625 -127.546875 C 61.015625 -123.492188 55.265625 -117.457031 51.015625 -109.4375 C 46.765625 -101.414062 44.640625 -91.609375 44.640625 -80.015625 C 44.640625 -62.804688 49.035156 -49.515625 57.828125 -40.140625 C 66.617188 -30.773438 77.6875 -26.09375 91.03125 -26.09375 Z M 91.03125 -26.09375 "/></g></g></g><g fill="#ffffff" fill-opacity="1"><g transform="translate(2752.894446, 1396.482988)"><g/></g></g><g fill="#ffffff" fill-opacity="1"><g transform="translate(2828.275307, 1396.482988)"><g><path d="M 10.140625 -101.46875 C 10.140625 -121.375 14.632812 -139.203125 23.625 -154.953125 C 32.613281 -170.703125 44.882812 -182.972656 60.4375 -191.765625 C 76 -200.554688 93.441406 -204.953125 112.765625 -204.953125 C 135.378906 -204.953125 155.1875 -199.15625 172.1875 -187.5625 C 189.195312 -175.96875 201.082031 -159.925781 207.84375 -139.4375 L 161.171875 -139.4375 C 156.535156 -149.101562 150.015625 -156.347656 141.609375 -161.171875 C 133.203125 -166.003906 123.492188 -168.421875 112.484375 -168.421875 C 100.691406 -168.421875 90.203125 -165.664062 81.015625 -160.15625 C 71.835938 -154.65625 64.6875 -146.878906 59.5625 -136.828125 C 54.445312 -126.773438 51.890625 -114.988281 51.890625 -101.46875 C 51.890625 -88.125 54.445312 -76.378906 59.5625 -66.234375 C 64.6875 -56.085938 71.835938 -48.257812 81.015625 -42.75 C 90.203125 -37.25 100.691406 -34.5 112.484375 -34.5 C 123.492188 -34.5 133.203125 -36.960938 141.609375 -41.890625 C 150.015625 -46.816406 156.535156 -54.113281 161.171875 -63.78125 L 207.84375 -63.78125 C 201.082031 -43.09375 189.242188 -27 172.328125 -15.5 C 155.421875 -4.007812 135.566406 1.734375 112.765625 1.734375 C 93.441406 1.734375 76 -2.660156 60.4375 -11.453125 C 44.882812 -20.242188 32.613281 -32.46875 23.625 -48.125 C 14.632812 -63.78125 10.140625 -81.5625 10.140625 -101.46875 Z M 10.140625 -101.46875 "/></g></g></g><g fill="#ffffff" fill-opacity="1"><g transform="translate(3050.905191, 1396.482988)"><g><path d="M 157.703125 -202.34375 L 157.703125 -169.59375 L 103.78125 -169.59375 L 103.78125 0 L 63.203125 0 L 63.203125 -169.59375 L 9.28125 -169.59375 L 9.28125 -202.34375 Z M 157.703125 -202.34375 "/></g></g></g><g fill="#ffffff" fill-opacity="1"><g transform="translate(3218.167447, 1396.482988)"><g><path d="M 144.9375 -202.34375 L 144.9375 -169.59375 L 60.59375 -169.59375 L 60.59375 -117.703125 L 125.234375 -117.703125 L 125.234375 -85.515625 L 60.59375 -85.515625 L 60.59375 0 L 20 0 L 20 -202.34375 Z M 144.9375 -202.34375 "/></g></g></g><g fill="#ffffff" fill-opacity="1"><g transform="translate(3371.805247, 1396.482988)"><g><path d="M 160.890625 -141.46875 C 156.253906 -149.96875 149.875 -156.441406 141.75 -160.890625 C 133.632812 -165.335938 124.164062 -167.5625 113.34375 -167.5625 C 101.363281 -167.5625 90.734375 -164.851562 81.453125 -159.4375 C 72.179688 -154.03125 64.9375 -146.300781 59.71875 -136.25 C 54.5 -126.195312 51.890625 -114.601562 51.890625 -101.46875 C 51.890625 -87.9375 54.546875 -76.144531 59.859375 -66.09375 C 65.171875 -56.039062 72.5625 -48.304688 82.03125 -42.890625 C 91.507812 -37.484375 102.53125 -34.78125 115.09375 -34.78125 C 130.550781 -34.78125 143.207031 -38.882812 153.0625 -47.09375 C 162.914062 -55.3125 169.390625 -66.765625 172.484375 -81.453125 L 102.90625 -81.453125 L 102.90625 -112.484375 L 212.484375 -112.484375 L 212.484375 -77.109375 C 209.785156 -63.003906 203.988281 -49.957031 195.09375 -37.96875 C 186.207031 -25.988281 174.757812 -16.375 160.75 -9.125 C 146.738281 -1.882812 131.035156 1.734375 113.640625 1.734375 C 94.117188 1.734375 76.484375 -2.660156 60.734375 -11.453125 C 44.984375 -20.242188 32.613281 -32.46875 23.625 -48.125 C 14.632812 -63.78125 10.140625 -81.5625 10.140625 -101.46875 C 10.140625 -121.375 14.632812 -139.203125 23.625 -154.953125 C 32.613281 -170.703125 44.984375 -182.972656 60.734375 -191.765625 C 76.484375 -200.554688 94.019531 -204.953125 113.34375 -204.953125 C 136.144531 -204.953125 155.953125 -199.394531 172.765625 -188.28125 C 189.585938 -177.164062 201.1875 -161.5625 207.5625 -141.46875 Z M 160.890625 -141.46875 "/></g></g></g><g fill="#ffffff" fill-opacity="1"><g transform="translate(3594.435109, 1396.482988)"><g><path d="M 171.609375 -160.59375 L 171.609375 0 L 130.734375 0 L 130.734375 -20.296875 C 125.515625 -13.335938 118.703125 -7.875 110.296875 -3.90625 C 101.890625 0.0507812 92.757812 2.03125 82.90625 2.03125 C 70.34375 2.03125 59.226562 -0.625 49.5625 -5.9375 C 39.90625 -11.257812 32.320312 -19.085938 26.8125 -29.421875 C 21.300781 -39.765625 18.546875 -52.085938 18.546875 -66.390625 L 18.546875 -160.59375 L 59.140625 -160.59375 L 59.140625 -72.1875 C 59.140625 -59.425781 62.328125 -49.613281 68.703125 -42.75 C 75.078125 -35.894531 83.773438 -32.46875 94.796875 -32.46875 C 106.003906 -32.46875 114.796875 -35.894531 121.171875 -42.75 C 127.546875 -49.613281 130.734375 -59.425781 130.734375 -72.1875 L 130.734375 -160.59375 Z M 171.609375 -160.59375 "/></g></g></g><g fill="#ffffff" fill-opacity="1"><g transform="translate(3786.047519, 1396.482988)"><g><path d="M 40.578125 -179.734375 C 33.429688 -179.734375 27.488281 -182.003906 22.75 -186.546875 C 18.019531 -191.085938 15.65625 -196.738281 15.65625 -203.5 C 15.65625 -210.269531 18.019531 -215.925781 22.75 -220.46875 C 27.488281 -225.007812 33.429688 -227.28125 40.578125 -227.28125 C 47.734375 -227.28125 53.675781 -225.007812 58.40625 -220.46875 C 63.144531 -215.925781 65.515625 -210.269531 65.515625 -203.5 C 65.515625 -196.738281 63.144531 -191.085938 58.40625 -186.546875 C 53.675781 -182.003906 47.734375 -179.734375 40.578125 -179.734375 Z M 60.59375 -160.59375 L 60.59375 0 L 20 0 L 20 -160.59375 Z M 60.59375 -160.59375 "/></g></g></g><g fill="#ffffff" fill-opacity="1"><g transform="translate(3866.634924, 1396.482988)"><g><path d="M 9.5625 -80.875 C 9.5625 -97.113281 12.796875 -111.515625 19.265625 -124.078125 C 25.742188 -136.640625 34.585938 -146.300781 45.796875 -153.0625 C 57.003906 -159.820312 69.472656 -163.203125 83.203125 -163.203125 C 93.640625 -163.203125 103.59375 -160.929688 113.0625 -156.390625 C 122.53125 -151.847656 130.066406 -145.8125 135.671875 -138.28125 L 135.671875 -214.515625 L 176.828125 -214.515625 L 176.828125 0 L 135.671875 0 L 135.671875 -23.765625 C 130.640625 -15.847656 123.582031 -9.472656 114.5 -4.640625 C 105.414062 0.191406 94.882812 2.609375 82.90625 2.609375 C 69.375 2.609375 57.003906 -0.867188 45.796875 -7.828125 C 34.585938 -14.785156 25.742188 -24.59375 19.265625 -37.25 C 12.796875 -49.90625 9.5625 -64.445312 9.5625 -80.875 Z M 135.953125 -80.296875 C 135.953125 -90.148438 134.019531 -98.601562 130.15625 -105.65625 C 126.289062 -112.71875 121.070312 -118.128906 114.5 -121.890625 C 107.9375 -125.660156 100.882812 -127.546875 93.34375 -127.546875 C 85.800781 -127.546875 78.84375 -125.707031 72.46875 -122.03125 C 66.09375 -118.363281 60.921875 -113.003906 56.953125 -105.953125 C 52.992188 -98.898438 51.015625 -90.539062 51.015625 -80.875 C 51.015625 -71.21875 52.992188 -62.765625 56.953125 -55.515625 C 60.921875 -48.265625 66.140625 -42.707031 72.609375 -38.84375 C 79.085938 -34.976562 86 -33.046875 93.34375 -33.046875 C 100.882812 -33.046875 107.9375 -34.929688 114.5 -38.703125 C 121.070312 -42.472656 126.289062 -47.882812 130.15625 -54.9375 C 134.019531 -61.988281 135.953125 -70.441406 135.953125 -80.296875 Z M 135.953125 -80.296875 "/></g></g></g><g fill="#ffffff" fill-opacity="1"><g transform="translate(4063.175363, 1396.482988)"><g><path d="M 169.296875 -83.78125 C 169.296875 -77.976562 168.910156 -72.757812 168.140625 -68.125 L 50.734375 -68.125 C 51.703125 -56.53125 55.757812 -47.445312 62.90625 -40.875 C 70.050781 -34.300781 78.84375 -31.015625 89.28125 -31.015625 C 104.351562 -31.015625 115.082031 -37.488281 121.46875 -50.4375 L 165.234375 -50.4375 C 160.597656 -34.976562 151.707031 -22.269531 138.5625 -12.3125 C 125.425781 -2.363281 109.289062 2.609375 90.15625 2.609375 C 74.695312 2.609375 60.832031 -0.816406 48.5625 -7.671875 C 36.289062 -14.535156 26.722656 -24.25 19.859375 -36.8125 C 12.992188 -49.375 9.5625 -63.867188 9.5625 -80.296875 C 9.5625 -96.921875 12.941406 -111.515625 19.703125 -124.078125 C 26.472656 -136.640625 35.945312 -146.300781 48.125 -153.0625 C 60.300781 -159.820312 74.3125 -163.203125 90.15625 -163.203125 C 105.425781 -163.203125 119.097656 -159.914062 131.171875 -153.34375 C 143.253906 -146.78125 152.628906 -137.457031 159.296875 -125.375 C 165.960938 -113.300781 169.296875 -99.4375 169.296875 -83.78125 Z M 127.265625 -95.375 C 127.066406 -105.8125 123.296875 -114.171875 115.953125 -120.453125 C 108.609375 -126.734375 99.625 -129.875 89 -129.875 C 78.945312 -129.875 70.488281 -126.828125 63.625 -120.734375 C 56.769531 -114.648438 52.566406 -106.195312 51.015625 -95.375 Z M 127.265625 -95.375 "/></g></g></g><path fill="#ffffff" d="M 5141.652344 300.925781 L 4999.910156 219.066406 L 4999.910156 55.105469 L 5007.152344 55.105469 L 5007.152344 214.863281 L 5141.652344 292.519531 L 5141.652344 300.925781 " fill-opacity="1" fill-rule="nonzero"/><path fill="#ffffff" d="M 4861.546875 294.742188 L 5001.695312 213.824219 L 5005.34375 220.105469 L 4865.191406 301.019531 L 4861.546875 294.742188 " fill-opacity="1" fill-rule="nonzero"/><path fill="#ffffff" d="M 5001.695312 213.824219 L 5141.773438 132.957031 L 5141.773438 141.335938 L 5005.34375 220.105469 L 5001.695312 213.824219 " fill-opacity="1" fill-rule="nonzero"/><path fill="#ffffff" d="M 5001.722656 51.96875 L 5140.035156 -27.886719 L 5143.632812 -349.453125 L 5147.328125 -23.710938 L 5005.34375 58.269531 L 5001.722656 51.96875 " fill-opacity="1" fill-rule="nonzero"/><path fill="#ffffff" d="M 5003.53125 -349.480469 L 5007.152344 55.105469 L 4999.910156 55.105469 L 5003.53125 -349.480469 " fill-opacity="1" fill-rule="nonzero"/><path fill="#ffffff" d="M 4859.734375 133.945312 L 4863.359375 -349.480469 L 4867.003906 136.046875 L 4859.734375 133.945312 " fill-opacity="1" fill-rule="nonzero"/><path fill="#ffffff" d="M 4586.679688 457.640625 L 4723.207031 536.457031 L 4859.710938 457.640625 L 4859.710938 299.957031 L 4586.679688 142.324219 Z M 4721.398438 543.796875 L 4579.410156 461.816406 C 4579.292969 351.125 4579.363281 240.4375 4579.410156 129.746094 C 4675.25 185.113281 4771.089844 240.507812 4867.003906 295.804688 L 4867.003906 461.816406 L 4723.207031 544.835938 L 4721.398438 543.796875 " fill-opacity="1" fill-rule="nonzero"/><path fill="#ffffff" d="M 4865.191406 301.019531 L 4725.019531 381.9375 L 4721.398438 375.660156 L 4861.546875 294.742188 L 4865.191406 301.019531 " fill-opacity="1" fill-rule="nonzero"/><path fill="#ffffff" d="M 4584.84375 294.742188 L 4725.019531 375.660156 L 4721.398438 381.9375 L 4581.246094 301.019531 L 4584.84375 294.742188 " fill-opacity="1" fill-rule="nonzero"/><path fill="#ffffff" d="M 4861.546875 462.878906 L 4721.398438 381.9375 L 4725.019531 375.660156 L 4865.191406 456.578125 L 4861.546875 462.878906 " fill-opacity="1" fill-rule="nonzero"/><path fill="#ffffff" d="M 4581.222656 456.578125 L 4721.398438 375.660156 L 4725.019531 381.9375 L 4584.867188 462.878906 L 4581.222656 456.578125 " fill-opacity="1" fill-rule="nonzero"/><path fill="#ffffff" d="M 4719.585938 378.796875 L 4719.585938 216.964844 L 4726.828125 216.964844 L 4726.828125 378.796875 L 4719.585938 378.796875 " fill-opacity="1" fill-rule="nonzero"/><path fill="#ffffff" d="M 4719.585938 216.964844 L 4723.207031 -349.480469 L 4726.828125 216.964844 L 4719.585938 216.964844 " fill-opacity="1" fill-rule="nonzero"/><path fill="#ffffff" d="M 4309.976562 136.046875 L 4442.882812 212.789062 L 4575.789062 136.046875 L 4442.882812 59.308594 Z M 4441.074219 220.105469 L 4295.464844 136.046875 L 4442.882812 50.929688 L 4590.300781 136.046875 L 4442.882812 221.140625 L 4441.074219 220.105469 " fill-opacity="1" fill-rule="nonzero"/><path fill="#ffffff" d="M 4579.410156 136.046875 L 4579.410156 -25.8125 L 4586.679688 -25.8125 L 4586.679688 136.046875 L 4579.410156 136.046875 " fill-opacity="1" fill-rule="nonzero"/><path fill="#ffffff" d="M 4441.046875 51.96875 L 4581.222656 -28.949219 L 4584.867188 -22.671875 L 4444.695312 58.269531 L 4441.046875 51.96875 " fill-opacity="1" fill-rule="nonzero"/><path fill="#ffffff" d="M 4304.519531 301.019531 L 4162.558594 383 C 4114.605469 355.351562 4066.695312 327.65625 4018.765625 299.984375 L 4018.765625 133.945312 C 4066.695312 106.324219 4114.605469 78.601562 4162.558594 50.929688 C 4210.46875 78.648438 4258.398438 106.324219 4306.355469 133.945312 C 4306.355469 189.292969 4306.308594 244.636719 4306.355469 299.984375 Z M 4162.558594 374.621094 L 4299.0625 295.804688 L 4299.0625 138.125 L 4162.558594 59.308594 L 4026.03125 138.125 L 4026.03125 295.804688 L 4162.558594 374.621094 " fill-opacity="1" fill-rule="nonzero"/><path fill="#ffffff" d="M 4020.597656 294.742188 L 4160.75 213.824219 L 4164.371094 220.105469 L 4024.195312 301.019531 L 4020.597656 294.742188 " fill-opacity="1" fill-rule="nonzero"/><path fill="#ffffff" d="M 4300.898438 301.019531 L 4160.75 220.105469 L 4164.371094 213.824219 L 4304.546875 294.742188 L 4300.898438 301.019531 " fill-opacity="1" fill-rule="nonzero"/><path fill="#ffffff" d="M 4160.726562 220.105469 L 4020.574219 139.1875 L 4024.222656 132.882812 L 4164.371094 213.824219 L 4160.726562 220.105469 " fill-opacity="1" fill-rule="nonzero"/><path fill="#ffffff" d="M 4160.726562 213.824219 L 4300.898438 132.882812 L 4304.546875 139.1875 L 4164.371094 220.105469 L 4160.726562 213.824219 " fill-opacity="1" fill-rule="nonzero"/><path fill="#ffffff" d="M 4158.9375 216.964844 L 4158.9375 55.128906 L 4166.183594 55.128906 L 4166.183594 216.964844 L 4158.9375 216.964844 " fill-opacity="1" fill-rule="nonzero"/><path fill="#ffffff" d="M 4439.238281 55.128906 L 4442.882812 -349.480469 L 4446.507812 55.128906 L 4439.238281 55.128906 " fill-opacity="1" fill-rule="nonzero"/><path fill="#ffffff" d="M 4160.726562 51.96875 L 4300.898438 -28.949219 L 4304.546875 -22.648438 L 4164.371094 58.269531 L 4160.726562 51.96875 " fill-opacity="1" fill-rule="nonzero"/><path fill="#ffffff" d="M 3740.273438 -28.949219 L 3882.234375 -110.90625 C 3930.144531 -83.207031 3978.101562 -55.535156 4026.03125 -27.886719 L 4026.03125 138.125 C 3978.125 165.820312 3930.167969 193.46875 3882.234375 221.167969 C 3834.304688 193.492188 3786.371094 165.796875 3738.441406 138.125 L 3738.441406 -27.886719 Z M 3882.234375 -102.550781 L 3745.707031 -23.710938 L 3745.707031 133.972656 L 3882.234375 212.789062 L 4018.765625 133.945312 L 4018.765625 -23.710938 L 3882.234375 -102.550781 " fill-opacity="1" fill-rule="nonzero"/><path fill="#ffffff" d="M 4020.597656 139.1875 L 3878.613281 57.207031 L 3878.613281 -106.726562 L 3885.859375 -106.726562 L 3885.859375 53.03125 L 4024.195312 132.882812 L 4020.597656 139.1875 " fill-opacity="1" fill-rule="nonzero"/><path fill="#ffffff" d="M 4020.574219 -28.949219 L 4162.558594 -110.929688 C 4210.46875 -83.230469 4258.398438 -55.558594 4306.332031 -27.910156 L 4306.332031 136.046875 L 4299.085938 136.046875 L 4299.085938 -23.710938 L 4162.558594 -102.527344 L 4024.222656 -22.671875 L 4020.574219 -28.949219 " fill-opacity="1" fill-rule="nonzero"/><path fill="#ffffff" d="M 3745.707031 136.046875 L 3745.707031 457.640625 L 3882.234375 536.457031 L 4018.765625 457.640625 L 4018.765625 297.882812 L 4026.03125 297.882812 L 4026.03125 461.816406 L 3882.234375 544.859375 C 3834.304688 517.1875 3786.347656 489.539062 3738.464844 461.839844 L 3738.441406 136.046875 L 3745.707031 136.046875 " fill-opacity="1" fill-rule="nonzero"/><path fill="#ffffff" d="M 4020.597656 462.878906 L 3880.425781 381.960938 L 3884.046875 375.660156 L 4024.195312 456.578125 L 4020.597656 462.878906 " fill-opacity="1" fill-rule="nonzero"/><path fill="#ffffff" d="M 3740.273438 456.578125 L 3880.425781 375.660156 L 3884.046875 381.960938 L 3743.898438 462.878906 L 3740.273438 456.578125 " fill-opacity="1" fill-rule="nonzero"/><path fill="#ffffff" d="M 3880.425781 375.660156 L 4020.574219 294.742188 L 4024.222656 301.046875 L 3884.046875 381.960938 L 3880.425781 375.660156 " fill-opacity="1" fill-rule="nonzero"/><path fill="#ffffff" d="M 3878.613281 378.824219 L 3878.613281 216.964844 L 3885.859375 216.964844 L 3885.859375 378.824219 L 3878.613281 378.824219 " fill-opacity="1" fill-rule="nonzero"/><path fill="#ffffff" d="M 3465.382812 459.738281 L 3465.382812 619.496094 L 3601.910156 698.3125 L 3738.441406 619.496094 L 3738.441406 459.738281 L 3745.707031 459.738281 L 3745.707031 623.675781 C 3697.800781 651.347656 3649.867188 679.042969 3601.910156 706.691406 C 3553.957031 679.042969 3506.046875 651.347656 3458.117188 623.675781 L 3458.117188 459.738281 L 3465.382812 459.738281 " fill-opacity="1" fill-rule="nonzero"/><path fill="#ffffff" d="M 3459.925781 618.433594 L 3600.101562 537.519531 L 3603.746094 543.820312 L 3463.574219 624.738281 L 3459.925781 618.433594 " fill-opacity="1" fill-rule="nonzero"/><path fill="#ffffff" d="M 3740.25 624.738281 L 3600.101562 543.820312 L 3603.746094 537.519531 L 3743.898438 618.433594 L 3740.25 624.738281 " fill-opacity="1" fill-rule="nonzero"/><path fill="#ffffff" d="M 3600.101562 543.820312 L 3459.949219 462.878906 L 3463.550781 456.578125 L 3603.722656 537.519531 L 3600.101562 543.820312 " fill-opacity="1" fill-rule="nonzero"/><path fill="#ffffff" d="M 3600.101562 537.519531 L 3740.273438 456.578125 L 3743.898438 462.878906 L 3603.722656 543.820312 L 3600.101562 537.519531 " fill-opacity="1" fill-rule="nonzero"/><path fill="#ffffff" d="M 3598.289062 540.65625 L 3598.289062 378.824219 L 3605.535156 378.824219 L 3605.558594 540.65625 L 3598.289062 540.65625 " fill-opacity="1" fill-rule="nonzero"/><path fill="#ffffff" d="M 3325.210938 378.824219 L 3325.210938 700.414062 L 3461.738281 779.230469 L 3600.101562 699.351562 L 3603.722656 705.652344 L 3461.738281 787.609375 C 3413.804688 759.960938 3365.875 732.289062 3317.941406 704.589844 L 3317.964844 378.824219 L 3325.210938 378.824219 " fill-opacity="1" fill-rule="nonzero"/><path fill="#ffffff" d="M 3319.753906 699.351562 L 3459.925781 618.433594 L 3463.574219 624.738281 L 3323.398438 705.652344 L 3319.753906 699.351562 " fill-opacity="1" fill-rule="nonzero"/><path fill="#ffffff" d="M 3603.722656 381.960938 L 3458.117188 466.019531 C 3458.09375 409.273438 3458.066406 352.550781 3458.117188 295.804688 L 3605.558594 210.664062 L 3605.558594 380.898438 Z M 3465.382812 453.460938 L 3598.265625 376.746094 L 3598.265625 223.265625 L 3465.382812 299.984375 L 3465.382812 453.460938 " fill-opacity="1" fill-rule="nonzero"/><path fill="#ffffff" d="M 3600.101562 375.660156 L 3740.273438 294.742188 L 3743.898438 301.046875 L 3603.722656 381.960938 L 3600.101562 375.660156 " fill-opacity="1" fill-rule="nonzero"/><path fill="#ffffff" d="M 3740.25 301.046875 L 3600.101562 220.128906 L 3603.746094 213.824219 L 3743.898438 294.742188 L 3740.25 301.046875 " fill-opacity="1" fill-rule="nonzero"/><path fill="#ffffff" d="M 3600.101562 213.824219 L 3740.273438 132.910156 L 3743.898438 139.1875 L 3603.722656 220.128906 L 3600.101562 213.824219 " fill-opacity="1" fill-rule="nonzero"/><path fill="#ffffff" d="M 3740.25 139.1875 L 3600.101562 58.269531 L 3603.746094 51.96875 L 3743.898438 132.882812 L 3740.25 139.1875 " fill-opacity="1" fill-rule="nonzero"/><path fill="#ffffff" d="M 3600.101562 51.96875 L 3740.273438 -28.949219 L 3743.871094 -22.671875 L 3603.722656 58.269531 L 3600.101562 51.96875 " fill-opacity="1" fill-rule="nonzero"/><path fill="#ffffff" d="M 3598.289062 216.964844 L 3598.289062 55.128906 L 3605.535156 55.128906 L 3605.535156 216.964844 L 3598.289062 216.964844 " fill-opacity="1" fill-rule="nonzero"/><path fill="#ffffff" d="M 3458.117188 136.046875 L 3461.738281 -349.480469 L 3465.382812 136.046875 L 3461.59375 139.042969 L 3458.117188 136.046875 " fill-opacity="1" fill-rule="nonzero"/><path fill="#ffffff" d="M 3598.289062 55.128906 L 3601.910156 -349.503906 L 3605.535156 55.105469 L 3601.597656 58.34375 L 3598.289062 55.128906 " fill-opacity="1" fill-rule="nonzero"/><path fill="#ffffff" d="M 3459.925781 462.878906 L 3319.753906 381.960938 L 3323.421875 375.660156 L 3463.574219 456.578125 L 3459.925781 462.878906 " fill-opacity="1" fill-rule="nonzero"/><path fill="#ffffff" d="M 3319.753906 375.660156 L 3459.925781 294.742188 L 3463.574219 301.046875 L 3323.421875 381.960938 L 3319.753906 375.660156 " fill-opacity="1" fill-rule="nonzero"/><path fill="#ffffff" d="M 3048.53125 378.824219 L 3181.4375 455.539062 L 3314.34375 378.824219 L 3181.4375 302.082031 Z M 3179.628906 462.878906 L 3034.019531 378.796875 L 3181.4375 293.703125 C 3230.554688 322.101562 3279.71875 350.449219 3328.855469 378.796875 L 3181.4375 463.917969 L 3179.628906 462.878906 " fill-opacity="1" fill-rule="nonzero"/><path fill="#ffffff" d="M 3317.964844 378.824219 L 3317.941406 -106.726562 L 3325.210938 -106.726562 L 3325.210938 378.824219 L 3317.964844 378.824219 " fill-opacity="1" fill-rule="nonzero"/><path fill="#ffffff" d="M 3037.640625 378.824219 L 3037.640625 -106.703125 L 3044.886719 -106.703125 L 3044.910156 378.824219 L 3037.640625 378.824219 " fill-opacity="1" fill-rule="nonzero"/><path fill="#ffffff" d="M 3459.925781 301.046875 L 3319.753906 220.128906 L 3323.421875 213.824219 L 3463.574219 294.742188 L 3459.925781 301.046875 " fill-opacity="1" fill-rule="nonzero"/><path fill="#ffffff" d="M 3179.628906 294.742188 L 3319.777344 213.824219 L 3323.398438 220.128906 L 3183.226562 301.046875 L 3179.628906 294.742188 " fill-opacity="1" fill-rule="nonzero"/><path fill="#ffffff" d="M 3319.777344 213.824219 L 3459.949219 132.910156 L 3463.550781 139.1875 L 3323.398438 220.128906 L 3319.777344 213.824219 " fill-opacity="1" fill-rule="nonzero"/><path fill="#ffffff" d="M 3319.777344 220.128906 L 3039.453125 58.269531 L 3043.074219 51.96875 L 3323.398438 213.824219 L 3319.777344 220.128906 " fill-opacity="1" fill-rule="nonzero"/><path fill="#ffffff" d="M 3039.453125 51.96875 L 3319.777344 -109.867188 L 3323.398438 -103.589844 L 3043.074219 58.269531 L 3039.453125 51.96875 " fill-opacity="1" fill-rule="nonzero"/><path fill="#ffffff" d="M 3043.074219 543.820312 L 2901.113281 625.777344 C 2853.15625 598.128906 2805.226562 570.453125 2757.316406 542.757812 C 2757.222656 432.066406 2757.316406 321.375 2757.316406 210.6875 C 2853.183594 266.03125 2949.023438 321.449219 3044.910156 376.722656 L 3044.910156 542.757812 Z M 2901.113281 617.394531 L 3037.640625 538.582031 L 3037.640625 380.898438 L 2764.5625 223.242188 L 2764.5625 538.554688 L 2901.113281 617.394531 " fill-opacity="1" fill-rule="nonzero"/><path fill="#ffffff" d="M 2759.128906 537.519531 L 2899.304688 456.578125 L 2902.925781 462.878906 L 2762.75 543.820312 L 2759.128906 537.519531 " fill-opacity="1" fill-rule="nonzero"/><path fill="#ffffff" d="M 3039.453125 543.820312 L 2899.304688 462.878906 L 2902.925781 456.578125 L 3043.097656 537.519531 L 3039.453125 543.820312 " fill-opacity="1" fill-rule="nonzero"/><path fill="#ffffff" d="M 2897.492188 459.738281 L 2897.492188 297.882812 L 2904.734375 297.882812 L 2904.734375 459.738281 L 2897.492188 459.738281 " fill-opacity="1" fill-rule="nonzero"/><path fill="#ffffff" d="M 2759.128906 213.824219 L 3039.453125 51.96875 L 3043.097656 58.269531 L 2762.773438 220.128906 L 2759.128906 213.824219 " fill-opacity="1" fill-rule="nonzero"/><path fill="#ffffff" d="M 2897.492188 297.882812 L 2897.492188 136.046875 L 2904.734375 136.046875 L 2904.734375 297.882812 L 2897.492188 297.882812 " fill-opacity="1" fill-rule="nonzero"/><path fill="#ffffff" d="M 2897.492188 136.046875 L 2897.492188 -25.785156 L 2904.734375 -25.785156 L 2904.734375 136.046875 L 2897.492188 136.046875 " fill-opacity="1" fill-rule="nonzero"/><path fill="#ffffff" d="M 2759.128906 51.96875 L 2899.304688 -28.949219 L 2902.925781 -22.648438 L 2762.75 58.269531 L 2759.128906 51.96875 " fill-opacity="1" fill-rule="nonzero"/><path fill="#ffffff" d="M 2757.316406 216.964844 L 2757.316406 -106.726562 L 2764.5625 -106.726562 L 2764.5625 216.964844 L 2757.316406 216.964844 " fill-opacity="1" fill-rule="nonzero"/><path fill="#ffffff" d="M 2484.261719 378.824219 L 2484.261719 538.582031 L 2620.765625 617.394531 L 2759.128906 537.519531 L 2762.75 543.820312 L 2620.765625 625.777344 C 2572.835938 598.128906 2524.925781 570.429688 2476.992188 542.757812 L 2476.992188 378.824219 L 2484.261719 378.824219 " fill-opacity="1" fill-rule="nonzero"/><path fill="#ffffff" d="M 2344.089844 297.882812 L 2344.089844 619.496094 L 2480.617188 698.3125 L 2618.980469 618.433594 L 2622.601562 624.738281 L 2480.617188 706.691406 L 2336.820312 623.675781 L 2336.820312 297.882812 L 2344.089844 297.882812 " fill-opacity="1" fill-rule="nonzero"/><g clip-path="url(#f5ad7bc019)"><path fill="#ffffff" d="M 2063.765625 781.332031 L 2200.316406 860.171875 L 2336.820312 781.355469 L 2336.820312 621.574219 L 2344.113281 621.574219 L 2344.113281 785.507812 C 2296.15625 813.207031 2248.25 840.878906 2200.316406 868.527344 C 2155.980469 842.980469 2100.78125 811.128906 2056.496094 785.507812 L 2056.496094 295.828125 L 2338.65625 132.882812 L 2342.277344 139.1875 L 2063.765625 300.007812 L 2063.765625 781.332031 " fill-opacity="1" fill-rule="nonzero"/></g><path fill="#ffffff" d="M 2061.808594 778.265625 L 2198.480469 699.375 L 2202.101562 705.652344 L 2061.808594 786.667969 L 2061.808594 778.265625 " fill-opacity="1" fill-rule="nonzero"/><path fill="#ffffff" d="M 2338.65625 786.570312 L 2198.480469 705.652344 L 2202.101562 699.375 L 2342.253906 780.269531 L 2338.65625 786.570312 " fill-opacity="1" fill-rule="nonzero"/><path fill="#ffffff" d="M 2196.671875 702.515625 L 2196.671875 540.65625 L 2203.914062 540.65625 L 2203.914062 702.515625 L 2196.671875 702.515625 " fill-opacity="1" fill-rule="nonzero"/><path fill="#ffffff" d="M 2759.128906 543.820312 L 2478.804688 381.960938 L 2482.453125 375.660156 L 2762.773438 537.519531 L 2759.128906 543.820312 " fill-opacity="1" fill-rule="nonzero"/><path fill="#ffffff" d="M 2338.65625 618.433594 L 2618.953125 456.578125 L 2622.601562 462.878906 L 2342.277344 624.738281 L 2338.65625 618.433594 " fill-opacity="1" fill-rule="nonzero"/><path fill="#ffffff" d="M 2617.144531 459.714844 L 2617.144531 297.882812 L 2624.386719 297.882812 L 2624.414062 459.714844 L 2617.144531 459.714844 " fill-opacity="1" fill-rule="nonzero"/><path fill="#ffffff" d="M 2478.804688 375.660156 L 2759.128906 213.824219 L 2762.773438 220.105469 L 2482.453125 381.960938 L 2478.804688 375.660156 " fill-opacity="1" fill-rule="nonzero"/><path fill="#ffffff" d="M 2759.128906 220.105469 L 2478.804688 58.269531 L 2482.453125 51.96875 L 2762.773438 213.824219 L 2759.128906 220.105469 " fill-opacity="1" fill-rule="nonzero"/><path fill="#ffffff" d="M 2476.992188 378.824219 L 2476.992188 55.128906 L 2484.261719 55.128906 L 2484.261719 378.824219 L 2476.992188 378.824219 " fill-opacity="1" fill-rule="nonzero"/><path fill="#ffffff" d="M 2618.953125 132.910156 L 2759.128906 51.96875 L 2762.75 58.269531 L 2622.601562 139.1875 L 2618.953125 132.910156 " fill-opacity="1" fill-rule="nonzero"/><path fill="#ffffff" d="M 2617.144531 297.882812 L 2617.144531 136.046875 L 2624.386719 136.046875 L 2624.386719 297.882812 L 2617.144531 297.882812 " fill-opacity="1" fill-rule="nonzero"/><path fill="#ffffff" d="M 2478.804688 51.96875 L 2760.941406 -110.90625 L 3043.097656 51.96875 L 3039.453125 58.269531 L 2760.941406 -102.527344 L 2482.453125 58.269531 L 2478.804688 51.96875 " fill-opacity="1" fill-rule="nonzero"/><path fill="#ffffff" d="M 2617.144531 136.046875 L 2617.144531 -25.8125 L 2624.386719 -25.8125 L 2624.386719 136.046875 L 2617.144531 136.046875 " fill-opacity="1" fill-rule="nonzero"/><path fill="#ffffff" d="M 2478.804688 543.820312 L 2338.65625 462.878906 L 2342.277344 456.578125 L 2482.453125 537.519531 L 2478.804688 543.820312 " fill-opacity="1" fill-rule="nonzero"/><path fill="#ffffff" d="M 2198.480469 699.375 L 2338.65625 618.433594 L 2342.253906 624.738281 L 2202.101562 705.652344 L 2198.480469 699.375 " fill-opacity="1" fill-rule="nonzero"/><path fill="#ffffff" d="M 2198.480469 537.519531 L 2338.65625 456.578125 L 2342.277344 462.878906 L 2202.128906 543.820312 L 2198.480469 537.519531 " fill-opacity="1" fill-rule="nonzero"/><path fill="#ffffff" d="M 2198.480469 543.820312 L 2060.070312 463.894531 L 2060.070312 455.515625 L 2202.101562 537.519531 L 2198.480469 543.820312 " fill-opacity="1" fill-rule="nonzero"/><path fill="#ffffff" d="M 2338.65625 462.878906 L 2061.808594 303.050781 L 2061.808594 294.671875 L 2342.277344 456.578125 L 2338.65625 462.878906 " fill-opacity="1" fill-rule="nonzero"/><path fill="#ffffff" d="M 2338.65625 294.742188 L 2478.804688 213.824219 L 2482.453125 220.128906 L 2342.277344 301.046875 L 2338.65625 294.742188 " fill-opacity="1" fill-rule="nonzero"/><path fill="#ffffff" d="M 2336.820312 297.882812 L 2336.820312 -25.8125 L 2344.089844 -25.8125 L 2344.089844 297.882812 L 2336.820312 297.882812 " fill-opacity="1" fill-rule="nonzero"/><path fill="#ffffff" d="M 2478.804688 220.128906 L 2338.65625 139.1875 L 2342.277344 132.910156 L 2482.453125 213.824219 L 2478.804688 220.128906 " fill-opacity="1" fill-rule="nonzero"/><path fill="#ffffff" d="M 2338.65625 132.910156 L 2478.804688 51.96875 L 2482.453125 58.269531 L 2342.277344 139.1875 L 2338.65625 132.910156 " fill-opacity="1" fill-rule="nonzero"/><path fill="#ffffff" d="M 2196.671875 378.824219 L 2196.671875 216.964844 L 2203.9375 216.964844 L 2203.9375 378.824219 L 2196.671875 378.824219 " fill-opacity="1" fill-rule="nonzero"/><path fill="#ffffff" d="M 2196.671875 216.964844 L 2196.671875 55.128906 L 2203.914062 55.128906 L 2203.9375 216.964844 L 2196.671875 216.964844 " fill-opacity="1" fill-rule="nonzero"/><path fill="#ffffff" d="M 2338.65625 139.1875 L 2056.496094 -23.710938 L 2060.117188 -349.503906 L 2063.714844 -27.933594 L 2342.277344 132.882812 L 2338.65625 139.1875 " fill-opacity="1" fill-rule="nonzero"/><path fill="#ffffff" d="M 2198.480469 51.96875 L 2338.65625 -28.949219 L 2342.277344 -22.648438 L 2202.128906 58.269531 L 2198.480469 51.96875 " fill-opacity="1" fill-rule="nonzero"/><path fill="#ffffff" d="M 3458.117188 297.882812 L 3458.117188 136.046875 L 3465.382812 136.046875 L 3465.382812 297.882812 L 3458.117188 297.882812 " fill-opacity="1" fill-rule="nonzero"/><path fill="#ffffff" d="M 2476.992188 55.128906 L 2480.617188 -349.480469 L 2484.261719 55.128906 L 2476.992188 55.128906 " fill-opacity="1" fill-rule="nonzero"/><path fill="#ffffff" d="M 2196.671875 55.128906 L 2200.316406 -349.480469 L 2203.914062 55.128906 L 2196.671875 55.128906 " fill-opacity="1" fill-rule="nonzero"/><path fill="#ffffff" d="M 5147.328125 299.957031 C 5103.019531 325.53125 5047.84375 357.429688 5003.53125 383 C 4955.574219 355.351562 4907.644531 327.679688 4859.734375 299.957031 C 4859.6875 244.636719 4859.6875 189.292969 4859.734375 133.945312 L 4861.546875 132.882812 L 5003.53125 50.929688 C 5047.816406 76.523438 5103.019531 108.398438 5147.328125 133.945312 C 5147.328125 189.292969 5147.328125 244.636719 5147.328125 299.957031 Z M 5140.035156 295.804688 L 5140.035156 138.125 L 5003.53125 59.308594 L 4867.003906 138.148438 L 4867.003906 295.804688 L 5003.53125 374.621094 L 5140.035156 295.804688 " fill-opacity="1" fill-rule="evenodd"/></svg>